<?plantuml 1.2026.2?><svg xmlns="http://www.w3.org/2000/svg" xmlns:xlink="http://www.w3.org/1999/xlink" contentStyleType="text/css" data-diagram-type="CLASS" height="891px" preserveAspectRatio="none" style="width:720px;height:891px;background:#FFFFFF;" version="1.1" viewBox="0 0 720 891" width="720px" zoomAndPan="magnify"><title>OsLib Os Class Diagram</title><defs/><g><g class="title" data-source-line="1"><text fill="#000000" font-family="sans-serif" font-size="14" font-weight="bold" lengthAdjust="spacing" textLength="174.5762" x="266.1369" y="23.5352">OsLib Os Class Diagram</text></g><!--class OsType--><g class="entity" data-qualified-name="OsType" data-source-line="31" id="ent0002"><rect fill="#CCFBF1" height="72.456" rx="2.5" ry="2.5" style="stroke:#0F766E;stroke-width:0.5;" width="67.4" x="294.88" y="759.4283"/><ellipse cx="309.88" cy="775.4283" fill="#F59E0B" rx="11" ry="11" style="stroke:#181818;stroke-width:1;"/><path d="M313.4943,781.9283 L305.7745,781.9283 L305.7745,769.5352 L313.4943,769.5352 L313.4943,771.6934 L308.2233,771.6934 L308.2233,774.3663 L312.9962,774.3663 L312.9962,776.5245 L308.2233,776.5245 L308.2233,779.7701 L313.4943,779.7701 Z " fill="#000000"/><text fill="#111827" font-family="'Casual'" font-size="12" lengthAdjust="spacing" textLength="35.4" x="323.88" y="778.9143">OsType</text><line style="stroke:#0F766E;stroke-width:0.5;" x1="295.88" x2="361.28" y1="791.4283" y2="791.4283"/><text fill="#053583" font-family="Casual" font-size="12" lengthAdjust="spacing" textLength="25.5" x="300.88" y="805.0283">UNIX</text><text fill="#053583" font-family="Casual" font-size="12" lengthAdjust="spacing" textLength="44.052" x="300.88" y="817.2563">Windows</text><line style="stroke:#0F766E;stroke-width:0.5;" x1="295.88" x2="361.28" y1="823.8843" y2="823.8843"/></g><!--class CloudStorageType--><g class="entity" data-qualified-name="CloudStorageType" data-source-line="35" id="ent0003"><rect fill="#CCFBF1" height="96.912" rx="2.5" ry="2.5" style="stroke:#0F766E;stroke-width:0.5;" width="123.464" x="396.84" y="747.1983"/><ellipse cx="411.84" cy="763.1983" fill="#F59E0B" rx="11" ry="11" style="stroke:#181818;stroke-width:1;"/><path d="M415.4543,769.6983 L407.7345,769.6983 L407.7345,757.3052 L415.4543,757.3052 L415.4543,759.4634 L410.1833,759.4634 L410.1833,762.1363 L414.9562,762.1363 L414.9562,764.2945 L410.1833,764.2945 L410.1833,767.5401 L415.4543,767.5401 Z " fill="#000000"/><text fill="#111827" font-family="'Casual'" font-size="12" lengthAdjust="spacing" textLength="91.464" x="425.84" y="766.6843">CloudStorageType</text><line style="stroke:#0F766E;stroke-width:0.5;" x1="397.84" x2="519.304" y1="779.1983" y2="779.1983"/><text fill="#053583" font-family="Casual" font-size="12" lengthAdjust="spacing" textLength="41.988" x="402.84" y="792.7983">Dropbox</text><text fill="#053583" font-family="Casual" font-size="12" lengthAdjust="spacing" textLength="44.772" x="402.84" y="805.0263">OneDrive</text><text fill="#053583" font-family="Casual" font-size="12" lengthAdjust="spacing" textLength="60.324" x="402.84" y="817.2543">GoogleDrive</text><text fill="#053583" font-family="Casual" font-size="12" lengthAdjust="spacing" textLength="32.616" x="402.84" y="829.4823">ICloud</text><line style="stroke:#0F766E;stroke-width:0.5;" x1="397.84" x2="519.304" y1="836.1103" y2="836.1103"/></g><!--class LegendSample--><g class="entity" data-qualified-name="LegendSample" data-source-line="41" id="ent0004"><rect fill="#CCFBF1" height="178.28" rx="2.5" ry="2.5" style="stroke:#0F766E;stroke-width:0.5;" width="158.54" x="555.31" y="706.5183"/><ellipse cx="612.81" cy="722.5183" fill="#ADD1B2" rx="11" ry="11" style="stroke:#181818;stroke-width:1;"/><path d="M615.2831,728.6613 Q614.7021,728.9602 614.0629,729.1096 Q613.4238,729.259 612.7182,729.259 Q610.2114,729.259 608.8915,727.6071 Q607.5717,725.9553 607.5717,722.8342 Q607.5717,719.7048 608.8915,718.0529 Q610.2114,716.4011 612.7182,716.4011 Q613.4238,716.4011 614.0712,716.5505 Q614.7187,716.6999 615.2831,716.9988 L615.2831,719.7214 Q614.6523,719.1404 614.0588,718.8706 Q613.4653,718.6008 612.8344,718.6008 Q611.4897,718.6008 610.8049,719.6675 Q610.1201,720.7341 610.1201,722.8342 Q610.1201,724.926 610.8049,725.9926 Q611.4897,727.0593 612.8344,727.0593 Q613.4653,727.0593 614.0588,726.7895 Q614.6523,726.5197 615.2831,725.9387 Z " fill="#000000"/><text fill="#111827" font-family="'Casual'" font-size="12" lengthAdjust="spacing" textLength="35.04" x="633.31" y="726.0043">Legend</text><line style="stroke:#0F766E;stroke-width:0.5;" x1="556.31" x2="712.85" y1="738.5183" y2="738.5183"/><g data-visibility-modifier="PUBLIC_METHOD"><ellipse cx="566.31" cy="750.1323" fill="#84BE84" rx="3" ry="3" style="stroke:#038048;stroke-width:1;"/></g><text fill="#053583" font-family="Casual" font-size="12" lengthAdjust="spacing" text-decoration="underline" textLength="113.232" x="575.31" y="752.1183">staticMethod() : void</text><g data-visibility-modifier="PRIVATE_FIELD"><rect fill="none" height="6" style="stroke:#C82930;stroke-width:1;" width="6" x="563.31" y="759.3603"/></g><text fill="#053583" font-family="Casual" font-size="12" lengthAdjust="spacing" text-decoration="underline" textLength="121.092" x="575.31" y="764.3463">staticProperty : string</text><line style="stroke:#0F766E;stroke-width:1;" x1="556.31" x2="712.85" y1="770.9743" y2="770.9743"/><line style="stroke:#0F766E;stroke-width:1;" x1="556.31" x2="712.85" y1="772.9743" y2="772.9743"/><g data-visibility-modifier="PRIVATE_FIELD"><rect fill="none" height="6" style="stroke:#C82930;stroke-width:1;" width="6" x="563.31" y="779.5883"/></g><text fill="#053583" font-family="Casual" font-size="12" lengthAdjust="spacing" textLength="108.132" x="575.31" y="784.5743">privateField : string</text><g data-visibility-modifier="PUBLIC_FIELD"><ellipse cx="566.31" cy="794.8163" fill="none" rx="3" ry="3" style="stroke:#038048;stroke-width:1;"/></g><text fill="#053583" font-family="Casual" font-size="12" lengthAdjust="spacing" textLength="102.516" x="575.31" y="796.8023">publicField : string</text><g data-visibility-modifier="PROTECTED_FIELD"><polygon fill="none" points="566.31,802.0443,570.31,806.0443,566.31,810.0443,562.31,806.0443" style="stroke:#B38D22;stroke-width:1;"/></g><text fill="#053583" font-family="Casual" font-size="12" lengthAdjust="spacing" textLength="120.324" x="575.31" y="809.0303">protectedField : string</text><g data-visibility-modifier="PACKAGE_PRIVATE_FIELD"><polygon fill="none" points="566.31,815.2723,562.31,821.2723,570.31,821.2723" style="stroke:#1963A0;stroke-width:1;"/></g><text fill="#053583" font-family="Casual" font-size="12" lengthAdjust="spacing" textLength="112.068" x="575.31" y="821.2583">internalField : string</text><line style="stroke:#0F766E;stroke-width:1;" x1="556.31" x2="712.85" y1="827.8863" y2="827.8863"/><g data-visibility-modifier="PRIVATE_METHOD"><rect fill="#F24D5C" height="6" style="stroke:#C82930;stroke-width:1;" width="6" x="563.31" y="836.5003"/></g><text fill="#053583" font-family="Casual" font-size="12" lengthAdjust="spacing" textLength="120.348" x="575.31" y="841.4863">privateMethod() : void</text><g data-visibility-modifier="PUBLIC_METHOD"><ellipse cx="566.31" cy="851.7283" fill="#84BE84" rx="3" ry="3" style="stroke:#038048;stroke-width:1;"/></g><text fill="#053583" font-family="Casual" font-size="12" lengthAdjust="spacing" textLength="114.732" x="575.31" y="853.7143">publicMethod() : void</text><g data-visibility-modifier="PROTECTED_METHOD"><polygon fill="#FFFF44" points="566.31,858.9563,570.31,862.9563,566.31,866.9563,562.31,862.9563" style="stroke:#B38D22;stroke-width:1;"/></g><text fill="#053583" font-family="Casual" font-size="12" lengthAdjust="spacing" textLength="132.54" x="575.31" y="865.9423">protectedMethod() : void</text><g data-visibility-modifier="PACKAGE_PRIVATE_METHOD"><polygon fill="#4177AF" points="566.31,872.1843,562.31,878.1843,570.31,878.1843" style="stroke:#1963A0;stroke-width:1;"/></g><text fill="#053583" font-family="Casual" font-size="12" lengthAdjust="spacing" textLength="124.284" x="575.31" y="878.1703">internalMethod() : void</text></g><!--class Os--><g class="entity" data-qualified-name="Os" data-source-line="57" id="ent0005"><rect fill="#CCFBF1" height="602.032" rx="2.5" ry="2.5" style="stroke:#0F766E;stroke-width:0.5;" width="639.1521" x="9" y="44.4883"/><ellipse cx="318.524" cy="60.4883" fill="#14B8A6" rx="11" ry="11" style="stroke:#181818;stroke-width:1;"/><path d="M320.9972,66.6313 Q320.4161,66.9302 319.777,67.0796 Q319.1378,67.229 318.4323,67.229 Q315.9254,67.229 314.6056,65.5771 Q313.2858,63.9253 313.2858,60.8042 Q313.2858,57.6748 314.6056,56.0229 Q315.9254,54.3711 318.4323,54.3711 Q319.1378,54.3711 319.7853,54.5205 Q320.4327,54.6699 320.9972,54.9688 L320.9972,57.6914 Q320.3663,57.1104 319.7728,56.8406 Q319.1793,56.5708 318.5485,56.5708 Q317.2037,56.5708 316.5189,57.6375 Q315.8341,58.7041 315.8341,60.8042 Q315.8341,62.896 316.5189,63.9626 Q317.2037,65.0293 318.5485,65.0293 Q319.1793,65.0293 319.7728,64.7595 Q320.3663,64.4897 320.9972,63.9087 Z " fill="#000000"/><text fill="#111827" font-family="'Casual'" font-size="12" lengthAdjust="spacing" textLength="11.604" x="339.024" y="63.9743">Os</text><line style="stroke:#0F766E;stroke-width:0.5;" x1="10" x2="647.1521" y1="76.4883" y2="76.4883"/><g data-visibility-modifier="PRIVATE_FIELD"><rect fill="none" height="6" style="stroke:#C82930;stroke-width:1;" width="6" x="17" y="85.1023"/></g><text fill="#053583" font-family="Casual" font-size="12" lengthAdjust="spacing" text-decoration="underline" textLength="88.836" x="29" y="90.0883">homeDir : string</text><g data-visibility-modifier="PRIVATE_FIELD"><rect fill="none" height="6" style="stroke:#C82930;stroke-width:1;" width="6" x="17" y="97.3303"/></g><text fill="#053583" font-family="Casual" font-size="12" lengthAdjust="spacing" text-decoration="underline" textLength="80.388" x="29" y="102.3163">type : OsType?</text><g data-visibility-modifier="PRIVATE_FIELD"><rect fill="none" height="6" style="stroke:#C82930;stroke-width:1;" width="6" x="17" y="109.5583"/></g><text fill="#053583" font-family="Casual" font-size="12" lengthAdjust="spacing" text-decoration="underline" textLength="87.156" x="29" y="114.5443">tempDir : string</text><g data-visibility-modifier="PRIVATE_FIELD"><rect fill="none" height="6" style="stroke:#C82930;stroke-width:1;" width="6" x="17" y="121.7863"/></g><text fill="#053583" font-family="Casual" font-size="12" lengthAdjust="spacing" text-decoration="underline" textLength="121.668" x="29" y="126.7723">dIRSEPERATOR : string</text><g data-visibility-modifier="PRIVATE_FIELD"><rect fill="none" height="6" style="stroke:#C82930;stroke-width:1;" width="6" x="17" y="134.0143"/></g><text fill="#053583" font-family="Casual" font-size="12" lengthAdjust="spacing" text-decoration="underline" textLength="211.488" x="29" y="139.0003">DefaultCloudOrder : CloudStorageType[]</text><g data-visibility-modifier="PRIVATE_FIELD"><rect fill="none" height="6" style="stroke:#C82930;stroke-width:1;" width="6" x="17" y="146.2423"/></g><text fill="#053583" font-family="Casual" font-size="12" lengthAdjust="spacing" text-decoration="underline" textLength="302.748" x="29" y="151.2283">EnvVarByProvider : Dictionary&lt;CloudStorageType, string&gt;</text><g data-visibility-modifier="PRIVATE_FIELD"><rect fill="none" height="6" style="stroke:#C82930;stroke-width:1;" width="6" x="17" y="158.4703"/></g><text fill="#053583" font-family="Casual" font-size="12" lengthAdjust="spacing" text-decoration="underline" textLength="298.056" x="29" y="163.4563">cloudRootsCache : Dictionary&lt;CloudStorageType, string&gt;</text><g data-visibility-modifier="PRIVATE_FIELD"><rect fill="none" height="6" style="stroke:#C82930;stroke-width:1;" width="6" x="17" y="170.6983"/></g><text fill="#053583" font-family="Casual" font-size="12" lengthAdjust="spacing" text-decoration="underline" textLength="161.148" x="29" y="175.6843">isDiscoveringCloudRoots : bool</text><line style="stroke:#0F766E;stroke-width:1;" x1="10" x2="647.1521" y1="182.3123" y2="182.3123"/><line style="stroke:#0F766E;stroke-width:1;" x1="10" x2="647.1521" y1="184.3123" y2="184.3123"/><g data-visibility-modifier="PUBLIC_FIELD"><ellipse cx="20" cy="193.9263" fill="none" rx="3" ry="3" style="stroke:#038048;stroke-width:1;"/></g><text fill="#053583" font-family="Casual" font-size="12" lengthAdjust="spacing" text-decoration="underline" textLength="122.412" x="29" y="195.9123">DIRSEPERATOR : string</text><g data-visibility-modifier="PUBLIC_FIELD"><ellipse cx="20" cy="206.1543" fill="none" rx="3" ry="3" style="stroke:#038048;stroke-width:1;"/></g><text fill="#053583" font-family="Casual" font-size="12" lengthAdjust="spacing" text-decoration="underline" textLength="110.256" x="29" y="208.1403">ESCAPECHAR : string</text><g data-visibility-modifier="PUBLIC_FIELD"><ellipse cx="20" cy="218.3823" fill="none" rx="3" ry="3" style="stroke:#038048;stroke-width:1;"/></g><text fill="#053583" font-family="Casual" font-size="12" lengthAdjust="spacing" text-decoration="underline" textLength="112.644" x="29" y="220.3683">DATEFORMAT : string</text><g data-visibility-modifier="PUBLIC_FIELD"><ellipse cx="20" cy="230.6103" fill="none" rx="3" ry="3" style="stroke:#038048;stroke-width:1;"/></g><text fill="#053583" font-family="Casual" font-size="12" lengthAdjust="spacing" text-decoration="underline" textLength="75.876" x="29" y="232.5963">Type : OsType</text><g data-visibility-modifier="PUBLIC_FIELD"><ellipse cx="20" cy="242.8383" fill="none" rx="3" ry="3" style="stroke:#038048;stroke-width:1;"/></g><text fill="#053583" font-family="Casual" font-size="12" lengthAdjust="spacing" text-decoration="underline" textLength="89.028" x="29" y="244.8243">HomeDir : string</text><g data-visibility-modifier="PUBLIC_FIELD"><ellipse cx="20" cy="255.0663" fill="none" rx="3" ry="3" style="stroke:#038048;stroke-width:1;"/></g><text fill="#053583" font-family="Casual" font-size="12" lengthAdjust="spacing" text-decoration="underline" textLength="125.784" x="29" y="257.0523">LocalBackupDir : string</text><g data-visibility-modifier="PUBLIC_FIELD"><ellipse cx="20" cy="267.2943" fill="none" rx="3" ry="3" style="stroke:#038048;stroke-width:1;"/></g><text fill="#053583" font-family="Casual" font-size="12" lengthAdjust="spacing" text-decoration="underline" textLength="88.644" x="29" y="269.2803">TempDir : string</text><g data-visibility-modifier="PUBLIC_FIELD"><ellipse cx="20" cy="279.5223" fill="none" rx="3" ry="3" style="stroke:#038048;stroke-width:1;"/></g><text fill="#053583" font-family="Casual" font-size="12" lengthAdjust="spacing" text-decoration="underline" textLength="137.58" x="29" y="281.5083">CloudStorageRoot : string</text><line style="stroke:#0F766E;stroke-width:1;" x1="10" x2="647.1521" y1="288.1363" y2="288.1363"/><g data-visibility-modifier="PUBLIC_METHOD"><ellipse cx="20" cy="299.7503" fill="#84BE84" rx="3" ry="3" style="stroke:#038048;stroke-width:1;"/></g><text fill="#053583" font-family="Casual" font-size="12" lengthAdjust="spacing" text-decoration="underline" textLength="348.12" x="29" y="301.7363">ParseDateTime(datetimeInDATEFORMAT : string) : DateTimeOffset</text><g data-visibility-modifier="PUBLIC_METHOD"><ellipse cx="20" cy="311.9783" fill="#84BE84" rx="3" ry="3" style="stroke:#038048;stroke-width:1;"/></g><text fill="#053583" font-family="Casual" font-size="12" lengthAdjust="spacing" text-decoration="underline" textLength="201.876" x="29" y="313.9643">escapeParam(param : string) : string</text><g data-visibility-modifier="PUBLIC_METHOD"><ellipse cx="20" cy="324.2063" fill="#84BE84" rx="3" ry="3" style="stroke:#038048;stroke-width:1;"/></g><text fill="#053583" font-family="Casual" font-size="12" lengthAdjust="spacing" text-decoration="underline" textLength="192.12" x="29" y="326.1923">escapeBlank(name : string) : string</text><g data-visibility-modifier="PUBLIC_METHOD"><ellipse cx="20" cy="336.4343" fill="#84BE84" rx="3" ry="3" style="stroke:#038048;stroke-width:1;"/></g><text fill="#053583" font-family="Casual" font-size="12" lengthAdjust="spacing" text-decoration="underline" textLength="208.02" x="29" y="338.4203">winInternal(fullname : string) : string</text><g data-visibility-modifier="PUBLIC_METHOD"><ellipse cx="20" cy="348.6623" fill="#84BE84" rx="3" ry="3" style="stroke:#038048;stroke-width:1;"/></g><text fill="#053583" font-family="Casual" font-size="12" lengthAdjust="spacing" text-decoration="underline" textLength="176.604" x="29" y="350.6483">NormPath(path : string) : string</text><g data-visibility-modifier="PUBLIC_METHOD"><ellipse cx="20" cy="360.8903" fill="#84BE84" rx="3" ry="3" style="stroke:#038048;stroke-width:1;"/></g><text fill="#053583" font-family="Casual" font-size="12" lengthAdjust="spacing" text-decoration="underline" textLength="255.636" x="29" y="362.8763">Escape(s : string, mode : EscapeMode) : string</text><g data-visibility-modifier="PUBLIC_METHOD"><ellipse cx="20" cy="373.1183" fill="#84BE84" rx="3" ry="3" style="stroke:#038048;stroke-width:1;"/></g><text fill="#053583" font-family="Casual" font-size="12" lengthAdjust="spacing" text-decoration="underline" textLength="185.016" x="29" y="375.1043">NormSeperator(s : string) : string</text><g data-visibility-modifier="PUBLIC_METHOD"><ellipse cx="20" cy="385.3463" fill="#84BE84" rx="3" ry="3" style="stroke:#038048;stroke-width:1;"/></g><text fill="#053583" font-family="Casual" font-size="12" lengthAdjust="spacing" text-decoration="underline" textLength="506.928" x="29" y="387.3323">GetCloudStorageRoots(refresh : bool = false) : IReadOnlyDictionary&lt;CloudStorageType, string&gt;</text><g data-visibility-modifier="PUBLIC_METHOD"><ellipse cx="20" cy="397.5743" fill="#84BE84" rx="3" ry="3" style="stroke:#038048;stroke-width:1;"/></g><text fill="#053583" font-family="Casual" font-size="12" lengthAdjust="spacing" text-decoration="underline" textLength="406.764" x="29" y="399.5603">GetPreferredCloudStorageRoot(preferredOrder : CloudStorageType[]) : string</text><g data-visibility-modifier="PUBLIC_METHOD"><ellipse cx="20" cy="409.8023" fill="#84BE84" rx="3" ry="3" style="stroke:#038048;stroke-width:1;"/></g><text fill="#053583" font-family="Casual" font-size="12" lengthAdjust="spacing" text-decoration="underline" textLength="445.044" x="29" y="411.7883">GetCloudStorageRoot(provider : CloudStorageType, refresh : bool = false) : string</text><g data-visibility-modifier="PUBLIC_METHOD"><ellipse cx="20" cy="422.0303" fill="#84BE84" rx="3" ry="3" style="stroke:#038048;stroke-width:1;"/></g><text fill="#053583" font-family="Casual" font-size="12" lengthAdjust="spacing" text-decoration="underline" textLength="171.696" x="29" y="424.0163">ResetCloudStorageCache() : void</text><g data-visibility-modifier="PUBLIC_METHOD"><ellipse cx="20" cy="434.2583" fill="#84BE84" rx="3" ry="3" style="stroke:#038048;stroke-width:1;"/></g><text fill="#053583" font-family="Casual" font-size="12" lengthAdjust="spacing" text-decoration="underline" textLength="304.08" x="29" y="436.2443">GetCloudDiscoveryReport(refresh : bool = false) : string</text><line style="stroke:#0F766E;stroke-width:1;" x1="10" x2="647.1521" y1="442.8723" y2="442.8723"/><line style="stroke:#0F766E;stroke-width:1;" x1="10" x2="647.1521" y1="444.8723" y2="444.8723"/><g data-visibility-modifier="PRIVATE_METHOD"><rect fill="#F24D5C" height="6" style="stroke:#C82930;stroke-width:1;" width="6" x="17" y="451.4863"/></g><text fill="#053583" font-family="Casual" font-size="12" lengthAdjust="spacing" text-decoration="underline" textLength="360.096" x="29" y="456.4723">DiscoverCloudStorageRoots() : Dictionary&lt;CloudStorageType, string&gt;</text><g data-visibility-modifier="PRIVATE_METHOD"><rect fill="#F24D5C" height="6" style="stroke:#C82930;stroke-width:1;" width="6" x="17" y="463.7143"/></g><text fill="#053583" font-family="Casual" font-size="12" lengthAdjust="spacing" text-decoration="underline" textLength="425.136" x="29" y="468.7003">ApplyEnvironmentOverrides(roots : Dictionary&lt;CloudStorageType, string&gt;) : void</text><g data-visibility-modifier="PRIVATE_METHOD"><rect fill="#F24D5C" height="6" style="stroke:#C82930;stroke-width:1;" width="6" x="17" y="475.9423"/></g><text fill="#053583" font-family="Casual" font-size="12" lengthAdjust="spacing" text-decoration="underline" textLength="397.9321" x="29" y="480.9283">ApplyIniConfiguration(roots : Dictionary&lt;CloudStorageType, string&gt;) : void</text><g data-visibility-modifier="PRIVATE_METHOD"><rect fill="#F24D5C" height="6" style="stroke:#C82930;stroke-width:1;" width="6" x="17" y="488.1703"/></g><text fill="#053583" font-family="Casual" font-size="12" lengthAdjust="spacing" text-decoration="underline" textLength="263.712" x="29" y="493.1563">GetCloudConfigCandidates() : IEnumerable&lt;string&gt;</text><g data-visibility-modifier="PRIVATE_METHOD"><rect fill="#F24D5C" height="6" style="stroke:#C82930;stroke-width:1;" width="6" x="17" y="500.3983"/></g><text fill="#053583" font-family="Casual" font-size="12" lengthAdjust="spacing" text-decoration="underline" textLength="390.8401" x="29" y="505.3843">ApplyProviderProbes(roots : Dictionary&lt;CloudStorageType, string&gt;) : void</text><g data-visibility-modifier="PRIVATE_METHOD"><rect fill="#F24D5C" height="6" style="stroke:#C82930;stroke-width:1;" width="6" x="17" y="512.6263"/></g><text fill="#053583" font-family="Casual" font-size="12" lengthAdjust="spacing" text-decoration="underline" textLength="356.544" x="29" y="517.6123">ProbeDropbox(roots : Dictionary&lt;CloudStorageType, string&gt;) : void</text><g data-visibility-modifier="PRIVATE_METHOD"><rect fill="#F24D5C" height="6" style="stroke:#C82930;stroke-width:1;" width="6" x="17" y="524.8543"/></g><text fill="#053583" font-family="Casual" font-size="12" lengthAdjust="spacing" text-decoration="underline" textLength="285.828" x="29" y="529.8403">GetDropboxInfoFileCandidates() : IEnumerable&lt;string&gt;</text><g data-visibility-modifier="PRIVATE_METHOD"><rect fill="#F24D5C" height="6" style="stroke:#C82930;stroke-width:1;" width="6" x="17" y="537.0823"/></g><text fill="#053583" font-family="Casual" font-size="12" lengthAdjust="spacing" text-decoration="underline" textLength="359.328" x="29" y="542.0683">ProbeOneDrive(roots : Dictionary&lt;CloudStorageType, string&gt;) : void</text><g data-visibility-modifier="PRIVATE_METHOD"><rect fill="#F24D5C" height="6" style="stroke:#C82930;stroke-width:1;" width="6" x="17" y="549.3103"/></g><text fill="#053583" font-family="Casual" font-size="12" lengthAdjust="spacing" text-decoration="underline" textLength="374.88" x="29" y="554.2963">ProbeGoogleDrive(roots : Dictionary&lt;CloudStorageType, string&gt;) : void</text><g data-visibility-modifier="PRIVATE_METHOD"><rect fill="#F24D5C" height="6" style="stroke:#C82930;stroke-width:1;" width="6" x="17" y="561.5383"/></g><text fill="#053583" font-family="Casual" font-size="12" lengthAdjust="spacing" text-decoration="underline" textLength="347.172" x="29" y="566.5243">ProbeICloud(roots : Dictionary&lt;CloudStorageType, string&gt;) : void</text><g data-visibility-modifier="PRIVATE_METHOD"><rect fill="#F24D5C" height="6" style="stroke:#C82930;stroke-width:1;" width="6" x="17" y="573.7663"/></g><text fill="#053583" font-family="Casual" font-size="12" lengthAdjust="spacing" text-decoration="underline" textLength="613.1521" x="29" y="578.7523">TryAddRoot(roots : Dictionary&lt;CloudStorageType, string&gt;, provider : CloudStorageType, candidate : string) : bool</text><g data-visibility-modifier="PRIVATE_METHOD"><rect fill="#F24D5C" height="6" style="stroke:#C82930;stroke-width:1;" width="6" x="17" y="585.9943"/></g><text fill="#053583" font-family="Casual" font-size="12" lengthAdjust="spacing" text-decoration="underline" textLength="212.772" x="29" y="590.9803">ExpandPath(candidate : string) : string</text><g data-visibility-modifier="PRIVATE_METHOD"><rect fill="#F24D5C" height="6" style="stroke:#C82930;stroke-width:1;" width="6" x="17" y="598.2223"/></g><text fill="#053583" font-family="Casual" font-size="12" lengthAdjust="spacing" text-decoration="underline" textLength="279.84" x="29" y="603.2083">NormalizePathForComparison(value : string) : string</text><g data-visibility-modifier="PRIVATE_METHOD"><rect fill="#F24D5C" height="6" style="stroke:#C82930;stroke-width:1;" width="6" x="17" y="610.4503"/></g><text fill="#053583" font-family="Casual" font-size="12" lengthAdjust="spacing" text-decoration="underline" textLength="298.608" x="29" y="615.4363">IsDropboxMetadataPath(normalizedPath : string) : bool</text><g data-visibility-modifier="PRIVATE_METHOD"><rect fill="#F24D5C" height="6" style="stroke:#C82930;stroke-width:1;" width="6" x="17" y="622.6783"/></g><text fill="#053583" font-family="Casual" font-size="12" lengthAdjust="spacing" text-decoration="underline" textLength="430.92" x="29" y="627.6643">SafeEnumerateDirectories(path : string, pattern : string) : IEnumerable&lt;string&gt;</text><g data-visibility-modifier="PACKAGE_PRIVATE_METHOD"><polygon fill="#4177AF" points="20,633.9063,16,639.9063,24,639.9063" style="stroke:#1963A0;stroke-width:1;"/></g><text fill="#053583" font-family="Casual" font-size="12" lengthAdjust="spacing" text-decoration="underline" textLength="229.26" x="29" y="639.8923">IsCloudPath(candidatePath : string) : bool</text></g><g class="entity" data-qualified-name="GMN8" data-source-line="111" id="ent0009"><path d="M97.12,760.0383 L97.12,831.2805 A0,0 0 0 0 97.12,831.2805 L260.0346,831.2805 A0,0 0 0 0 260.0346,831.2805 L260.0346,770.0383 L250.0346,760.0383 L182.58,760.0383 L178.58,647.0083 L174.58,760.0383 L97.12,760.0383 A0,0 0 0 0 97.12,760.0383" fill="#FFF7D6" style="stroke:#D4B106;stroke-width:0.5;"/><path d="M250.0346,760.0383 L250.0346,770.0383 L260.0346,770.0383 L250.0346,760.0383" fill="#FFF7D6" style="stroke:#D4B106;stroke-width:0.5;"/><text fill="#000000" font-family="sans-serif" font-size="13" lengthAdjust="spacing" textLength="137.8013" x="103.12" y="777.6066">`Os` is a partial class</text><text fill="#000000" font-family="sans-serif" font-size="13" lengthAdjust="spacing" textLength="99.3345" x="103.12" y="792.9172">composed from</text><text fill="#000000" font-family="sans-serif" font-size="13" lengthAdjust="spacing" textLength="85.8267" x="103.12" y="808.2277">RaiFile.cs and</text><text fill="#000000" font-family="sans-serif" font-size="13" lengthAdjust="spacing" textLength="127.0356" x="103.12" y="823.5383">Os.CloudStorage.cs.</text></g><!--link Os to OsType--><g class="link" data-entity-1="ent0005" data-entity-2="ent0002" data-link-type="dependency" data-source-line="107" id="lnk6"><path codeLine="107" d="M328.58,647.0083 C328.58,691.6983 328.58,725.8183 328.58,753.0883" fill="none" id="Os-to-OsType" style="stroke:#181818;stroke-width:1;stroke-dasharray:7,7;"/><polygon fill="#181818" points="328.58,759.0883,332.58,750.0883,328.58,754.0883,324.58,750.0883,328.58,759.0883" style="stroke:#181818;stroke-width:1;"/><text fill="#000000" font-family="sans-serif" font-size="13" lengthAdjust="spacing" textLength="28.5645" x="299.58" y="699.6166">uses</text></g><!--link Os to CloudStorageType--><g class="link" data-entity-1="ent0005" data-entity-2="ent0003" data-link-type="dependency" data-source-line="108" id="lnk7"><path codeLine="108" d="M458.58,647.0083 C458.58,685.4483 458.58,714.5183 458.58,740.9183" fill="none" id="Os-to-CloudStorageType" style="stroke:#181818;stroke-width:1;stroke-dasharray:7,7;"/><polygon fill="#181818" points="458.58,746.9183,462.58,737.9183,458.58,741.9183,454.58,737.9183,458.58,746.9183" style="stroke:#181818;stroke-width:1;"/><text fill="#000000" font-family="sans-serif" font-size="13" lengthAdjust="spacing" textLength="28.5645" x="429.58" y="693.5366">uses</text></g><?plantuml-src hLTjJzj84FwCVyKAlgGge8ING15m2abe8m69ajprfDD9NTlZPCLwrzfTX-Og-jjl_9Pix2H0onViCCyyCpjlEpRCS21zVSTS_4lQd6fDEenE50qTHpyo4L5y9Ixr7YTAni9lIouLUPeo0vPSJwaldvYOa81oRKiu4s3c4H2fp5HQWjpAhHJcWOP0TjjKnvJlheUCs7z0ZfkMCFLrc_O2aEeUdPH5BMCKSsC3FK-A5DEeRyGi36LsjkAo4EtLJuzFpu-t8hy2cqmD4LA5Bt1c_XsLCVU0GVLVZC8IbbiyhTVV7CfLVymS2sUzupTI-Q2AA0HdpIPK8ALwslEym0qQwtpA0Or6u_pep09qHHokM79FJe_hdyg8ig40WcElp6FPEVEE_9KuFqW3LPOWEFERPPJjZN_YDkfDxA6fV28UKnu7np5oWfa0HNuuEu1siUV6IMzSNf9QTtylEFq4TVS3kRvE03j_FlJ-niTN9h2tjBFpd2krkOpzaP6AJc2BUaV9o9NVyQqleAFO3F3rivGJllZLIwbIPYzj_Tqxc83mTmdL97iTqJ32J2U47tzeGmtpdadspAggze5Sa9baIBDpK48Cq0LGPeu8ZSKZ9eYvkag0948NADOI0-xRueyaYbtEl8fW3rKmo9u1loBxIPWme0Jb5T71WMskwd9Xhogn35Q5IuiLsRFpx3XPE76a9hbfx-yrJjnpsYnoiupJL8RGOShoU2bBn-P5NYD_h4WWZ3Pf-RtXg3le3blZ_d0je0C1ZRb9KzzFAXPHvPBwvrzReojcVr5rCyTqpbYcq66UOL9GDRyiw-xdDgzj2Yy13QKqkaszAVm20zCTfZqvWqJINj0XaoibTzAwMbPePtqKbe3kgDqQTDjVMkl5dTQuUziVthV6QyLZEpMsu4ibdqlPdVGeJqP976s2Z2k9NShiA2L7jvDxO0C7L6deOBMFMGWr7ryCllJ4cZCbLLiW-q6WmTX4e3qQmI0PSBLipDbwLGyp_0sduh4cagjaEnptXLxUHBKWvlmLAWzuuGoecQ8xPle2jfjwKzCBuJu9fPzOo2Jt-6EpbH7WvA8OROjWFVepc79gT4r1e41Fy-eaLzbUb13qXa3zlk3prpN0Yfq1qe9Iu9SDrg92ihcZN-qzaYtwlEhPvfDLoOUWL-dJvhTcPTMFeiddGuXmPQozR2vfV6kwvVhLb7puXQ7JYY8-n_77b1GX2DD7PeMXmGJdm-SrZClpbfXxWhMb2DWanb93bjzcBQAOiRQfy5dI_zdXUycgWqNjShZSTDPYnEFJVOTJfZJv8l8UXykfUYAGjup3smwOEbFiGkzpD6kTUX_2R2FxRQwnchVyz89y4zK-sThwNX7kbOcONR_Mjl0zGbmwfTShL5UIX_Gx0Zzn4grRYJjqYFSDqzWHCyhZbzHxEgyBtCKecgEfSL6GfhviTNb40yXhnoJNDovzKZ6igfLh1gD3JN9VhN2jBRgVbczf75V3iTuXN1jnOJmyl2u-2ov8h44N_woi_RdO4RYb8eCnCYGoG6LdvrjVVyEDYL1qMHb6ESaMKjppCRHIWqy29KDdPqXPqaY77cA5Z_A-FhGDeU3GmSy0aXXn_WS0?></g></svg>