<?plantuml 1.2026.2?><svg xmlns="http://www.w3.org/2000/svg" xmlns:xlink="http://www.w3.org/1999/xlink" contentStyleType="text/css" data-diagram-type="CLASS" height="860px" preserveAspectRatio="none" style="width:1635px;height:860px;background:#FFFFFF;" version="1.1" viewBox="0 0 1635 860" width="1635px" zoomAndPan="magnify"><title>OsLib Os Class Diagram</title><defs/><g><g class="title" data-source-line="3"><text fill="#000000" font-family="sans-serif" font-size="14" font-weight="bold" lengthAdjust="spacing" textLength="174.5762" x="723.6617" y="23.5352">OsLib Os Class Diagram</text></g><!--cluster OsLib--><g class="cluster" data-qualified-name="OsLib" data-source-line="34" id="ent0002"><path d="M185.77,43.4883 L228.1821,43.4883 A3.75,3.75 0 0 1 230.6821,45.9883 L237.6821,65.9766 L1411.77,65.9766 A2.5,2.5 0 0 1 1414.27,68.4766 L1414.27,841.1483 A2.5,2.5 0 0 1 1411.77,843.6483 L185.77,843.6483 A2.5,2.5 0 0 1 183.27,841.1483 L183.27,45.9883 A2.5,2.5 0 0 1 185.77,43.4883" fill="none" style="stroke:#000000;stroke-width:1.5;"/><line style="stroke:#000000;stroke-width:1.5;" x1="183.27" x2="237.6821" y1="65.9766" y2="65.9766"/><text fill="#000000" font-family="sans-serif" font-size="14" font-weight="bold" lengthAdjust="spacing" textLength="41.4121" x="187.27" y="59.0234">OsLib</text></g><!--class EscapeMode--><g class="entity" data-qualified-name="OsLib.EscapeMode" data-source-line="35" id="ent0003"><rect fill="#CCFBF1" height="96.912" rx="2.5" ry="2.5" style="stroke:#0F766E;stroke-width:0.5;" width="122.792" x="198.87" y="730.7383"/><ellipse cx="213.87" cy="746.7383" fill="#F59E0B" rx="11" ry="11" style="stroke:#181818;stroke-width:1;"/><path d="M217.4843,753.2383 L209.7645,753.2383 L209.7645,740.8452 L217.4843,740.8452 L217.4843,743.0034 L212.2133,743.0034 L212.2133,745.6763 L216.9862,745.6763 L216.9862,747.8345 L212.2133,747.8345 L212.2133,751.0801 L217.4843,751.0801 Z " fill="#000000"/><text fill="#111827" font-family="Casual" font-size="18" lengthAdjust="spacing" textLength="90.792" x="227.87" y="751.9673">EscapeMode</text><line style="stroke:#0F766E;stroke-width:0.5;" x1="199.87" x2="320.662" y1="762.7383" y2="762.7383"/><text fill="#053583" font-family="Casual" font-size="12" lengthAdjust="spacing" textLength="28.488" x="204.87" y="776.3383">noEsc</text><text fill="#053583" font-family="Casual" font-size="12" lengthAdjust="spacing" textLength="45.552" x="204.87" y="788.5663">blankEsc</text><text fill="#053583" font-family="Casual" font-size="12" lengthAdjust="spacing" textLength="49.116" x="204.87" y="800.7943">paramEsc</text><text fill="#053583" font-family="Casual" font-size="12" lengthAdjust="spacing" textLength="63.156" x="204.87" y="813.0223">backslashed</text><line style="stroke:#0F766E;stroke-width:0.5;" x1="199.87" x2="320.662" y1="819.6503" y2="819.6503"/></g><!--class OsType--><g class="entity" data-qualified-name="OsLib.OsType" data-source-line="42" id="ent0004"><rect fill="#CCFBF1" height="84.684" rx="2.5" ry="2.5" style="stroke:#0F766E;stroke-width:0.5;" width="85.1" x="356.72" y="736.8483"/><ellipse cx="371.72" cy="752.8483" fill="#F59E0B" rx="11" ry="11" style="stroke:#181818;stroke-width:1;"/><path d="M375.3343,759.3483 L367.6145,759.3483 L367.6145,746.9552 L375.3343,746.9552 L375.3343,749.1134 L370.0633,749.1134 L370.0633,751.7863 L374.8362,751.7863 L374.8362,753.9445 L370.0633,753.9445 L370.0633,757.1901 L375.3343,757.1901 Z " fill="#000000"/><text fill="#111827" font-family="Casual" font-size="18" lengthAdjust="spacing" textLength="53.1" x="385.72" y="758.0773">OsType</text><line style="stroke:#0F766E;stroke-width:0.5;" x1="357.72" x2="440.82" y1="768.8483" y2="768.8483"/><text fill="#053583" font-family="Casual" font-size="12" lengthAdjust="spacing" textLength="44.052" x="362.72" y="782.4483">Windows</text><text fill="#053583" font-family="Casual" font-size="12" lengthAdjust="spacing" textLength="33.372" x="362.72" y="794.6763">MacOS</text><text fill="#053583" font-family="Casual" font-size="12" lengthAdjust="spacing" textLength="35.448" x="362.72" y="806.9043">Ubuntu</text><line style="stroke:#0F766E;stroke-width:0.5;" x1="357.72" x2="440.82" y1="813.5323" y2="813.5323"/></g><!--class Cloud--><g class="entity" data-qualified-name="OsLib.Cloud" data-source-line="48" id="ent0005"><rect fill="#CCFBF1" height="84.684" rx="2.5" ry="2.5" style="stroke:#0F766E;stroke-width:0.5;" width="73.328" x="476.61" y="736.8483"/><ellipse cx="491.61" cy="752.8483" fill="#F59E0B" rx="11" ry="11" style="stroke:#181818;stroke-width:1;"/><path d="M495.2243,759.3483 L487.5045,759.3483 L487.5045,746.9552 L495.2243,746.9552 L495.2243,749.1134 L489.9533,749.1134 L489.9533,751.7863 L494.7262,751.7863 L494.7262,753.9445 L489.9533,753.9445 L489.9533,757.1901 L495.2243,757.1901 Z " fill="#000000"/><text fill="#111827" font-family="Casual" font-size="18" lengthAdjust="spacing" textLength="41.328" x="505.61" y="758.0773">Cloud</text><line style="stroke:#0F766E;stroke-width:0.5;" x1="477.61" x2="548.938" y1="768.8483" y2="768.8483"/><text fill="#053583" font-family="Casual" font-size="12" lengthAdjust="spacing" textLength="41.988" x="482.61" y="782.4483">Dropbox</text><text fill="#053583" font-family="Casual" font-size="12" lengthAdjust="spacing" textLength="44.772" x="482.61" y="794.6763">OneDrive</text><text fill="#053583" font-family="Casual" font-size="12" lengthAdjust="spacing" textLength="60.324" x="482.61" y="806.9043">GoogleDrive</text><line style="stroke:#0F766E;stroke-width:0.5;" x1="477.61" x2="548.938" y1="813.5323" y2="813.5323"/></g><!--class IStartupDiagnosticSink--><g class="entity" data-qualified-name="OsLib.IStartupDiagnosticSink" data-source-line="54" id="ent0006"><rect fill="#CCFBF1" height="60.228" rx="2.5" ry="2.5" style="stroke:#0F766E;stroke-width:0.5;" width="216.98" x="584.78" y="749.0783"/><ellipse cx="602.4017" cy="765.0783" fill="#B4A7E5" rx="11" ry="11" style="stroke:#181818;stroke-width:1;"/><path d="M598.8294,761.3434 L598.8294,759.1852 L606.2088,759.1852 L606.2088,761.3434 L603.7435,761.3434 L603.7435,769.4201 L606.2088,769.4201 L606.2088,771.5783 L598.8294,771.5783 L598.8294,769.4201 L601.2948,769.4201 L601.2948,761.3434 Z " fill="#000000"/><text fill="#111827" font-family="Casual" font-size="18" font-style="italic" lengthAdjust="spacing" textLength="179.154" x="616.9843" y="770.3073">IStartupDiagnosticSink</text><line style="stroke:#0F766E;stroke-width:0.5;" x1="585.78" x2="800.76" y1="781.0783" y2="781.0783"/><line style="stroke:#0F766E;stroke-width:0.5;" x1="585.78" x2="800.76" y1="789.0783" y2="789.0783"/><g data-visibility-modifier="PUBLIC_METHOD"><ellipse cx="595.78" cy="800.6923" fill="#84BE84" rx="3" ry="3" style="stroke:#038048;stroke-width:1;"/></g><text fill="#053583" font-family="Casual" font-size="12" lengthAdjust="spacing" textLength="190.98" x="604.78" y="802.6783">WriteError(message : string) : void</text></g><!--class RaiPath--><g class="entity" data-qualified-name="OsLib.RaiPath" data-source-line="58" id="ent0007"><rect fill="#CCFBF1" height="72.456" rx="2.5" ry="2.5" style="stroke:#0F766E;stroke-width:0.5;" width="160.04" x="837.25" y="742.9683"/><ellipse cx="883.068" cy="758.9683" fill="#ADD1B2" rx="11" ry="11" style="stroke:#181818;stroke-width:1;"/><path d="M885.5412,765.1113 Q884.9601,765.4102 884.3209,765.5596 Q883.6818,765.709 882.9762,765.709 Q880.4694,765.709 879.1496,764.0571 Q877.8297,762.4053 877.8297,759.2842 Q877.8297,756.1548 879.1496,754.5029 Q880.4694,752.8511 882.9762,752.8511 Q883.6818,752.8511 884.3292,753.0005 Q884.9767,753.1499 885.5412,753.4487 L885.5412,756.1714 Q884.9103,755.5904 884.3168,755.3206 Q883.7233,755.0508 883.0924,755.0508 Q881.7477,755.0508 881.0629,756.1175 Q880.3781,757.1841 880.3781,759.2842 Q880.3781,761.376 881.0629,762.4426 Q881.7477,763.5093 883.0924,763.5093 Q883.7233,763.5093 884.3168,763.2395 Q884.9103,762.9697 885.5412,762.3887 Z " fill="#000000"/><text fill="#111827" font-family="Casual" font-size="18" lengthAdjust="spacing" textLength="59.904" x="903.568" y="764.1973">RaiPath</text><line style="stroke:#0F766E;stroke-width:0.5;" x1="838.25" x2="996.29" y1="774.9683" y2="774.9683"/><line style="stroke:#0F766E;stroke-width:0.5;" x1="838.25" x2="996.29" y1="782.9683" y2="782.9683"/><g data-visibility-modifier="PUBLIC_METHOD"><ellipse cx="848.25" cy="794.5823" fill="#84BE84" rx="3" ry="3" style="stroke:#038048;stroke-width:1;"/></g><text fill="#053583" font-family="Casual" font-size="12" lengthAdjust="spacing" textLength="134.04" x="857.25" y="796.5683">RaiPath(s : string = ".")</text><g data-visibility-modifier="PUBLIC_METHOD"><ellipse cx="848.25" cy="806.8103" fill="#84BE84" rx="3" ry="3" style="stroke:#038048;stroke-width:1;"/></g><text fill="#053583" font-family="Casual" font-size="12" lengthAdjust="spacing" textLength="104.556" x="857.25" y="808.7963">RaiPath(f : RaiFile)</text></g><!--class RaiFile--><g class="entity" data-qualified-name="OsLib.RaiFile" data-source-line="63" id="ent0008"><rect fill="#CCFBF1" height="72.456" rx="2.5" ry="2.5" style="stroke:#0F766E;stroke-width:0.5;" width="365.84" x="1032.35" y="742.9683"/><ellipse cx="1185.163" cy="758.9683" fill="#ADD1B2" rx="11" ry="11" style="stroke:#181818;stroke-width:1;"/><path d="M1187.6361,765.1113 Q1187.0551,765.4102 1186.4159,765.5596 Q1185.7768,765.709 1185.0712,765.709 Q1182.5644,765.709 1181.2445,764.0571 Q1179.9247,762.4053 1179.9247,759.2842 Q1179.9247,756.1548 1181.2445,754.5029 Q1182.5644,752.8511 1185.0712,752.8511 Q1185.7768,752.8511 1186.4242,753.0005 Q1187.0717,753.1499 1187.6361,753.4487 L1187.6361,756.1714 Q1187.0053,755.5904 1186.4118,755.3206 Q1185.8183,755.0508 1185.1874,755.0508 Q1183.8427,755.0508 1183.1579,756.1175 Q1182.4731,757.1841 1182.4731,759.2842 Q1182.4731,761.376 1183.1579,762.4426 Q1183.8427,763.5093 1185.1874,763.5093 Q1185.8183,763.5093 1186.4118,763.2395 Q1187.0053,762.9697 1187.6361,762.3887 Z " fill="#000000"/><text fill="#111827" font-family="Casual" font-size="18" lengthAdjust="spacing" textLength="51.714" x="1205.663" y="764.1973">RaiFile</text><line style="stroke:#0F766E;stroke-width:0.5;" x1="1033.35" x2="1397.19" y1="774.9683" y2="774.9683"/><line style="stroke:#0F766E;stroke-width:0.5;" x1="1033.35" x2="1397.19" y1="782.9683" y2="782.9683"/><g data-visibility-modifier="PUBLIC_METHOD"><ellipse cx="1043.35" cy="794.5823" fill="#84BE84" rx="3" ry="3" style="stroke:#038048;stroke-width:1;"/></g><text fill="#053583" font-family="Casual" font-size="12" lengthAdjust="spacing" textLength="134.328" x="1052.35" y="796.5683">RaiFile(filename : string)</text><g data-visibility-modifier="PUBLIC_METHOD"><ellipse cx="1043.35" cy="806.8103" fill="#84BE84" rx="3" ry="3" style="stroke:#038048;stroke-width:1;"/></g><text fill="#053583" font-family="Casual" font-size="12" lengthAdjust="spacing" textLength="339.84" x="1052.35" y="808.7963">RaiFile(p : RaiPath, name : string = null, ext : string = null)</text></g><!--class Os--><g class="entity" data-qualified-name="OsLib.Os" data-source-line="68" id="ent0009"><rect fill="#CCFBF1" height="551.804" rx="2.5" ry="2.5" style="stroke:#0F766E;stroke-width:0.5;" width="643.9639" x="371.29" y="78.4883"/><ellipse cx="663.0992" cy="95.7163" fill="#ADD1B2" rx="11" ry="11" style="stroke:#181818;stroke-width:1;"/><path d="M665.5723,101.8593 Q664.9912,102.1582 664.3521,102.3076 Q663.7129,102.457 663.0074,102.457 Q660.5005,102.457 659.1807,100.8051 Q657.8609,99.1533 657.8609,96.0322 Q657.8609,92.9028 659.1807,91.2509 Q660.5005,89.5991 663.0074,89.5991 Q663.7129,89.5991 664.3604,89.7485 Q665.0078,89.8979 665.5723,90.1968 L665.5723,92.9194 Q664.9414,92.3384 664.3479,92.0686 Q663.7544,91.7988 663.1236,91.7988 Q661.7788,91.7988 661.094,92.8655 Q660.4092,93.9321 660.4092,96.0322 Q660.4092,98.124 661.094,99.1906 Q661.7788,100.2573 663.1236,100.2573 Q663.7544,100.2573 664.3479,99.9875 Q664.9414,99.7177 665.5723,99.1367 Z " fill="#000000"/><text fill="#111827" font-family="Casual" font-size="24" lengthAdjust="spacing" textLength="23.208" x="683.5992" y="102.6883">Os</text><text fill="#111827" font-family="Casual" font-size="12" lengthAdjust="spacing" textLength="22.2656" x="713.1792" y="105.3163">&#9416;&#9413;</text><line style="stroke:#0F766E;stroke-width:0.5;" x1="372.29" x2="1014.2539" y1="112.9443" y2="112.9443"/><g data-visibility-modifier="PUBLIC_FIELD"><ellipse cx="382.29" cy="124.5583" fill="none" rx="3" ry="3" style="stroke:#038048;stroke-width:1;"/></g><text fill="#053583" font-family="Casual" font-size="12" lengthAdjust="spacing" text-decoration="underline" textLength="65.412" x="391.29" y="126.5443">DIR : string</text><g data-visibility-modifier="PUBLIC_FIELD"><ellipse cx="382.29" cy="136.7863" fill="none" rx="3" ry="3" style="stroke:#038048;stroke-width:1;"/></g><text fill="#053583" font-family="Casual" font-size="12" lengthAdjust="spacing" text-decoration="underline" textLength="122.412" x="391.29" y="138.7723">DIRSEPERATOR : string</text><g data-visibility-modifier="PUBLIC_FIELD"><ellipse cx="382.29" cy="149.0143" fill="none" rx="3" ry="3" style="stroke:#038048;stroke-width:1;"/></g><text fill="#053583" font-family="Casual" font-size="12" lengthAdjust="spacing" text-decoration="underline" textLength="110.256" x="391.29" y="151.0003">ESCAPECHAR : string</text><g data-visibility-modifier="PUBLIC_FIELD"><ellipse cx="382.29" cy="161.2423" fill="none" rx="3" ry="3" style="stroke:#038048;stroke-width:1;"/></g><text fill="#053583" font-family="Casual" font-size="12" lengthAdjust="spacing" text-decoration="underline" textLength="112.644" x="391.29" y="163.2283">DATEFORMAT : string</text><g data-visibility-modifier="PUBLIC_FIELD"><ellipse cx="382.29" cy="173.4703" fill="none" rx="3" ry="3" style="stroke:#038048;stroke-width:1;"/></g><text fill="#053583" font-family="Casual" font-size="12" lengthAdjust="spacing" text-decoration="underline" textLength="75.876" x="391.29" y="175.4563">Type : OsType</text><g data-visibility-modifier="PUBLIC_FIELD"><ellipse cx="382.29" cy="185.6983" fill="none" rx="3" ry="3" style="stroke:#038048;stroke-width:1;"/></g><text fill="#053583" font-family="Casual" font-size="12" lengthAdjust="spacing" text-decoration="underline" textLength="92.772" x="391.29" y="187.6843">IsWindows : bool</text><g data-visibility-modifier="PUBLIC_FIELD"><ellipse cx="382.29" cy="197.9263" fill="none" rx="3" ry="3" style="stroke:#038048;stroke-width:1;"/></g><text fill="#053583" font-family="Casual" font-size="12" lengthAdjust="spacing" text-decoration="underline" textLength="82.092" x="391.29" y="199.9123">IsMacOS : bool</text><g data-visibility-modifier="PUBLIC_FIELD"><ellipse cx="382.29" cy="210.1543" fill="none" rx="3" ry="3" style="stroke:#038048;stroke-width:1;"/></g><text fill="#053583" font-family="Casual" font-size="12" lengthAdjust="spacing" text-decoration="underline" textLength="91.092" x="391.29" y="212.1403">IsUnixLike : bool</text><g data-visibility-modifier="PUBLIC_FIELD"><ellipse cx="382.29" cy="222.3823" fill="none" rx="3" ry="3" style="stroke:#038048;stroke-width:1;"/></g><text fill="#053583" font-family="Casual" font-size="12" lengthAdjust="spacing" text-decoration="underline" textLength="96.528" x="391.29" y="224.3683">IsLinuxLike : bool</text><g data-visibility-modifier="PUBLIC_FIELD"><ellipse cx="382.29" cy="234.6103" fill="none" rx="3" ry="3" style="stroke:#038048;stroke-width:1;"/></g><text fill="#053583" font-family="Casual" font-size="12" lengthAdjust="spacing" text-decoration="underline" textLength="120.528" x="391.29" y="236.5963">UserHomeDir : RaiPath</text><g data-visibility-modifier="PUBLIC_FIELD"><ellipse cx="382.29" cy="246.8383" fill="none" rx="3" ry="3" style="stroke:#038048;stroke-width:1;"/></g><text fill="#053583" font-family="Casual" font-size="12" lengthAdjust="spacing" text-decoration="underline" textLength="113.424" x="391.29" y="248.8243">AppRootDir : RaiPath</text><g data-visibility-modifier="PUBLIC_FIELD"><ellipse cx="382.29" cy="259.0663" fill="none" rx="3" ry="3" style="stroke:#038048;stroke-width:1;"/></g><text fill="#053583" font-family="Casual" font-size="12" lengthAdjust="spacing" text-decoration="underline" textLength="98.22" x="391.29" y="261.0523">TempDir : RaiPath</text><g data-visibility-modifier="PUBLIC_FIELD"><ellipse cx="382.29" cy="271.2943" fill="none" rx="3" ry="3" style="stroke:#038048;stroke-width:1;"/></g><text fill="#053583" font-family="Casual" font-size="12" lengthAdjust="spacing" text-decoration="underline" textLength="135.36" x="391.29" y="273.2803">LocalBackupDir : RaiPath</text><g data-visibility-modifier="PUBLIC_FIELD"><ellipse cx="382.29" cy="283.5223" fill="none" rx="3" ry="3" style="stroke:#038048;stroke-width:1;"/></g><text fill="#053583" font-family="Casual" font-size="12" lengthAdjust="spacing" text-decoration="underline" textLength="162.336" x="391.29" y="285.5083">CloudStorageRootDir : RaiPath</text><g data-visibility-modifier="PUBLIC_FIELD"><ellipse cx="382.29" cy="295.7503" fill="none" rx="3" ry="3" style="stroke:#038048;stroke-width:1;"/></g><text fill="#053583" font-family="Casual" font-size="12" lengthAdjust="spacing" text-decoration="underline" textLength="131.88" x="391.29" y="297.7363">CloudProviders : string[]</text><g data-visibility-modifier="PUBLIC_FIELD"><ellipse cx="382.29" cy="307.9783" fill="none" rx="3" ry="3" style="stroke:#038048;stroke-width:1;"/></g><text fill="#053583" font-family="Casual" font-size="12" lengthAdjust="spacing" text-decoration="underline" textLength="90.864" x="391.29" y="309.9643">Config : dynamic</text><g data-visibility-modifier="PUBLIC_FIELD"><ellipse cx="382.29" cy="320.2063" fill="none" rx="3" ry="3" style="stroke:#038048;stroke-width:1;"/></g><text fill="#053583" font-family="Casual" font-size="12" lengthAdjust="spacing" text-decoration="underline" textLength="144.06" x="391.29" y="322.1923">ConfigFileFullName : string</text><g data-visibility-modifier="PUBLIC_FIELD"><ellipse cx="382.29" cy="332.4343" fill="none" rx="3" ry="3" style="stroke:#038048;stroke-width:1;"/></g><text fill="#053583" font-family="Casual" font-size="12" lengthAdjust="spacing" text-decoration="underline" textLength="289.38" x="391.29" y="334.4203">RemoteConfigs : IReadOnlyDictionary&lt;string, dynamic&gt;</text><line style="stroke:#0F766E;stroke-width:1;" x1="372.29" x2="1014.2539" y1="341.0483" y2="341.0483"/><g data-visibility-modifier="PUBLIC_METHOD"><ellipse cx="382.29" cy="352.6623" fill="#84BE84" rx="3" ry="3" style="stroke:#038048;stroke-width:1;"/></g><text fill="#053583" font-family="Casual" font-size="12" lengthAdjust="spacing" text-decoration="underline" textLength="617.9639" x="391.29" y="354.6483">ConfigureDiagnostics(loggerFactory : ILoggerFactory, startupDiagnosticSink : IStartupDiagnosticSink = null) : void</text><g data-visibility-modifier="PUBLIC_METHOD"><ellipse cx="382.29" cy="364.8903" fill="#84BE84" rx="3" ry="3" style="stroke:#038048;stroke-width:1;"/></g><text fill="#053583" font-family="Casual" font-size="12" lengthAdjust="spacing" text-decoration="underline" textLength="348.12" x="391.29" y="366.8763">ParseDateTime(datetimeInDATEFORMAT : string) : DateTimeOffset</text><g data-visibility-modifier="PUBLIC_METHOD"><ellipse cx="382.29" cy="377.1183" fill="#84BE84" rx="3" ry="3" style="stroke:#038048;stroke-width:1;"/></g><text fill="#053583" font-family="Casual" font-size="12" lengthAdjust="spacing" text-decoration="underline" textLength="255.636" x="391.29" y="379.1043">Escape(s : string, mode : EscapeMode) : string</text><g data-visibility-modifier="PUBLIC_METHOD"><ellipse cx="382.29" cy="389.3463" fill="#84BE84" rx="3" ry="3" style="stroke:#038048;stroke-width:1;"/></g><text fill="#053583" font-family="Casual" font-size="12" lengthAdjust="spacing" text-decoration="underline" textLength="176.604" x="391.29" y="391.3323">NormPath(path : string) : string</text><g data-visibility-modifier="PUBLIC_METHOD"><ellipse cx="382.29" cy="401.5743" fill="#84BE84" rx="3" ry="3" style="stroke:#038048;stroke-width:1;"/></g><text fill="#053583" font-family="Casual" font-size="12" lengthAdjust="spacing" text-decoration="underline" textLength="185.016" x="391.29" y="403.5603">NormSeperator(s : string) : string</text><g data-visibility-modifier="PUBLIC_METHOD"><ellipse cx="382.29" cy="413.8023" fill="#84BE84" rx="3" ry="3" style="stroke:#038048;stroke-width:1;"/></g><text fill="#053583" font-family="Casual" font-size="12" lengthAdjust="spacing" text-decoration="underline" textLength="205.296" x="391.29" y="415.7883">NewShortId(length : int = 4) : string</text><g data-visibility-modifier="PUBLIC_METHOD"><ellipse cx="382.29" cy="426.0303" fill="#84BE84" rx="3" ry="3" style="stroke:#038048;stroke-width:1;"/></g><text fill="#053583" font-family="Casual" font-size="12" lengthAdjust="spacing" text-decoration="underline" textLength="179.208" x="391.29" y="428.0163">IsCloudPath(path : string) : bool</text><g data-visibility-modifier="PUBLIC_METHOD"><ellipse cx="382.29" cy="438.2583" fill="#84BE84" rx="3" ry="3" style="stroke:#038048;stroke-width:1;"/></g><text fill="#053583" font-family="Casual" font-size="12" lengthAdjust="spacing" text-decoration="underline" textLength="188.784" x="391.29" y="440.2443">IsCloudPath(path : RaiPath) : bool</text><g data-visibility-modifier="PUBLIC_METHOD"><ellipse cx="382.29" cy="450.4863" fill="#84BE84" rx="3" ry="3" style="stroke:#038048;stroke-width:1;"/></g><text fill="#053583" font-family="Casual" font-size="12" lengthAdjust="spacing" text-decoration="underline" textLength="287.448" x="391.29" y="452.4723">LoadConfig(configFullName : string = null) : dynamic</text><g data-visibility-modifier="PUBLIC_METHOD"><ellipse cx="382.29" cy="462.7143" fill="#84BE84" rx="3" ry="3" style="stroke:#038048;stroke-width:1;"/></g><text fill="#053583" font-family="Casual" font-size="12" lengthAdjust="spacing" text-decoration="underline" textLength="202.26" x="391.29" y="464.7003">EscapeParam(param : string) : string</text><g data-visibility-modifier="PUBLIC_METHOD"><ellipse cx="382.29" cy="474.9423" fill="#84BE84" rx="3" ry="3" style="stroke:#038048;stroke-width:1;"/></g><text fill="#053583" font-family="Casual" font-size="12" lengthAdjust="spacing" text-decoration="underline" textLength="192.504" x="391.29" y="476.9283">EscapeBlank(name : string) : string</text><g data-visibility-modifier="PUBLIC_METHOD"><ellipse cx="382.29" cy="487.1703" fill="#84BE84" rx="3" ry="3" style="stroke:#038048;stroke-width:1;"/></g><text fill="#053583" font-family="Casual" font-size="12" lengthAdjust="spacing" text-decoration="underline" textLength="208.944" x="391.29" y="489.1563">WinInternal(fullname : string) : string</text><g data-visibility-modifier="PUBLIC_METHOD"><ellipse cx="382.29" cy="499.3983" fill="#84BE84" rx="3" ry="3" style="stroke:#038048;stroke-width:1;"/></g><text fill="#053583" font-family="Casual" font-size="12" lengthAdjust="spacing" text-decoration="underline" textLength="390.708" x="391.29" y="501.3843">GetCloudStorageRoot(provider : Cloud, refresh : bool = false) : RaiPath</text><g data-visibility-modifier="PUBLIC_METHOD"><ellipse cx="382.29" cy="511.6263" fill="#84BE84" rx="3" ry="3" style="stroke:#038048;stroke-width:1;"/></g><text fill="#053583" font-family="Casual" font-size="12" lengthAdjust="spacing" text-decoration="underline" textLength="300.324" x="391.29" y="513.6123">GetCloudStorageProviderForPath(path : RaiPath) : Cloud</text><g data-visibility-modifier="PUBLIC_METHOD"><ellipse cx="382.29" cy="523.8543" fill="#84BE84" rx="3" ry="3" style="stroke:#038048;stroke-width:1;"/></g><text fill="#053583" font-family="Casual" font-size="12" lengthAdjust="spacing" text-decoration="underline" textLength="304.08" x="391.29" y="525.8403">GetCloudDiscoveryReport(refresh : bool = false) : string</text><g data-visibility-modifier="PUBLIC_METHOD"><ellipse cx="382.29" cy="536.0823" fill="#84BE84" rx="3" ry="3" style="stroke:#038048;stroke-width:1;"/></g><text fill="#053583" font-family="Casual" font-size="12" lengthAdjust="spacing" text-decoration="underline" textLength="377.7" x="391.29" y="538.0683">GetCloudConfigurationDiagnosticReport(refresh : bool = false) : string</text><g data-visibility-modifier="PUBLIC_METHOD"><ellipse cx="382.29" cy="548.3103" fill="#84BE84" rx="3" ry="3" style="stroke:#038048;stroke-width:1;"/></g><text fill="#053583" font-family="Casual" font-size="12" lengthAdjust="spacing" text-decoration="underline" textLength="214.464" x="391.29" y="550.2963">GetCloudStorageSetupGuidance() : string</text><g data-visibility-modifier="PUBLIC_METHOD"><ellipse cx="382.29" cy="560.5383" fill="#84BE84" rx="3" ry="3" style="stroke:#038048;stroke-width:1;"/></g><text fill="#053583" font-family="Casual" font-size="12" lengthAdjust="spacing" text-decoration="underline" textLength="289.368" x="391.29" y="562.5243">GetObserverSshTarget(observerName : string) : string</text><g data-visibility-modifier="PUBLIC_METHOD"><ellipse cx="382.29" cy="572.7663" fill="#84BE84" rx="3" ry="3" style="stroke:#038048;stroke-width:1;"/></g><text fill="#053583" font-family="Casual" font-size="12" lengthAdjust="spacing" text-decoration="underline" textLength="376.008" x="391.29" y="574.7523">GetRemoteConfig(observer : string, refresh : bool = false) : dynamic</text><g data-visibility-modifier="PUBLIC_METHOD"><ellipse cx="382.29" cy="584.9943" fill="#84BE84" rx="3" ry="3" style="stroke:#038048;stroke-width:1;"/></g><text fill="#053583" font-family="Casual" font-size="12" lengthAdjust="spacing" text-decoration="underline" textLength="608.9881" x="391.29" y="586.9803">GetRemoteCloudRootFromConfig(observerName : string, provider : Cloud? = null, refresh : bool = false) : string</text><g data-visibility-modifier="PUBLIC_METHOD"><ellipse cx="382.29" cy="597.2223" fill="#84BE84" rx="3" ry="3" style="stroke:#038048;stroke-width:1;"/></g><text fill="#053583" font-family="Casual" font-size="12" lengthAdjust="spacing" text-decoration="underline" textLength="458.6521" x="391.29" y="599.2083">GetRemoteTempDirFromConfig(observerName : string, refresh : bool = false) : string</text><g data-visibility-modifier="PUBLIC_METHOD"><ellipse cx="382.29" cy="609.4503" fill="#84BE84" rx="3" ry="3" style="stroke:#038048;stroke-width:1;"/></g><text fill="#053583" font-family="Casual" font-size="12" lengthAdjust="spacing" text-decoration="underline" textLength="406.068" x="391.29" y="611.4363">TryGetRemoteConfig(observerName : string, remoteConfig : dynamic) : bool</text><g data-visibility-modifier="PUBLIC_METHOD"><ellipse cx="382.29" cy="621.6783" fill="#84BE84" rx="3" ry="3" style="stroke:#038048;stroke-width:1;"/></g><text fill="#053583" font-family="Casual" font-size="12" lengthAdjust="spacing" text-decoration="underline" textLength="326.448" x="391.29" y="623.6643">InvalidateRemoteConfig(observerName : string = null) : void</text></g><!--class LegendSample--><g class="entity" data-qualified-name="LegendSample" data-source-line="121" id="ent0016"><rect fill="#CCFBF1" height="235.192" rx="2.5" ry="2.5" style="stroke:#0F766E;stroke-width:0.5;" width="158.54" x="9" y="236.7983"/><ellipse cx="52.3254" cy="252.7983" fill="#ADD1B2" rx="11" ry="11" style="stroke:#181818;stroke-width:1;"/><path d="M54.7985,258.9413 Q54.2175,259.2402 53.5783,259.3896 Q52.9392,259.539 52.2336,259.539 Q49.7268,259.539 48.4069,257.8871 Q47.0871,256.2353 47.0871,253.1142 Q47.0871,249.9848 48.4069,248.3329 Q49.7268,246.6811 52.2336,246.6811 Q52.9392,246.6811 53.5866,246.8305 Q54.2341,246.9799 54.7985,247.2787 L54.7985,250.0014 Q54.1677,249.4204 53.5742,249.1506 Q52.9807,248.8808 52.3498,248.8808 Q51.0051,248.8808 50.3203,249.9475 Q49.6355,251.0141 49.6355,253.1142 Q49.6355,255.206 50.3203,256.2726 Q51.0051,257.3393 52.3498,257.3393 Q52.9807,257.3393 53.5742,257.0695 Q54.1677,256.7997 54.7985,256.2187 Z " fill="#000000"/><text fill="#111827" font-family="Casual" font-size="12" lengthAdjust="spacing" textLength="35.04" x="72.6199" y="256.2843">Legend</text><text fill="#111827" font-family="Casual" font-size="10" lengthAdjust="spacing" textLength="28.5547" x="107.6599" y="256.7223">&#9416;&#9398;&#9413;</text><line style="stroke:#0F766E;stroke-width:0.5;" x1="10" x2="166.54" y1="268.7983" y2="268.7983"/><g data-visibility-modifier="PUBLIC_METHOD"><ellipse cx="20" cy="280.4123" fill="#84BE84" rx="3" ry="3" style="stroke:#038048;stroke-width:1;"/></g><text fill="#053583" font-family="Casual" font-size="12" lengthAdjust="spacing" text-decoration="underline" textLength="113.232" x="29" y="282.3983">staticMethod() : void</text><g data-visibility-modifier="PRIVATE_FIELD"><rect fill="none" height="6" style="stroke:#C82930;stroke-width:1;" width="6" x="17" y="289.6403"/></g><text fill="#053583" font-family="Casual" font-size="12" lengthAdjust="spacing" text-decoration="underline" textLength="121.092" x="29" y="294.6263">staticProperty : string</text><line style="stroke:#0F766E;stroke-width:1;" x1="10" x2="166.54" y1="301.2543" y2="301.2543"/><line style="stroke:#0F766E;stroke-width:1;" x1="10" x2="166.54" y1="303.2543" y2="303.2543"/><g data-visibility-modifier="PACKAGE_PRIVATE_FIELD"><polygon fill="none" points="20,308.8683,16,314.8683,24,314.8683" style="stroke:#1963A0;stroke-width:1;"/></g><text fill="#053583" font-family="Casual" font-size="12" font-style="italic" lengthAdjust="spacing" textLength="132.312" x="29" y="314.8543">Note on class markers :</text><text fill="#053583" font-family="Casual" font-size="10" lengthAdjust="spacing" textLength="10" x="29" y="327.5203">&#9416;</text><text fill="#053583" font-family="Casual" font-size="12" lengthAdjust="spacing" textLength="24.756" x="39" y="327.0823">tatic</text><text fill="#053583" font-family="Casual" font-size="10" lengthAdjust="spacing" textLength="10" x="29" y="339.7483">&#9398;</text><text fill="#053583" font-family="Casual" font-size="12" lengthAdjust="spacing" textLength="38.064" x="39" y="339.3103">bstract</text><text fill="#053583" font-family="Casual" font-size="12" lengthAdjust="spacing" textLength="39.8816" x="29" y="351.5383">&#9413;artial</text><line style="stroke:#0F766E;stroke-width:1;" x1="10" x2="166.54" y1="358.1663" y2="358.1663"/><g data-visibility-modifier="PRIVATE_FIELD"><rect fill="none" height="6" style="stroke:#C82930;stroke-width:1;" width="6" x="17" y="366.7803"/></g><text fill="#053583" font-family="Casual" font-size="12" lengthAdjust="spacing" textLength="108.132" x="29" y="371.7663">privateField : string</text><g data-visibility-modifier="PUBLIC_FIELD"><ellipse cx="20" cy="382.0083" fill="none" rx="3" ry="3" style="stroke:#038048;stroke-width:1;"/></g><text fill="#053583" font-family="Casual" font-size="12" lengthAdjust="spacing" textLength="102.516" x="29" y="383.9943">publicField : string</text><g data-visibility-modifier="PROTECTED_FIELD"><polygon fill="none" points="20,389.2363,24,393.2363,20,397.2363,16,393.2363" style="stroke:#B38D22;stroke-width:1;"/></g><text fill="#053583" font-family="Casual" font-size="12" lengthAdjust="spacing" textLength="120.324" x="29" y="396.2223">protectedField : string</text><g data-visibility-modifier="PACKAGE_PRIVATE_FIELD"><polygon fill="none" points="20,402.4643,16,408.4643,24,408.4643" style="stroke:#1963A0;stroke-width:1;"/></g><text fill="#053583" font-family="Casual" font-size="12" lengthAdjust="spacing" textLength="112.068" x="29" y="408.4503">internalField : string</text><line style="stroke:#0F766E;stroke-width:1;" x1="10" x2="166.54" y1="415.0783" y2="415.0783"/><g data-visibility-modifier="PRIVATE_METHOD"><rect fill="#F24D5C" height="6" style="stroke:#C82930;stroke-width:1;" width="6" x="17" y="423.6923"/></g><text fill="#053583" font-family="Casual" font-size="12" lengthAdjust="spacing" textLength="120.348" x="29" y="428.6783">privateMethod() : void</text><g data-visibility-modifier="PUBLIC_METHOD"><ellipse cx="20" cy="438.9203" fill="#84BE84" rx="3" ry="3" style="stroke:#038048;stroke-width:1;"/></g><text fill="#053583" font-family="Casual" font-size="12" lengthAdjust="spacing" textLength="114.732" x="29" y="440.9063">publicMethod() : void</text><g data-visibility-modifier="PROTECTED_METHOD"><polygon fill="#FFFF44" points="20,446.1483,24,450.1483,20,454.1483,16,450.1483" style="stroke:#B38D22;stroke-width:1;"/></g><text fill="#053583" font-family="Casual" font-size="12" lengthAdjust="spacing" textLength="132.54" x="29" y="453.1343">protectedMethod() : void</text><g data-visibility-modifier="PACKAGE_PRIVATE_METHOD"><polygon fill="#4177AF" points="20,459.3763,16,465.3763,24,465.3763" style="stroke:#1963A0;stroke-width:1;"/></g><text fill="#053583" font-family="Casual" font-size="12" lengthAdjust="spacing" textLength="124.284" x="29" y="465.3623">internalMethod() : void</text></g><g class="entity" data-qualified-name="GMN17" data-source-line="142" id="ent0018"><path d="M1433.65,705.2983 L1433.65,853.0932 L1628.8995,853.0932 L1628.8995,715.2983 L1618.8995,705.2983 L1433.65,705.2983" fill="#FFF7D6" style="stroke:#D4B106;stroke-width:0.5;"/><path d="M1618.8995,705.2983 L1618.8995,715.2983 L1628.8995,715.2983 L1618.8995,705.2983" fill="#FFF7D6" style="stroke:#D4B106;stroke-width:1;"/><text fill="#000000" font-family="sans-serif" font-size="13" lengthAdjust="spacing" textLength="124.9282" x="1439.65" y="722.8666">Os is a static partial</text><text fill="#000000" font-family="sans-serif" font-size="13" lengthAdjust="spacing" textLength="138.4106" x="1439.65" y="738.1772">class composed from:</text><text fill="#000000" font-family="sans-serif" font-size="13" lengthAdjust="spacing" textLength="45.7603" x="1439.65" y="753.4877">- Os.cs</text><text fill="#000000" font-family="sans-serif" font-size="13" lengthAdjust="spacing" textLength="134.5576" x="1439.65" y="768.7983">- Os.CloudStorage.cs</text><text fill="#000000" font-family="sans-serif" font-size="13" lengthAdjust="spacing" textLength="123.2397" x="1439.65" y="784.1088">- Os.Diagnostics.cs</text><text fill="#000000" font-family="sans-serif" font-size="13" lengthAdjust="spacing" textLength="149.2588" x="1439.65" y="799.4194">Current config model is</text><text fill="#000000" font-family="sans-serif" font-size="13" lengthAdjust="spacing" textLength="174.2495" x="1439.65" y="814.7299">dynamic (`osconfig.json5`)</text><text fill="#000000" font-family="sans-serif" font-size="13" lengthAdjust="spacing" textLength="147.1768" x="1439.65" y="830.0405">rather than a dedicated</text><text fill="#000000" font-family="sans-serif" font-size="13" lengthAdjust="spacing" textLength="157.2759" x="1439.65" y="845.351">config-file wrapper type.</text></g><!--link Os to OsType--><g class="link" data-entity-1="ent0009" data-entity-2="ent0004" data-link-type="dependency" data-source-line="114" id="lnk10"><path codeLine="114" d="M501.89,630.6183 C473.2,671.8683 450.4246,704.6216 431.6846,731.5816" fill="none" id="Os-to-OsType" style="stroke:#9B2C2C;stroke-width:1;stroke-dasharray:7,7;"/><polygon fill="#9B2C2C" points="428.26,736.5083,436.6813,731.4013,431.1138,732.4027,430.1124,726.8352,428.26,736.5083" style="stroke:#9B2C2C;stroke-width:1;"/><text fill="#374151" font-family="'Casual'" font-size="13" lengthAdjust="spacing" textLength="23.53" x="479.12" y="671.6983">uses</text></g><!--link Os to EscapeMode--><g class="link" data-entity-1="ent0009" data-entity-2="ent0003" data-link-type="dependency" data-source-line="115" id="lnk11"><path codeLine="115" d="M411.41,630.6183 C372.22,668.8783 340.4831,699.8767 313.4331,726.2867" fill="none" id="Os-to-EscapeMode" style="stroke:#9B2C2C;stroke-width:1;stroke-dasharray:7,7;"/><polygon fill="#9B2C2C" points="309.14,730.4783,318.3741,727.053,312.7176,726.9853,312.7853,721.3289,309.14,730.4783" style="stroke:#9B2C2C;stroke-width:1;"/><text fill="#374151" font-family="'Casual'" font-size="13" lengthAdjust="spacing" textLength="23.53" x="377.4" y="671.6983">uses</text></g><!--link Os to Cloud--><g class="link" data-entity-1="ent0009" data-entity-2="ent0005" data-link-type="dependency" data-source-line="116" id="lnk12"><path codeLine="116" d="M556.83,630.6883 C552.8,640.6283 548.93,650.5183 545.27,660.2983 C536.01,685.0183 529.6076,707.7506 524.0176,730.5706" fill="none" id="Os-to-Cloud" style="stroke:#9B2C2C;stroke-width:1;stroke-dasharray:7,7;"/><polygon fill="#9B2C2C" points="522.59,736.3983,528.6165,728.6084,523.7796,731.5419,520.8462,726.705,522.59,736.3983" style="stroke:#9B2C2C;stroke-width:1;"/><text fill="#374151" font-family="'Casual'" font-size="13" lengthAdjust="spacing" textLength="138.866" x="546.27" y="671.6983">cloud provider selection</text></g><!--link Os to RaiPath--><g class="link" data-entity-1="ent0009" data-entity-2="ent0007" data-link-type="dependency" data-source-line="117" id="lnk13"><path codeLine="117" d="M839.08,630.6183 C862.61,675.0183 881.132,709.9759 895.542,737.1859" fill="none" id="Os-to-RaiPath" style="stroke:#9B2C2C;stroke-width:1;stroke-dasharray:7,7;"/><polygon fill="#9B2C2C" points="898.35,742.4883,897.6728,732.6627,896.01,738.0697,890.603,736.4068,898.35,742.4883" style="stroke:#9B2C2C;stroke-width:1;"/><text fill="#374151" font-family="'Casual'" font-size="13" lengthAdjust="spacing" textLength="85.514" x="858.2" y="671.6983">path contracts</text></g><!--link Os to RaiFile--><g class="link" data-entity-1="ent0009" data-entity-2="ent0008" data-link-type="dependency" data-source-line="118" id="lnk14"><path codeLine="118" d="M1015.69,616.5383 C1077.4,666.5283 1129.5877,708.7917 1166.6977,738.8517" fill="none" id="Os-to-RaiFile" style="stroke:#9B2C2C;stroke-width:1;stroke-dasharray:7,7;"/><polygon fill="#9B2C2C" points="1171.36,742.6283,1166.8842,733.8552,1167.4747,739.4811,1161.8488,740.0716,1171.36,742.6283" style="stroke:#9B2C2C;stroke-width:1;"/><text fill="#374151" font-family="'Casual'" font-size="13" lengthAdjust="spacing" textLength="122.707" x="1076.27" y="671.6983">config file resolution</text></g><!--link Os to IStartupDiagnosticSink--><g class="link" data-entity-1="ent0009" data-entity-2="ent0006" data-link-type="dependency" data-source-line="119" id="lnk15"><path codeLine="119" d="M693.27,630.6183 C693.27,678.4883 693.27,715.5383 693.27,742.6183" fill="none" id="Os-to-IStartupDiagnosticSink" style="stroke:#9B2C2C;stroke-width:1;stroke-dasharray:7,7;"/><polygon fill="#9B2C2C" points="693.27,748.6183,697.27,739.6183,693.27,743.6183,689.27,739.6183,693.27,748.6183" style="stroke:#9B2C2C;stroke-width:1;"/><text fill="#374151" font-family="'Casual'" font-size="13" lengthAdjust="spacing" textLength="91.559" x="694.27" y="671.6983">diagnostics sink</text></g><!--link Os to GMN17--><g class="link" data-entity-1="ent0009" data-entity-2="ent0018" data-link-type="association" data-source-line="142" id="lnk19"><path d="M1015.51,502.8583 C1141.42,562.7883 1286.07,634.5083 1414.27,705.2983 C1420.56,708.7683 1426.97,712.4283 1433.41,716.1783" fill="none" id="Os-GMN17" style="stroke:#9B2C2C;stroke-width:1;stroke-dasharray:7,7;"/></g><?plantuml-src fLVDRjiu43v7Jq4uXrLGnutZ_BH6weKRsws190vi5pqi5YWbKJOt4YcGL59lqTuMs7FxBdsWFiaE9TgYPIbfiHURvdoSRpYSF_-6fYGYM98kwhJEMnt7KLH514ta5VNW4rr6M4eqe7WXSEmuyewo1CCIUTY_MmYUik2IHroWXoLLn9BB9Gxu0sKB5E98sXAZRCIPki4nGOrBB5CSDQeXC_etGPqpIvYPzDZf3Q3cR5yfGRrKaR7FMOPf7zLYDaGvpwEut1FxHwUTqnUTHv7l2Lqi5M9Sn4_epEqxBcEkYLhou4al5B0dzHYJJeyUzyLChI0-gWr_pKL0nDeBuVdP6Tc1bC9ct_T3BsnNlPu1jDlj5yVd5c38qdYBoJivxHozB2FAH249EtvPZyLpxXy7M_wvuOhiQWd3y-2iZBAj2Kwyzf6Dw0l17upmfNVi7_jbeML5v_oaVTgk0co_ioEN_07vLFWHSPm4pCGB46Tvsq2Vd3q2jqED2mdFtcs_w0sbZnDopGDoyLplzHe8IrJieeiBv0wR--7fItBa7Q1UJolPOnmWyEr5cDtboymiimkq4fvhIG9dxxEpGpgHyrMoHPZlr92zfmnAXeJLDVOdC_X-vwLCfPMwBoEU1hRgRAD6yq3mnECVOJLXP23eFO7b6yuNqVgNPg1C4H5YdrWquvd2GgM9haYCIqNz6MLtDcyr8gDzzbv0KHp22met9bBg9-eY2Td45WUmkkVKECxFocn1EyNq5gkbpMEsSiNcXoit-j0hr6Wr3cnX249OZsX43cffjBH4exSsDFg76y87q_6tiTwM9ZcFvcoYBHWOnT8eQYBoKPKtgqmwFe6OCTQW7z_-_V7j7nCskJsVfCBWuCzeC9vkz9K5i-7jSDgVJseGmzbb_tPu-RPVfw4_7uucq-l-l5gU1N3NHFAMP2nD18FOupmg2REWhXQzO_JZ5RqZrT8hoj9QyJj9n5iUam4LnJDi8Vf9CkLSrGFc94xgfLVSnv6kW-aZe2pvPeeB2F77oJBahU3t54fc4Rv__BcDuYoa2v06AmWewbS8TUYD88vkx83Rmar93CKvHskcyPJWOCAYrO3wYdA6nUeYFzPSy_H0mU5X1LigI97WqetuOa742FjmvPLMVMLlDC6QgfhGhIiM9YCs9S6YlyL2aW5MP4vZuWQmKB0OiuemrUVNo4aOIgAs0pyhzbR9QA9OL_wkrGOEgZrv0-q-Aoc9ha0sNmruHX8YCFZ2egk3auVPaWir3bmeCejCFrHYyCb9pOcnp8Eeqg2A_Db1cxYiX5zn7EHFxlfvd9LZp7gjgkZCdNchkwIRj_0d790VUAqxhBjTPAlnK6J6kbCn7BaX6F8pPzuGLKvHDp5922SoMHC94WeYbyOjSCziT3-eoUIIpdLEZxYeyNM6hbGneDBdzqIifYI1K73h3NdaRkj4nJgtYmJxFohDrMO4KlPDIWFCVEBMdvbuK8pX6ZEvd6En8ChbPkVcvzx8hbYRirQ-rb-YAX8BXVek-ir7WiSbxLkMDL4vA7xVjF1VTM1ERNhBqyI_f7ukLdNUsb5RO0etLHSATeyZgYliquftAlPd1uOP65DQhTvwoEsYL1AvthH6xMr1FhTsaPzzR_mluNzvrgNMkFNyrqLPPa5nKWBQZRJasU3MHNdTGdfeW_jB7gMsdfeM1Buf-XkIiEKuPZQx8Wl20ZCq7lNqNFRrEunczjYOOsOuJlBPiN1h_ft_ptGBXnsM050-e6MebVNWhruvUrykQ4__nKASeToS68kxR7AuU4wXNTjc6OCoVRRawtSZyMJcCsSFh0SdKFWBcxNxG_0xlOUN7r4I1PO9pr2IUX7ro_lx-g4KF109og8lY9hgN9PiCUquP4sr8x2uTcG5MLa4uSYqtpok58yH3o4idJs80IeHDZw7I39Eo5thypZXaWGeX7JjQcCdikLBix0hOh5hJKNPvcKg187sRO9GJnWHS3fx9lMG-u7BNDZwIt9s-W7-243DNaBCgoLcO5n00kg3Y-1-EV0m2-K7WPD4eo2vMWv46z8NTFu3?></g></svg>