<svg xmlns="http://www.w3.org/2000/svg" xmlns:xlink="http://www.w3.org/1999/xlink" contentStyleType="text/css" data-diagram-type="CLASS" height="1076px" preserveAspectRatio="none" style="width:1781px;height:1076px;background:#FFFFFF;" version="1.1" viewBox="0 0 1781 1076" width="1781px" zoomAndPan="magnify"><?plantuml 1.2026.5?><defs/><g><g class="title" data-source-line="3"><text fill="#000000" font-family="sans-serif" font-size="14" font-weight="700" lengthAdjust="spacing" textLength="174.5762" x="799.7229" y="23.5352">OsLib Os Class Diagram</text></g><!--cluster OsLib--><g class="cluster" data-qualified-name="OsLib" data-source-line="34" id="ent0001"><path d="M197.28,109.3483 L239.6921,109.3483 A3.75,3.75 0 0 1 242.1921,111.8483 L249.1921,131.8366 L1552.28,131.8366 A2.5,2.5 0 0 1 1554.78,134.3366 L1554.78,1051.7583 A2.5,2.5 0 0 1 1552.28,1054.2583 L197.28,1054.2583 A2.5,2.5 0 0 1 194.78,1051.7583 L194.78,111.8483 A2.5,2.5 0 0 1 197.28,109.3483" fill="none" style="stroke:#000000;stroke-width:1.5;"/><line style="stroke:#000000;stroke-width:1.5;" x1="194.78" x2="249.1921" y1="131.8366" y2="131.8366"/><text fill="#000000" font-family="sans-serif" font-size="14" font-weight="700" lengthAdjust="spacing" textLength="41.4121" x="198.78" y="124.8834">OsLib</text></g><!--class EscapeMode--><g class="entity" data-qualified-name="OsLib.EscapeMode" data-source-line="35" id="ent0002"><rect fill="#CCFBF1" height="104.5313" rx="2.5" ry="2.5" style="stroke:#0F766E;stroke-width:0.5;" width="139.3672" x="485.1" y="912.5283"/><ellipse cx="500.1" cy="928.5283" fill="#F59E0B" rx="11" ry="11" style="stroke:#181818;stroke-width:1;"/><path d="M503.7143,935.0283 L495.9945,935.0283 L495.9945,922.6352 L503.7143,922.6352 L503.7143,924.7934 L498.4433,924.7934 L498.4433,927.4663 L503.2162,927.4663 L503.2162,929.6245 L498.4433,929.6245 L498.4433,932.8701 L503.7143,932.8701 Z " fill="#000000"/><text fill="#111827" font-family="Casual" font-size="18" lengthAdjust="spacing" textLength="107.3672" x="514.1" y="935.331">EscapeMode</text><line style="stroke:#0F766E;stroke-width:0.5;" x1="486.1" x2="623.4672" y1="944.5283" y2="944.5283"/><text fill="#053583" font-family="Casual" font-size="12" lengthAdjust="spacing" textLength="33.5859" x="491.1" y="960.1298">noEsc</text><text fill="#053583" font-family="Casual" font-size="12" lengthAdjust="spacing" textLength="50.877" x="491.1" y="974.2627">blankEsc</text><text fill="#053583" font-family="Casual" font-size="12" lengthAdjust="spacing" textLength="55.6875" x="491.1" y="988.3955">paramEsc</text><text fill="#053583" font-family="Casual" font-size="12" lengthAdjust="spacing" textLength="71.3555" x="491.1" y="1002.5283">backslashed</text><line style="stroke:#0F766E;stroke-width:0.5;" x1="486.1" x2="623.4672" y1="1009.0595" y2="1009.0595"/></g><!--class OsType--><g class="entity" data-qualified-name="OsLib.OsType" data-source-line="42" id="ent0003"><rect fill="#CCFBF1" height="90.3984" rx="2.5" ry="2.5" style="stroke:#0F766E;stroke-width:0.5;" width="97.3027" x="659.13" y="919.5983"/><ellipse cx="674.13" cy="935.5983" fill="#F59E0B" rx="11" ry="11" style="stroke:#181818;stroke-width:1;"/><path d="M677.7443,942.0983 L670.0245,942.0983 L670.0245,929.7052 L677.7443,929.7052 L677.7443,931.8634 L672.4733,931.8634 L672.4733,934.5363 L677.2462,934.5363 L677.2462,936.6945 L672.4733,936.6945 L672.4733,939.9401 L677.7443,939.9401 Z " fill="#000000"/><text fill="#111827" font-family="Casual" font-size="18" lengthAdjust="spacing" textLength="65.3027" x="688.13" y="942.401">OsType</text><line style="stroke:#0F766E;stroke-width:0.5;" x1="660.13" x2="755.4327" y1="951.5983" y2="951.5983"/><text fill="#053583" font-family="Casual" font-size="12" lengthAdjust="spacing" textLength="51.4688" x="665.13" y="967.1998">Windows</text><text fill="#053583" font-family="Casual" font-size="12" lengthAdjust="spacing" textLength="38.8945" x="665.13" y="981.3327">MacOS</text><text fill="#053583" font-family="Casual" font-size="12" lengthAdjust="spacing" textLength="42.6973" x="665.13" y="995.4655">Ubuntu</text><line style="stroke:#0F766E;stroke-width:0.5;" x1="660.13" x2="755.4327" y1="1001.9967" y2="1001.9967"/></g><!--class IStartupDiagnosticSink--><g class="entity" data-qualified-name="OsLib.IStartupDiagnosticSink" data-source-line="48" id="ent0004"><rect fill="#CCFBF1" height="62.1328" rx="2.5" ry="2.5" style="stroke:#0F766E;stroke-width:0.5;" width="229.1475" x="791.21" y="933.7283"/><ellipse cx="806.21" cy="949.7283" fill="#B4A7E5" rx="11" ry="11" style="stroke:#181818;stroke-width:1;"/><path d="M802.6377,945.9934 L802.6377,943.8352 L810.0171,943.8352 L810.0171,945.9934 L807.5518,945.9934 L807.5518,954.0701 L810.0171,954.0701 L810.0171,956.2283 L802.6377,956.2283 L802.6377,954.0701 L805.1031,954.0701 L805.1031,945.9934 Z " fill="#000000"/><text fill="#111827" font-family="Casual" font-size="18" font-style="italic" lengthAdjust="spacing" textLength="197.1475" x="820.21" y="956.531">IStartupDiagnosticSink</text><line style="stroke:#0F766E;stroke-width:0.5;" x1="792.21" x2="1019.3575" y1="965.7283" y2="965.7283"/><line style="stroke:#0F766E;stroke-width:0.5;" x1="792.21" x2="1019.3575" y1="973.7283" y2="973.7283"/><g data-visibility-modifier="PUBLIC_METHOD"><ellipse cx="802.21" cy="986.2947" fill="#84BE84" rx="3" ry="3" style="stroke:#038048;stroke-width:1;"/></g><text fill="#053583" font-family="Casual" font-size="12" lengthAdjust="spacing" textLength="198.4453" x="811.21" y="989.3298">WriteError(message : string) : void</text></g><!--class CloudPathWiring--><g class="entity" data-qualified-name="OsLib.CloudPathWiring" data-source-line="52" id="ent0005"><rect fill="#CCFBF1" height="62.1328" rx="2.5" ry="2.5" style="stroke:#0F766E;stroke-width:0.5;" width="176.5713" x="341.49" y="144.3483"/><ellipse cx="356.49" cy="160.3483" fill="#ADD1B2" rx="11" ry="11" style="stroke:#181818;stroke-width:1;"/><path d="M358.9631,166.4913 Q358.3821,166.7902 357.7429,166.9396 Q357.1038,167.089 356.3982,167.089 Q353.8914,167.089 352.5715,165.4371 Q351.2517,163.7853 351.2517,160.6642 Q351.2517,157.5348 352.5715,155.8829 Q353.8914,154.2311 356.3982,154.2311 Q357.1038,154.2311 357.7512,154.3805 Q358.3987,154.5299 358.9631,154.8288 L358.9631,157.5514 Q358.3323,156.9704 357.7388,156.7006 Q357.1453,156.4308 356.5144,156.4308 Q355.1697,156.4308 354.4849,157.4975 Q353.8001,158.5641 353.8001,160.6642 Q353.8001,162.756 354.4849,163.8226 Q355.1697,164.8893 356.5144,164.8893 Q357.1453,164.8893 357.7388,164.6195 Q358.3323,164.3497 358.9631,163.7687 Z " fill="#000000"/><text fill="#111827" font-family="Casual" font-size="18" lengthAdjust="spacing" textLength="144.5713" x="370.49" y="167.151">CloudPathWiring</text><line style="stroke:#0F766E;stroke-width:0.5;" x1="342.49" x2="517.0613" y1="176.3483" y2="176.3483"/><line style="stroke:#0F766E;stroke-width:0.5;" x1="342.49" x2="517.0613" y1="184.3483" y2="184.3483"/><g data-visibility-modifier="PUBLIC_METHOD"><ellipse cx="352.49" cy="196.9147" fill="#84BE84" rx="3" ry="3" style="stroke:#038048;stroke-width:1;"/></g><text fill="#053583" font-family="Casual" font-size="12" lengthAdjust="spacing" text-decoration="underline" textLength="93.2578" x="361.49" y="199.9498">Initialize() : void</text></g><!--class RaiPath--><g class="entity" data-qualified-name="OsLib.RaiPath" data-source-line="56" id="ent0006"><rect fill="#CCFBF1" height="118.6641" rx="2.5" ry="2.5" style="stroke:#0F766E;stroke-width:0.5;" width="239.0117" x="211.27" y="905.4583"/><ellipse cx="294.3667" cy="921.4583" fill="#ADD1B2" rx="11" ry="11" style="stroke:#181818;stroke-width:1;"/><path d="M296.8398,927.6013 Q296.2588,927.9002 295.6196,928.0496 Q294.9804,928.199 294.2749,928.199 Q291.768,928.199 290.4482,926.5471 Q289.1284,924.8953 289.1284,921.7742 Q289.1284,918.6448 290.4482,916.9929 Q291.768,915.3411 294.2749,915.3411 Q294.9804,915.3411 295.6279,915.4905 Q296.2754,915.6399 296.8398,915.9388 L296.8398,918.6614 Q296.209,918.0804 295.6155,917.8106 Q295.022,917.5408 294.3911,917.5408 Q293.0464,917.5408 292.3616,918.6075 Q291.6767,919.6741 291.6767,921.7742 Q291.6767,923.866 292.3616,924.9326 Q293.0464,925.9993 294.3911,925.9993 Q295.022,925.9993 295.6155,925.7295 Q296.209,925.4597 296.8398,924.8787 Z " fill="#000000"/><text fill="#111827" font-family="Casual" font-size="18" lengthAdjust="spacing" textLength="64.3184" x="314.8667" y="928.261">RaiPath</text><line style="stroke:#0F766E;stroke-width:0.5;" x1="212.27" x2="449.2817" y1="937.4583" y2="937.4583"/><g data-visibility-modifier="PUBLIC_FIELD"><ellipse cx="222.27" cy="950.0247" fill="none" rx="3" ry="3" style="stroke:#038048;stroke-width:1;"/></g><text fill="#053583" font-family="Casual" font-size="12" lengthAdjust="spacing" text-decoration="underline" textLength="213.0117" x="231.27" y="953.0598">CloudEvaluator : Func&lt;string, bool&gt;</text><g data-visibility-modifier="PUBLIC_FIELD"><ellipse cx="222.27" cy="964.1575" fill="none" rx="3" ry="3" style="stroke:#038048;stroke-width:1;"/></g><text fill="#053583" font-family="Casual" font-size="12" lengthAdjust="spacing" textLength="71.2969" x="231.27" y="967.1927">Cloud : bool</text><line style="stroke:#0F766E;stroke-width:0.5;" x1="212.27" x2="449.2817" y1="973.7239" y2="973.7239"/><g data-visibility-modifier="PUBLIC_METHOD"><ellipse cx="222.27" cy="986.2903" fill="#84BE84" rx="3" ry="3" style="stroke:#038048;stroke-width:1;"/></g><text fill="#053583" font-family="Casual" font-size="12" lengthAdjust="spacing" textLength="132" x="231.27" y="989.3255">RaiPath(s : string = ".")</text><g data-visibility-modifier="PUBLIC_METHOD"><ellipse cx="222.27" cy="1000.4231" fill="#84BE84" rx="3" ry="3" style="stroke:#038048;stroke-width:1;"/></g><text fill="#053583" font-family="Casual" font-size="12" lengthAdjust="spacing" textLength="135.8555" x="231.27" y="1003.4583">RaiPath(other : RaiPath)</text><g data-visibility-modifier="PUBLIC_METHOD"><ellipse cx="222.27" cy="1014.5559" fill="#84BE84" rx="3" ry="3" style="stroke:#038048;stroke-width:1;"/></g><text fill="#053583" font-family="Casual" font-size="12" lengthAdjust="spacing" textLength="104.2266" x="231.27" y="1017.5911">RaiPath(f : RaiFile)</text></g><!--class RaiFile--><g class="entity" data-qualified-name="OsLib.RaiFile" data-source-line="64" id="ent0007"><rect fill="#CCFBF1" height="146.9297" rx="2.5" ry="2.5" style="stroke:#0F766E;stroke-width:0.5;" width="483.1016" x="1055.23" y="891.3283"/><ellipse cx="1264.2256" cy="907.3283" fill="#ADD1B2" rx="11" ry="11" style="stroke:#181818;stroke-width:1;"/><path d="M1266.6988,913.4713 Q1266.1177,913.7702 1265.4785,913.9196 Q1264.8394,914.069 1264.1338,914.069 Q1261.627,914.069 1260.3071,912.4171 Q1258.9873,910.7653 1258.9873,907.6442 Q1258.9873,904.5148 1260.3071,902.8629 Q1261.627,901.2111 1264.1338,901.2111 Q1264.8394,901.2111 1265.4868,901.3605 Q1266.1343,901.5099 1266.6988,901.8087 L1266.6988,904.5314 Q1266.0679,903.9504 1265.4744,903.6806 Q1264.8809,903.4108 1264.25,903.4108 Q1262.9053,903.4108 1262.2205,904.4775 Q1261.5357,905.5441 1261.5357,907.6442 Q1261.5357,909.736 1262.2205,910.8026 Q1262.9053,911.8693 1264.25,911.8693 Q1264.8809,911.8693 1265.4744,911.5995 Q1266.0679,911.3297 1266.6988,910.7487 Z " fill="#000000"/><text fill="#111827" font-family="Casual" font-size="18" lengthAdjust="spacing" textLength="56.6104" x="1284.7256" y="914.131">RaiFile</text><line style="stroke:#0F766E;stroke-width:0.5;" x1="1056.23" x2="1537.3316" y1="923.3283" y2="923.3283"/><g data-visibility-modifier="PUBLIC_FIELD"><ellipse cx="1066.23" cy="935.8947" fill="none" rx="3" ry="3" style="stroke:#038048;stroke-width:1;"/></g><text fill="#053583" font-family="Casual" font-size="12" lengthAdjust="spacing" text-decoration="underline" textLength="213.709" x="1075.23" y="938.9298">DefaultSyncPropagationDelayMs : int</text><line style="stroke:#0F766E;stroke-width:0.5;" x1="1056.23" x2="1537.3316" y1="945.4611" y2="945.4611"/><g data-visibility-modifier="PUBLIC_METHOD"><ellipse cx="1066.23" cy="958.0275" fill="#84BE84" rx="3" ry="3" style="stroke:#038048;stroke-width:1;"/></g><text fill="#053583" font-family="Casual" font-size="12" lengthAdjust="spacing" textLength="140.8477" x="1075.23" y="961.0627">RaiFile(filename : string)</text><g data-visibility-modifier="PUBLIC_METHOD"><ellipse cx="1066.23" cy="972.1603" fill="#84BE84" rx="3" ry="3" style="stroke:#038048;stroke-width:1;"/></g><text fill="#053583" font-family="Casual" font-size="12" lengthAdjust="spacing" textLength="341.5898" x="1075.23" y="975.1955">RaiFile(p : RaiPath, name : string = null, ext : string = null)</text><g data-visibility-modifier="PUBLIC_METHOD"><ellipse cx="1066.23" cy="986.2931" fill="#84BE84" rx="3" ry="3" style="stroke:#038048;stroke-width:1;"/></g><text fill="#053583" font-family="Casual" font-size="12" lengthAdjust="spacing" textLength="144.4453" x="1075.23" y="989.3283">{virtual} mkdir() : RaiPath</text><g data-visibility-modifier="PUBLIC_METHOD"><ellipse cx="1066.23" cy="1000.4259" fill="#84BE84" rx="3" ry="3" style="stroke:#038048;stroke-width:1;"/></g><text fill="#053583" font-family="Casual" font-size="12" lengthAdjust="spacing" textLength="426.0703" x="1075.23" y="1003.4611">WriteFromAsync(source : Stream, ct : CancellationToken = default) : Task</text><g data-visibility-modifier="PUBLIC_METHOD"><ellipse cx="1066.23" cy="1014.5587" fill="#84BE84" rx="3" ry="3" style="stroke:#038048;stroke-width:1;"/></g><text fill="#053583" font-family="Casual" font-size="12" lengthAdjust="spacing" textLength="394.3066" x="1075.23" y="1017.5939">ReadAllBytesAsync(ct : CancellationToken = default) : Task&lt;byte[]&gt;</text><g data-visibility-modifier="PUBLIC_METHOD"><ellipse cx="1066.23" cy="1028.6916" fill="#84BE84" rx="3" ry="3" style="stroke:#038048;stroke-width:1;"/></g><text fill="#053583" font-family="Casual" font-size="12" lengthAdjust="spacing" textLength="457.1016" x="1075.23" y="1031.7267">BackdateCreationTime(utc : DateTime, propagationDelayMs : int? = null) : void</text></g><!--class Os--><g class="entity" data-qualified-name="OsLib.Os" data-source-line="74" id="ent0008"><rect fill="#CCFBF1" height="407.5859" rx="2.5" ry="2.5" style="stroke:#0F766E;stroke-width:0.5;" width="689.1289" x="437.22" y="383.3483"/><ellipse cx="749.0638" cy="402.4811" fill="#ADD1B2" rx="11" ry="11" style="stroke:#181818;stroke-width:1;"/><path d="M751.5369,408.6242 Q750.9558,408.923 750.3167,409.0724 Q749.6775,409.2218 748.972,409.2218 Q746.4651,409.2218 745.1453,407.57 Q743.8255,405.9181 743.8255,402.797 Q743.8255,399.6676 745.1453,398.0158 Q746.4651,396.3639 748.972,396.3639 Q749.6775,396.3639 750.325,396.5133 Q750.9724,396.6627 751.5369,396.9616 L751.5369,399.6842 Q750.906,399.1032 750.3125,398.8334 Q749.719,398.5636 749.0882,398.5636 Q747.7434,398.5636 747.0586,399.6303 Q746.3738,400.6969 746.3738,402.797 Q746.3738,404.8888 747.0586,405.9555 Q747.7434,407.0221 749.0882,407.0221 Q749.719,407.0221 750.3125,406.7523 Q750.906,406.4826 751.5369,405.9015 Z " fill="#000000"/><text fill="#111827" font-family="Casual" font-size="24" lengthAdjust="spacing" textLength="30.8789" x="769.5638" y="411.5514">Os</text><text fill="#111827" font-family="Casual" font-size="12" lengthAdjust="spacing" textLength="22.2656" x="804.2395" y="414.0827">&#9416;&#9413;</text><line style="stroke:#0F766E;stroke-width:0.5;" x1="438.22" x2="1125.3489" y1="421.6139" y2="421.6139"/><g data-visibility-modifier="PUBLIC_FIELD"><ellipse cx="448.22" cy="434.1803" fill="none" rx="3" ry="3" style="stroke:#038048;stroke-width:1;"/></g><text fill="#053583" font-family="Casual" font-size="12" lengthAdjust="spacing" text-decoration="underline" textLength="65.3379" x="457.22" y="437.2155">DIR : string</text><g data-visibility-modifier="PUBLIC_FIELD"><ellipse cx="448.22" cy="448.3131" fill="none" rx="3" ry="3" style="stroke:#038048;stroke-width:1;"/></g><text fill="#053583" font-family="Casual" font-size="12" lengthAdjust="spacing" text-decoration="underline" textLength="131.8066" x="457.22" y="451.3483">DIRSEPERATOR : string</text><g data-visibility-modifier="PUBLIC_FIELD"><ellipse cx="448.22" cy="462.4459" fill="none" rx="3" ry="3" style="stroke:#038048;stroke-width:1;"/></g><text fill="#053583" font-family="Casual" font-size="12" lengthAdjust="spacing" text-decoration="underline" textLength="120.9785" x="457.22" y="465.4811">ESCAPECHAR : string</text><g data-visibility-modifier="PUBLIC_FIELD"><ellipse cx="448.22" cy="476.5788" fill="none" rx="3" ry="3" style="stroke:#038048;stroke-width:1;"/></g><text fill="#053583" font-family="Casual" font-size="12" lengthAdjust="spacing" text-decoration="underline" textLength="126.2109" x="457.22" y="479.6139">DATEFORMAT : string</text><g data-visibility-modifier="PUBLIC_FIELD"><ellipse cx="448.22" cy="490.7116" fill="none" rx="3" ry="3" style="stroke:#038048;stroke-width:1;"/></g><text fill="#053583" font-family="Casual" font-size="12" lengthAdjust="spacing" text-decoration="underline" textLength="83.0215" x="457.22" y="493.7467">Type : OsType</text><g data-visibility-modifier="PUBLIC_FIELD"><ellipse cx="448.22" cy="504.8444" fill="none" rx="3" ry="3" style="stroke:#038048;stroke-width:1;"/></g><text fill="#053583" font-family="Casual" font-size="12" lengthAdjust="spacing" text-decoration="underline" textLength="98.1973" x="457.22" y="507.8795">IsWindows : bool</text><g data-visibility-modifier="PUBLIC_FIELD"><ellipse cx="448.22" cy="518.9772" fill="none" rx="3" ry="3" style="stroke:#038048;stroke-width:1;"/></g><text fill="#053583" font-family="Casual" font-size="12" lengthAdjust="spacing" text-decoration="underline" textLength="85.623" x="457.22" y="522.0123">IsMacOS : bool</text><g data-visibility-modifier="PUBLIC_FIELD"><ellipse cx="448.22" cy="533.11" fill="none" rx="3" ry="3" style="stroke:#038048;stroke-width:1;"/></g><text fill="#053583" font-family="Casual" font-size="12" lengthAdjust="spacing" text-decoration="underline" textLength="96.8848" x="457.22" y="536.1452">IsUnixLike : bool</text><g data-visibility-modifier="PUBLIC_FIELD"><ellipse cx="448.22" cy="547.2428" fill="none" rx="3" ry="3" style="stroke:#038048;stroke-width:1;"/></g><text fill="#053583" font-family="Casual" font-size="12" lengthAdjust="spacing" text-decoration="underline" textLength="102.416" x="457.22" y="550.278">IsLinuxLike : bool</text><g data-visibility-modifier="PUBLIC_FIELD"><ellipse cx="448.22" cy="561.3756" fill="none" rx="3" ry="3" style="stroke:#038048;stroke-width:1;"/></g><text fill="#053583" font-family="Casual" font-size="12" lengthAdjust="spacing" text-decoration="underline" textLength="131.7422" x="457.22" y="564.4108">UserHomeDir : RaiPath</text><g data-visibility-modifier="PUBLIC_FIELD"><ellipse cx="448.22" cy="575.5084" fill="none" rx="3" ry="3" style="stroke:#038048;stroke-width:1;"/></g><text fill="#053583" font-family="Casual" font-size="12" lengthAdjust="spacing" text-decoration="underline" textLength="121.8398" x="457.22" y="578.5436">AppRootDir : RaiPath</text><g data-visibility-modifier="PUBLIC_FIELD"><ellipse cx="448.22" cy="589.6413" fill="none" rx="3" ry="3" style="stroke:#038048;stroke-width:1;"/></g><text fill="#053583" font-family="Casual" font-size="12" lengthAdjust="spacing" text-decoration="underline" textLength="104.666" x="457.22" y="592.6764">TempDir : RaiPath</text><g data-visibility-modifier="PUBLIC_FIELD"><ellipse cx="448.22" cy="603.7741" fill="none" rx="3" ry="3" style="stroke:#038048;stroke-width:1;"/></g><text fill="#053583" font-family="Casual" font-size="12" lengthAdjust="spacing" text-decoration="underline" textLength="143.3379" x="457.22" y="606.8092">LocalBackupDir : RaiPath</text><g data-visibility-modifier="PUBLIC_FIELD"><ellipse cx="448.22" cy="617.9069" fill="none" rx="3" ry="3" style="stroke:#038048;stroke-width:1;"/></g><text fill="#053583" font-family="Casual" font-size="12" lengthAdjust="spacing" text-decoration="underline" textLength="98.5898" x="457.22" y="620.942">Config : dynamic</text><g data-visibility-modifier="PUBLIC_FIELD"><ellipse cx="448.22" cy="632.0397" fill="none" rx="3" ry="3" style="stroke:#038048;stroke-width:1;"/></g><text fill="#053583" font-family="Casual" font-size="12" lengthAdjust="spacing" text-decoration="underline" textLength="127.4004" x="457.22" y="635.0748">IsConfigLoaded : bool</text><g data-visibility-modifier="PUBLIC_FIELD"><ellipse cx="448.22" cy="646.1725" fill="none" rx="3" ry="3" style="stroke:#038048;stroke-width:1;"/></g><text fill="#053583" font-family="Casual" font-size="12" lengthAdjust="spacing" text-decoration="underline" textLength="195.2813" x="457.22" y="649.2077">DefaultConfigFileLocation : string</text><line style="stroke:#0F766E;stroke-width:1;" x1="438.22" x2="1125.3489" y1="655.7389" y2="655.7389"/><g data-visibility-modifier="PUBLIC_METHOD"><ellipse cx="448.22" cy="668.3053" fill="#84BE84" rx="3" ry="3" style="stroke:#038048;stroke-width:1;"/></g><text fill="#053583" font-family="Casual" font-size="12" lengthAdjust="spacing" text-decoration="underline" textLength="663.1289" x="457.22" y="671.3405">ConfigureDiagnostics(loggerFactory : ILoggerFactory, startupDiagnosticSink : IStartupDiagnosticSink = null) : void</text><g data-visibility-modifier="PUBLIC_METHOD"><ellipse cx="448.22" cy="682.4381" fill="#84BE84" rx="3" ry="3" style="stroke:#038048;stroke-width:1;"/></g><text fill="#053583" font-family="Casual" font-size="12" lengthAdjust="spacing" text-decoration="underline" textLength="385.3887" x="457.22" y="685.4733">ParseDateTime(datetimeInDATEFORMAT : string) : DateTimeOffset</text><g data-visibility-modifier="PUBLIC_METHOD"><ellipse cx="448.22" cy="696.5709" fill="#84BE84" rx="3" ry="3" style="stroke:#038048;stroke-width:1;"/></g><text fill="#053583" font-family="Casual" font-size="12" lengthAdjust="spacing" text-decoration="underline" textLength="267.5391" x="457.22" y="699.6061">Escape(s : string, mode : EscapeMode) : string</text><g data-visibility-modifier="PUBLIC_METHOD"><ellipse cx="448.22" cy="710.7038" fill="#84BE84" rx="3" ry="3" style="stroke:#038048;stroke-width:1;"/></g><text fill="#053583" font-family="Casual" font-size="12" lengthAdjust="spacing" text-decoration="underline" textLength="182.0742" x="457.22" y="713.7389">NormPath(path : string) : string</text><g data-visibility-modifier="PUBLIC_METHOD"><ellipse cx="448.22" cy="724.8366" fill="#84BE84" rx="3" ry="3" style="stroke:#038048;stroke-width:1;"/></g><text fill="#053583" font-family="Casual" font-size="12" lengthAdjust="spacing" text-decoration="underline" textLength="192.5742" x="457.22" y="727.8717">NormSeperator(s : string) : string</text><g data-visibility-modifier="PUBLIC_METHOD"><ellipse cx="448.22" cy="738.9694" fill="#84BE84" rx="3" ry="3" style="stroke:#038048;stroke-width:1;"/></g><text fill="#053583" font-family="Casual" font-size="12" lengthAdjust="spacing" text-decoration="underline" textLength="208.1309" x="457.22" y="742.0045">NewShortId(length : int = 4) : string</text><g data-visibility-modifier="PUBLIC_METHOD"><ellipse cx="448.22" cy="753.1022" fill="#84BE84" rx="3" ry="3" style="stroke:#038048;stroke-width:1;"/></g><text fill="#053583" font-family="Casual" font-size="12" lengthAdjust="spacing" text-decoration="underline" textLength="210.9668" x="457.22" y="756.1373">EscapeParam(param : string) : string</text><g data-visibility-modifier="PUBLIC_METHOD"><ellipse cx="448.22" cy="767.235" fill="#84BE84" rx="3" ry="3" style="stroke:#038048;stroke-width:1;"/></g><text fill="#053583" font-family="Casual" font-size="12" lengthAdjust="spacing" text-decoration="underline" textLength="201.4688" x="457.22" y="770.2702">EscapeBlank(name : string) : string</text><g data-visibility-modifier="PUBLIC_METHOD"><ellipse cx="448.22" cy="781.3678" fill="#84BE84" rx="3" ry="3" style="stroke:#038048;stroke-width:1;"/></g><text fill="#053583" font-family="Casual" font-size="12" lengthAdjust="spacing" text-decoration="underline" textLength="214.8867" x="457.22" y="784.403">WinInternal(fullname : string) : string</text></g><!--class LegendSample--><g class="entity" data-qualified-name="LegendSample" data-source-line="113" id="ent0017"><rect fill="#CCFBF1" height="261.8594" rx="2.5" ry="2.5" style="stroke:#0F766E;stroke-width:0.5;" width="169.5605" x="9" y="44.4883"/><ellipse cx="54.127" cy="60.4883" fill="#ADD1B2" rx="11" ry="11" style="stroke:#181818;stroke-width:1;"/><path d="M56.6001,66.6313 Q56.019,66.9302 55.3799,67.0796 Q54.7407,67.229 54.0352,67.229 Q51.5283,67.229 50.2085,65.5771 Q48.8887,63.9253 48.8887,60.8042 Q48.8887,57.6748 50.2085,56.0229 Q51.5283,54.3711 54.0352,54.3711 Q54.7407,54.3711 55.3882,54.5205 Q56.0356,54.6699 56.6001,54.9688 L56.6001,57.6914 Q55.9692,57.1104 55.3757,56.8406 Q54.7822,56.5708 54.1514,56.5708 Q52.8066,56.5708 52.1218,57.6375 Q51.437,58.7041 51.437,60.8042 Q51.437,62.896 52.1218,63.9626 Q52.8066,65.0293 54.1514,65.0293 Q54.7822,65.0293 55.3757,64.7595 Q55.9692,64.4897 56.6001,63.9087 Z " fill="#000000"/><text fill="#111827" font-family="Casual" font-size="12" lengthAdjust="spacing" textLength="42.252" x="74.627" y="65.0234">Legend</text><text fill="#111827" font-family="Casual" font-size="10" lengthAdjust="spacing" textLength="28.5547" x="116.8789" y="65.4453">&#9416;&#9398;&#9413;</text><line style="stroke:#0F766E;stroke-width:0.5;" x1="10" x2="177.5605" y1="76.4883" y2="76.4883"/><g data-visibility-modifier="PUBLIC_METHOD"><ellipse cx="20" cy="89.0547" fill="#84BE84" rx="3" ry="3" style="stroke:#038048;stroke-width:1;"/></g><text fill="#053583" font-family="Casual" font-size="12" lengthAdjust="spacing" text-decoration="underline" textLength="119.0156" x="29" y="92.0898">staticMethod() : void</text><g data-visibility-modifier="PRIVATE_FIELD"><rect fill="none" height="6" style="stroke:#C82930;stroke-width:1;" width="6" x="17" y="100.1875"/></g><text fill="#053583" font-family="Casual" font-size="12" lengthAdjust="spacing" text-decoration="underline" textLength="125.4609" x="29" y="106.2227">staticProperty : string</text><line style="stroke:#0F766E;stroke-width:1;" x1="10" x2="177.5605" y1="112.7539" y2="112.7539"/><line style="stroke:#0F766E;stroke-width:1;" x1="10" x2="177.5605" y1="114.7539" y2="114.7539"/><g data-visibility-modifier="PACKAGE_PRIVATE_FIELD"><polygon fill="none" points="20,121.3203,16,127.3203,24,127.3203" style="stroke:#1963A0;stroke-width:1;stroke-linejoin:miter;stroke-miterlimit:10;"/></g><text fill="#053583" font-family="Casual" font-size="12" font-style="italic" lengthAdjust="spacing" textLength="137.1563" x="29" y="128.3555">Note on class markers :</text><text fill="#053583" font-family="Casual" font-size="10" lengthAdjust="spacing" textLength="10" x="29" y="142.9102">&#9416;</text><text fill="#053583" font-family="Casual" font-size="12" lengthAdjust="spacing" textLength="25.2188" x="39" y="142.4883">tatic</text><text fill="#053583" font-family="Casual" font-size="10" lengthAdjust="spacing" textLength="10" x="29" y="157.043">&#9398;</text><text fill="#053583" font-family="Casual" font-size="12" lengthAdjust="spacing" textLength="40.3301" x="39" y="156.6211">bstract</text><text fill="#053583" font-family="Casual" font-size="12" lengthAdjust="spacing" textLength="39.8555" x="29" y="170.7539">&#9413;artial</text><line style="stroke:#0F766E;stroke-width:1;" x1="10" x2="177.5605" y1="177.2852" y2="177.2852"/><g data-visibility-modifier="PRIVATE_FIELD"><rect fill="none" height="6" style="stroke:#C82930;stroke-width:1;" width="6" x="17" y="186.8516"/></g><text fill="#053583" font-family="Casual" font-size="12" lengthAdjust="spacing" textLength="112.8574" x="29" y="192.8867">privateField : string</text><g data-visibility-modifier="PUBLIC_FIELD"><ellipse cx="20" cy="203.9844" fill="none" rx="3" ry="3" style="stroke:#038048;stroke-width:1;"/></g><text fill="#053583" font-family="Casual" font-size="12" lengthAdjust="spacing" textLength="108.5508" x="29" y="207.0195">publicField : string</text><g data-visibility-modifier="PROTECTED_FIELD"><polygon fill="none" points="20,213.1172,24,217.1172,20,221.1172,16,217.1172" style="stroke:#B38D22;stroke-width:1;stroke-linejoin:miter;stroke-miterlimit:10;"/></g><text fill="#053583" font-family="Casual" font-size="12" lengthAdjust="spacing" textLength="128.7949" x="29" y="221.1523">protectedField : string</text><g data-visibility-modifier="PACKAGE_PRIVATE_FIELD"><polygon fill="none" points="20,228.25,16,234.25,24,234.25" style="stroke:#1963A0;stroke-width:1;stroke-linejoin:miter;stroke-miterlimit:10;"/></g><text fill="#053583" font-family="Casual" font-size="12" lengthAdjust="spacing" textLength="117.457" x="29" y="235.2852">internalField : string</text><line style="stroke:#0F766E;stroke-width:1;" x1="10" x2="177.5605" y1="241.8164" y2="241.8164"/><g data-visibility-modifier="PRIVATE_METHOD"><rect fill="#F24D5C" height="6" style="stroke:#C82930;stroke-width:1;" width="6" x="17" y="251.3828"/></g><text fill="#053583" font-family="Casual" font-size="12" lengthAdjust="spacing" textLength="127.623" x="29" y="257.418">privateMethod() : void</text><g data-visibility-modifier="PUBLIC_METHOD"><ellipse cx="20" cy="268.5156" fill="#84BE84" rx="3" ry="3" style="stroke:#038048;stroke-width:1;"/></g><text fill="#053583" font-family="Casual" font-size="12" lengthAdjust="spacing" textLength="123.3164" x="29" y="271.5508">publicMethod() : void</text><g data-visibility-modifier="PROTECTED_METHOD"><polygon fill="#FFFF44" points="20,277.6484,24,281.6484,20,285.6484,16,281.6484" style="stroke:#B38D22;stroke-width:1;stroke-linejoin:miter;stroke-miterlimit:10;"/></g><text fill="#053583" font-family="Casual" font-size="12" lengthAdjust="spacing" textLength="143.5605" x="29" y="285.6836">protectedMethod() : void</text><g data-visibility-modifier="PACKAGE_PRIVATE_METHOD"><polygon fill="#4177AF" points="20,292.7813,16,298.7813,24,298.7813" style="stroke:#1963A0;stroke-width:1;stroke-linejoin:miter;stroke-miterlimit:10;"/></g><text fill="#053583" font-family="Casual" font-size="12" lengthAdjust="spacing" textLength="132.2227" x="29" y="299.8164">internalMethod() : void</text></g><g class="entity" data-qualified-name="GMN18" data-source-line="134" id="ent0019"><path d="M1573.54,867.9283 L1573.54,1061.6548 L1766.0219,1061.6548 L1766.0219,877.9283 L1756.0219,867.9283 L1573.54,867.9283" fill="#FFF7D6" style="stroke:#D4B106;stroke-width:0.5;"/><path d="M1756.0219,867.9283 L1756.0219,877.9283 L1766.0219,877.9283 L1756.0219,867.9283" fill="#FFF7D6" style="stroke:#D4B106;stroke-width:1;"/><text fill="#000000" font-family="sans-serif" font-size="13" lengthAdjust="spacing" textLength="124.9282" x="1579.54" y="885.4966">Os is a static partial</text><text fill="#000000" font-family="sans-serif" font-size="13" lengthAdjust="spacing" textLength="138.4106" x="1579.54" y="900.8072">class composed from:</text><text fill="#000000" font-family="sans-serif" font-size="13" lengthAdjust="spacing" textLength="45.7603" x="1579.54" y="916.1177">- Os.cs</text><text fill="#000000" font-family="sans-serif" font-size="13" lengthAdjust="spacing" textLength="91.5649" x="1579.54" y="931.4283">- Os.Config.cs</text><text fill="#000000" font-family="sans-serif" font-size="13" lengthAdjust="spacing" textLength="123.2397" x="1579.54" y="946.7388">- Os.Diagnostics.cs</text><text fill="#000000" font-family="sans-serif" font-size="13" lengthAdjust="spacing" textLength="133.4468" x="1579.54" y="962.0494">- CloudPathWiring.cs</text><text fill="#000000" font-family="sans-serif" font-size="13" lengthAdjust="spacing" textLength="149.2588" x="1579.54" y="977.3599">Current config model is</text><text fill="#000000" font-family="sans-serif" font-size="13" lengthAdjust="spacing" textLength="171.4819" x="1579.54" y="992.6705">dynamic (`RAIkeep.json5`)</text><text fill="#000000" font-family="sans-serif" font-size="13" lengthAdjust="spacing" textLength="145.9834" x="1579.54" y="1007.981">with lazy loading and a</text><text fill="#000000" font-family="sans-serif" font-size="13" lengthAdjust="spacing" textLength="154.3052" x="1579.54" y="1023.2916">RaiPath delegate firewall</text><text fill="#000000" font-family="sans-serif" font-size="13" lengthAdjust="spacing" textLength="147.1768" x="1579.54" y="1038.6021">rather than a dedicated</text><text fill="#000000" font-family="sans-serif" font-size="13" lengthAdjust="spacing" textLength="157.2759" x="1579.54" y="1053.9127">config-file wrapper type.</text></g><!--link Os to OsType--><g class="link" data-entity-1="ent0008" data-entity-2="ent0003" data-link-type="dependency" data-source-line="104" id="lnk9"><path codeLine="104" d="M741.75,791.3583 C732.25,839.5883 723.9756,881.5524 717.5456,914.2224" fill="none" id="Os-to-OsType" style="stroke:#9B2C2C;stroke-width:1;stroke-dasharray:7,7;"/><polygon fill="#9B2C2C" points="716.58,919.1283,722.2427,911.0701,717.5456,914.2224,714.3933,909.5252,716.58,919.1283" style="stroke:#9B2C2C;stroke-width:1;stroke-linejoin:miter;stroke-miterlimit:10;"/><text fill="#374151" font-family="'Casual'" font-size="13" lengthAdjust="spacing" textLength="28.5645" x="734.83" y="834.4966">uses</text></g><!--link Os to EscapeMode--><g class="link" data-entity-1="ent0008" data-entity-2="ent0002" data-link-type="dependency" data-source-line="105" id="lnk10"><path codeLine="105" d="M658.98,791.3583 C631.82,836.3083 607.9558,875.7888 588.5058,907.9788" fill="none" id="Os-to-EscapeMode" style="stroke:#9B2C2C;stroke-width:1;stroke-dasharray:7,7;"/><polygon fill="#9B2C2C" points="585.92,912.2583,593.9979,906.6238,588.5058,907.9788,587.1508,902.4866,585.92,912.2583" style="stroke:#9B2C2C;stroke-width:1;stroke-linejoin:miter;stroke-miterlimit:10;"/><text fill="#374151" font-family="'Casual'" font-size="13" lengthAdjust="spacing" textLength="28.5645" x="635.68" y="834.4966">uses</text></g><!--link Os to RaiPath--><g class="link" data-entity-1="ent0008" data-entity-2="ent0006" data-link-type="dependency" data-source-line="106" id="lnk11"><path codeLine="106" d="M436.76,778.1483 C427.7,782.5083 418.7,786.7783 409.78,790.9283 C376.48,806.4183 353.72,790.7583 332.78,820.9283 C316.09,844.9783 313.8246,872.237 316.8146,899.997" fill="none" id="Os-to-RaiPath" style="stroke:#9B2C2C;stroke-width:1;stroke-dasharray:7,7;"/><polygon fill="#9B2C2C" points="317.35,904.9683,320.3632,895.5917,316.8146,899.997,312.4092,896.4484,317.35,904.9683" style="stroke:#9B2C2C;stroke-width:1;stroke-linejoin:miter;stroke-miterlimit:10;"/><text fill="#374151" font-family="'Casual'" font-size="13" lengthAdjust="spacing" textLength="90.6255" x="333.78" y="834.4966">path contracts</text></g><!--link RaiPath to Os--><g class="link" data-entity-1="ent0006" data-entity-2="ent0008" data-link-type="dependency" data-source-line="111" id="lnk16"><path codeLine="111" d="M401.34,905.0183 C438.98,873.6683 483.938,836.2181 533.958,794.5581" fill="none" id="RaiPath-to-Os" style="stroke:#9B2C2C;stroke-width:1;stroke-dasharray:7,7;"/><polygon fill="#9B2C2C" points="537.8,791.3583,528.3245,794.0444,533.958,794.5581,533.4443,800.1916,537.8,791.3583" style="stroke:#9B2C2C;stroke-width:1;stroke-linejoin:miter;stroke-miterlimit:10;"/><text fill="#374151" font-family="'Casual'" font-size="13" lengthAdjust="spacing" textLength="119.9136" x="490.53" y="834.4966">path normalization</text></g><!--link Os to RaiFile--><g class="link" data-entity-1="ent0008" data-entity-2="ent0007" data-link-type="dependency" data-source-line="107" id="lnk12"><path codeLine="107" d="M1060.38,791.3583 C1109.32,827.0583 1153.2004,859.0619 1192.9604,888.0619" fill="none" id="Os-to-RaiFile" style="stroke:#9B2C2C;stroke-width:1;stroke-dasharray:7,7;"/><polygon fill="#9B2C2C" points="1197,891.0083,1192.0858,882.473,1192.9604,888.0619,1187.3715,888.9364,1197,891.0083" style="stroke:#9B2C2C;stroke-width:1;stroke-linejoin:miter;stroke-miterlimit:10;"/><text fill="#374151" font-family="'Casual'" font-size="13" lengthAdjust="spacing" textLength="130.7935" x="1116.5" y="834.4966">config file resolution</text></g><!--link Os to IStartupDiagnosticSink--><g class="link" data-entity-1="ent0008" data-entity-2="ent0004" data-link-type="dependency" data-source-line="108" id="lnk13"><path codeLine="108" d="M848.86,791.3583 C867.29,847.1983 883.553,896.4602 894.203,928.7302" fill="none" id="Os-to-IStartupDiagnosticSink" style="stroke:#9B2C2C;stroke-width:1;stroke-dasharray:7,7;"/><polygon fill="#9B2C2C" points="895.77,933.4783,896.7479,923.6781,894.203,928.7302,889.1509,926.1853,895.77,933.4783" style="stroke:#9B2C2C;stroke-width:1;stroke-linejoin:miter;stroke-miterlimit:10;"/><text fill="#374151" font-family="'Casual'" font-size="13" lengthAdjust="spacing" textLength="101.9751" x="863.13" y="834.4966">diagnostics sink</text></g><!--link CloudPathWiring to Os--><g class="link" data-entity-1="ent0005" data-entity-2="ent0008" data-link-type="dependency" data-source-line="109" id="lnk14"><path codeLine="109" d="M455.95,206.8783 C488.85,245.1683 544.9621,310.4753 604.0821,379.3053" fill="none" id="CloudPathWiring-to-Os" style="stroke:#9B2C2C;stroke-width:1;stroke-dasharray:7,7;"/><polygon fill="#9B2C2C" points="607.34,383.0983,604.5102,373.6647,604.0821,379.3053,598.4415,378.8773,607.34,383.0983" style="stroke:#9B2C2C;stroke-width:1;stroke-linejoin:miter;stroke-miterlimit:10;"/><text fill="#374151" font-family="'Casual'" font-size="13" lengthAdjust="spacing" textLength="107.6499" x="575.25" y="349.9166">boot-state check</text></g><!--link CloudPathWiring to RaiPath--><g class="link" data-entity-1="ent0005" data-entity-2="ent0006" data-link-type="dependency" data-source-line="110" id="lnk15"><path codeLine="110" d="M405.03,206.6483 C375.4,244.9983 327.44,314.4583 308.78,383.3483 C258.61,568.5283 294.1421,794.153 316.2221,900.343" fill="none" id="CloudPathWiring-to-RaiPath" style="stroke:#9B2C2C;stroke-width:1;stroke-dasharray:7,7;"/><polygon fill="#9B2C2C" points="317.24,905.2383,319.3241,895.6124,316.2221,900.343,311.4916,897.241,317.24,905.2383" style="stroke:#9B2C2C;stroke-width:1;stroke-linejoin:miter;stroke-miterlimit:10;"/><text fill="#374151" font-family="'Casual'" font-size="13" lengthAdjust="spacing" textLength="109.4272" x="309.78" y="592.2066">assigns evaluator</text></g><!--link Os to GMN18--><g class="link" data-entity-1="ent0008" data-entity-2="ent0019" data-link-type="association" data-source-line="134" id="lnk20"><path d="M1126.5,684.4083 C1264.47,730.1283 1421.87,791.6383 1554.78,867.9283 C1560.98,871.4883 1567.17,875.3883 1573.29,879.5183" fill="none" id="Os-GMN18" style="stroke:#9B2C2C;stroke-width:1;stroke-dasharray:7,7;"/></g><?plantuml-src ZLVDRjiu43vRJq4aXtLGnxNpsnYk5wxZe0QI9eXJvB1OeBGqihccI86auhf5UYkmv_PT-a1zaXrAiaqhKhANM9hvDDzmVfa_o2rme1ewvB1vrcnvdc660xdMbso2Vyc0Kwt9EQDJHIFFqtCcOegFP4Bz-LJ9H0G3oQKYYnapuEZrZ0PomSIKX9HhLvCRkv32VA0Ha9q1rGdbE-MGCVi2vF34KQOkFVVr6b3nRTyOnIQ9WP4lHOffjoenQwACvrbS5edTrl7XyPl3Pv7tmAOpGuHKqGisC_yEYfWhC3CPl1Y53Un5ExbBnwtdOp4sIwoFSiVVIHM0MaKXF3qvWIUGGjdi-duu2TjbsSi1xNRxpS6f0nYA9DfYcXmT7xREYeWYKGZXeL-qu_2S-WV1Ldm-I0DFhOJXQN1IHBdU14UJTij5z9MIYrnvDZdm3_oYql7YyFIeVTmk0spdsTCpkI0-Kpu7pulHJJf5TTgtE-IhLmCy7TdfQanxf_scDzG-ZU5A1j1zRMMz7K8rsKX9jqlgmyPkU7m6hSaUwVMiaPgG2C7V2QTYdZscRkLIfDMOhXa4NktHUq9whU-MyHPX9gaWksS2HuR6folgNu_nz-Ca4IR9R3DXG8NK1uTWD3PKcIIsyq98RPW_PcBk4fOZKhfNzmf7rX3Zg-eHQ6q3s24QQrrCz_3fGRByM7uw13Uq0owJu8QQsJspO9UleCg8lcf3aVcHZ0GpZ794rvzdkANC6d4jvwA2nPHl-41vGWtMJuTS9CBlPeTea8cKl6VnAGorLc3VSsDrlJunUKjscZjxhbAQ6LYJ-VkMBipa5up3NkKHhBPm12lAZf2_r4Fy8snjhsFlQkCDVuDimT1XaN3U8F3P58LxMp4wXv0ct8oNmhzHCgPJ54jn3fmkhsm0iB8GZnyyC2mLoXz9D0-OIbEKSw_BvKB9gA_HKbtBHFdMdR5HGAC6yQqR0ofyu3nbk9Dp4EXHaF5RStTKpzFZ0GtwdBzR6j2PkV_xTNU2t_prTvfLEvq2Qc203gIVi0ZgYV4HUevY-zeWSSMH_rp5gheG3uwmXVC4ajy___tzytlUnOKgF1_ThbDGL8o7DyFR_jrr1M8u7lHlXeFt_IeB_RlXnVNjLV-kN9_Eaqu-MBQRJUS3nQbxHvdEc7BLHy4-Nx8vb6ilcKWgrHyrgFSoWdEcjgjdZUZ7yQsKfXfm1r5ShRsKFkKsySape84K8PkYCbXYpp2_S89CVIbf047P8VA6oM2s3IsfBI0t1Vlx9PI9WisarNKkfrDG5zJ7sRJ4ZqUNhg21nig6SwTgQXSBrg6_eKh3gkZhjYaCFen4IVdiEUrn7OOQp7P1fZlHcOmD4ja5sN6svLvvBNx0Mr4w7MCxg5s-2l0OOb1sS3jqLN1OZ6TIcL5GntavJUrZ5sDCZYg-oDoziUkwdjqbNg38FdXdLtrzUoANux6zHdOf2yhh8IQcyfj73qSB3ercixUw0NH8ea6lXCuzP5knMdeTaeOKx-j6OV6u-dIZTApAbhpT9aI1bZon1Rl2LHGKDiYcMeb6aLTSu9dFMPUOVNjq8FuC_7BanbySesmgD87LRlPMkhN5z4ZPJPfzIVlBy_BvUmbJ446-IrizEtj__CBnwsxJ33EcKPojr4rYij_iQkzSDFOB0BiCGPcbawctRxtQjoxhsLijmNxFt8ceceD2bxkl6IuUrwtSeTIUg_dnAzTCT9enhuRUOmhmzkEbesCV5nDxm6XUCE21uy8h4YSJploYVDTkCWE-WQ2e-aPONeT5pHRJau2ig9ue7AudkWrPKOL5BcpS9j8O6H4POfgz6gQQQKBpc6FIyo1aeVLb54kDOpZ4YqN7EdkjcxxE7xAXkdbtPcikB1HXAXqaIW6EXhmbxFJYw8DNoxS1gN-wxO_c077p7ot5yIUyBYqOrYAdNvQ4urgmvKn5GAXNMrKjse2fBVwGALXGZYV0oMKlY6P61PuFTmd3BM7_5SY8zzDUN2WQnnQ5NT_qi629ZP7t7m00?></g></svg>