<?plantuml 1.2026.2?><svg xmlns="http://www.w3.org/2000/svg" xmlns:xlink="http://www.w3.org/1999/xlink" contentStyleType="text/css" data-diagram-type="CLASS" height="986px" preserveAspectRatio="none" style="width:1670px;height:986px;background:#FFFFFF;" version="1.1" viewBox="0 0 1670 986" width="1670px" zoomAndPan="magnify"><title>OsLib Os Class Diagram</title><defs/><g><g class="title" data-source-line="3"><text fill="#000000" font-family="sans-serif" font-size="14" font-weight="bold" lengthAdjust="spacing" textLength="174.5762" x="740.9679" y="23.5352">OsLib Os Class Diagram</text></g><!--cluster OsLib--><g class="cluster" data-qualified-name="OsLib" data-source-line="34" id="ent0002"><path d="M185.77,96.9683 L228.1821,96.9683 A3.75,3.75 0 0 1 230.6821,99.4683 L237.6821,119.4566 L1449.77,119.4566 A2.5,2.5 0 0 1 1452.27,121.9566 L1452.27,950.7683 A2.5,2.5 0 0 1 1449.77,953.2683 L185.77,953.2683 A2.5,2.5 0 0 1 183.27,950.7683 L183.27,99.4683 A2.5,2.5 0 0 1 185.77,96.9683" fill="none" style="stroke:#000000;stroke-width:1.5;"/><line style="stroke:#000000;stroke-width:1.5;" x1="183.27" x2="237.6821" y1="119.4566" y2="119.4566"/><text fill="#000000" font-family="sans-serif" font-size="14" font-weight="bold" lengthAdjust="spacing" textLength="41.4121" x="187.27" y="112.5034">OsLib</text></g><!--class EscapeMode--><g class="entity" data-qualified-name="OsLib.EscapeMode" data-source-line="35" id="ent0003"><rect fill="#CCFBF1" height="96.912" rx="2.5" ry="2.5" style="stroke:#0F766E;stroke-width:0.5;" width="122.792" x="450.87" y="834.2383"/><ellipse cx="465.87" cy="850.2383" fill="#F59E0B" rx="11" ry="11" style="stroke:#181818;stroke-width:1;"/><path d="M469.4843,856.7383 L461.7645,856.7383 L461.7645,844.3452 L469.4843,844.3452 L469.4843,846.5034 L464.2133,846.5034 L464.2133,849.1763 L468.9862,849.1763 L468.9862,851.3345 L464.2133,851.3345 L464.2133,854.5801 L469.4843,854.5801 Z " fill="#000000"/><text fill="#111827" font-family="Casual" font-size="18" lengthAdjust="spacing" textLength="90.792" x="479.87" y="855.4673">EscapeMode</text><line style="stroke:#0F766E;stroke-width:0.5;" x1="451.87" x2="572.662" y1="866.2383" y2="866.2383"/><text fill="#053583" font-family="Casual" font-size="12" lengthAdjust="spacing" textLength="28.488" x="456.87" y="879.8383">noEsc</text><text fill="#053583" font-family="Casual" font-size="12" lengthAdjust="spacing" textLength="45.552" x="456.87" y="892.0663">blankEsc</text><text fill="#053583" font-family="Casual" font-size="12" lengthAdjust="spacing" textLength="49.116" x="456.87" y="904.2943">paramEsc</text><text fill="#053583" font-family="Casual" font-size="12" lengthAdjust="spacing" textLength="63.156" x="456.87" y="916.5223">backslashed</text><line style="stroke:#0F766E;stroke-width:0.5;" x1="451.87" x2="572.662" y1="923.1503" y2="923.1503"/></g><!--class OsType--><g class="entity" data-qualified-name="OsLib.OsType" data-source-line="42" id="ent0004"><rect fill="#CCFBF1" height="84.684" rx="2.5" ry="2.5" style="stroke:#0F766E;stroke-width:0.5;" width="85.1" x="608.72" y="840.3483"/><ellipse cx="623.72" cy="856.3483" fill="#F59E0B" rx="11" ry="11" style="stroke:#181818;stroke-width:1;"/><path d="M627.3343,862.8483 L619.6145,862.8483 L619.6145,850.4552 L627.3343,850.4552 L627.3343,852.6134 L622.0633,852.6134 L622.0633,855.2863 L626.8362,855.2863 L626.8362,857.4445 L622.0633,857.4445 L622.0633,860.6901 L627.3343,860.6901 Z " fill="#000000"/><text fill="#111827" font-family="Casual" font-size="18" lengthAdjust="spacing" textLength="53.1" x="637.72" y="861.5773">OsType</text><line style="stroke:#0F766E;stroke-width:0.5;" x1="609.72" x2="692.82" y1="872.3483" y2="872.3483"/><text fill="#053583" font-family="Casual" font-size="12" lengthAdjust="spacing" textLength="44.052" x="614.72" y="885.9483">Windows</text><text fill="#053583" font-family="Casual" font-size="12" lengthAdjust="spacing" textLength="33.372" x="614.72" y="898.1763">MacOS</text><text fill="#053583" font-family="Casual" font-size="12" lengthAdjust="spacing" textLength="35.448" x="614.72" y="910.4043">Ubuntu</text><line style="stroke:#0F766E;stroke-width:0.5;" x1="609.72" x2="692.82" y1="917.0323" y2="917.0323"/></g><!--class IStartupDiagnosticSink--><g class="entity" data-qualified-name="OsLib.IStartupDiagnosticSink" data-source-line="48" id="ent0005"><rect fill="#CCFBF1" height="60.228" rx="2.5" ry="2.5" style="stroke:#0F766E;stroke-width:0.5;" width="216.98" x="728.78" y="852.5783"/><ellipse cx="746.4017" cy="868.5783" fill="#B4A7E5" rx="11" ry="11" style="stroke:#181818;stroke-width:1;"/><path d="M742.8294,864.8434 L742.8294,862.6852 L750.2088,862.6852 L750.2088,864.8434 L747.7435,864.8434 L747.7435,872.9201 L750.2088,872.9201 L750.2088,875.0783 L742.8294,875.0783 L742.8294,872.9201 L745.2948,872.9201 L745.2948,864.8434 Z " fill="#000000"/><text fill="#111827" font-family="Casual" font-size="18" font-style="italic" lengthAdjust="spacing" textLength="179.154" x="760.9843" y="873.8073">IStartupDiagnosticSink</text><line style="stroke:#0F766E;stroke-width:0.5;" x1="729.78" x2="944.76" y1="884.5783" y2="884.5783"/><line style="stroke:#0F766E;stroke-width:0.5;" x1="729.78" x2="944.76" y1="892.5783" y2="892.5783"/><g data-visibility-modifier="PUBLIC_METHOD"><ellipse cx="739.78" cy="904.1923" fill="#84BE84" rx="3" ry="3" style="stroke:#038048;stroke-width:1;"/></g><text fill="#053583" font-family="Casual" font-size="12" lengthAdjust="spacing" textLength="190.98" x="748.78" y="906.1783">WriteError(message : string) : void</text></g><!--class CloudPathWiring--><g class="entity" data-qualified-name="OsLib.CloudPathWiring" data-source-line="52" id="ent0006"><rect fill="#CCFBF1" height="60.228" rx="2.5" ry="2.5" style="stroke:#0F766E;stroke-width:0.5;" width="158.81" x="318.87" y="131.9683"/><ellipse cx="333.87" cy="147.9683" fill="#ADD1B2" rx="11" ry="11" style="stroke:#181818;stroke-width:1;"/><path d="M336.3431,154.1113 Q335.7621,154.4102 335.1229,154.5596 Q334.4838,154.709 333.7782,154.709 Q331.2714,154.709 329.9515,153.0571 Q328.6317,151.4053 328.6317,148.2842 Q328.6317,145.1548 329.9515,143.5029 Q331.2714,141.8511 333.7782,141.8511 Q334.4838,141.8511 335.1312,142.0005 Q335.7787,142.1499 336.3431,142.4488 L336.3431,145.1714 Q335.7123,144.5904 335.1188,144.3206 Q334.5253,144.0508 333.8944,144.0508 Q332.5497,144.0508 331.8649,145.1175 Q331.1801,146.1841 331.1801,148.2842 Q331.1801,150.376 331.8649,151.4426 Q332.5497,152.5093 333.8944,152.5093 Q334.5253,152.5093 335.1188,152.2395 Q335.7123,151.9697 336.3431,151.3887 Z " fill="#000000"/><text fill="#111827" font-family="Casual" font-size="18" lengthAdjust="spacing" textLength="126.81" x="347.87" y="153.1973">CloudPathWiring</text><line style="stroke:#0F766E;stroke-width:0.5;" x1="319.87" x2="476.68" y1="163.9683" y2="163.9683"/><line style="stroke:#0F766E;stroke-width:0.5;" x1="319.87" x2="476.68" y1="171.9683" y2="171.9683"/><g data-visibility-modifier="PUBLIC_METHOD"><ellipse cx="329.87" cy="183.5823" fill="#84BE84" rx="3" ry="3" style="stroke:#038048;stroke-width:1;"/></g><text fill="#053583" font-family="Casual" font-size="12" lengthAdjust="spacing" text-decoration="underline" textLength="93.72" x="338.87" y="185.5683">Initialize() : void</text></g><!--class RaiPath--><g class="entity" data-qualified-name="OsLib.RaiPath" data-source-line="56" id="ent0007"><rect fill="#CCFBF1" height="109.14" rx="2.5" ry="2.5" style="stroke:#0F766E;stroke-width:0.5;" width="216.656" x="198.94" y="828.1283"/><ellipse cx="273.066" cy="844.1283" fill="#ADD1B2" rx="11" ry="11" style="stroke:#181818;stroke-width:1;"/><path d="M275.5391,850.2713 Q274.9581,850.5702 274.3189,850.7196 Q273.6797,850.869 272.9742,850.869 Q270.4673,850.869 269.1475,849.2171 Q267.8277,847.5653 267.8277,844.4442 Q267.8277,841.3148 269.1475,839.6629 Q270.4673,838.0111 272.9742,838.0111 Q273.6797,838.0111 274.3272,838.1605 Q274.9747,838.3099 275.5391,838.6088 L275.5391,841.3314 Q274.9083,840.7504 274.3148,840.4806 Q273.7213,840.2108 273.0904,840.2108 Q271.7457,840.2108 271.0609,841.2775 Q270.376,842.3441 270.376,844.4442 Q270.376,846.536 271.0609,847.6026 Q271.7457,848.6693 273.0904,848.6693 Q273.7213,848.6693 274.3148,848.3995 Q274.9083,848.1297 275.5391,847.5487 Z " fill="#000000"/><text fill="#111827" font-family="Casual" font-size="18" lengthAdjust="spacing" textLength="59.904" x="293.566" y="849.3573">RaiPath</text><line style="stroke:#0F766E;stroke-width:0.5;" x1="199.94" x2="414.596" y1="860.1283" y2="860.1283"/><g data-visibility-modifier="PUBLIC_FIELD"><ellipse cx="209.94" cy="871.7423" fill="none" rx="3" ry="3" style="stroke:#038048;stroke-width:1;"/></g><text fill="#053583" font-family="Casual" font-size="12" lengthAdjust="spacing" text-decoration="underline" textLength="190.656" x="218.94" y="873.7283">CloudEvaluator : Func&lt;string, bool&gt;</text><g data-visibility-modifier="PUBLIC_FIELD"><ellipse cx="209.94" cy="883.9703" fill="none" rx="3" ry="3" style="stroke:#038048;stroke-width:1;"/></g><text fill="#053583" font-family="Casual" font-size="12" lengthAdjust="spacing" textLength="66.156" x="218.94" y="885.9563">Cloud : bool</text><line style="stroke:#0F766E;stroke-width:0.5;" x1="199.94" x2="414.596" y1="892.5843" y2="892.5843"/><g data-visibility-modifier="PUBLIC_METHOD"><ellipse cx="209.94" cy="904.1983" fill="#84BE84" rx="3" ry="3" style="stroke:#038048;stroke-width:1;"/></g><text fill="#053583" font-family="Casual" font-size="12" lengthAdjust="spacing" textLength="134.04" x="218.94" y="906.1843">RaiPath(s : string = ".")</text><g data-visibility-modifier="PUBLIC_METHOD"><ellipse cx="209.94" cy="916.4263" fill="#84BE84" rx="3" ry="3" style="stroke:#038048;stroke-width:1;"/></g><text fill="#053583" font-family="Casual" font-size="12" lengthAdjust="spacing" textLength="132.936" x="218.94" y="918.4123">RaiPath(other : RaiPath)</text><g data-visibility-modifier="PUBLIC_METHOD"><ellipse cx="209.94" cy="928.6543" fill="#84BE84" rx="3" ry="3" style="stroke:#038048;stroke-width:1;"/></g><text fill="#053583" font-family="Casual" font-size="12" lengthAdjust="spacing" textLength="104.556" x="218.94" y="930.6403">RaiPath(f : RaiFile)</text></g><!--class RaiFile--><g class="entity" data-qualified-name="OsLib.RaiFile" data-source-line="64" id="ent0008"><rect fill="#CCFBF1" height="96.912" rx="2.5" ry="2.5" style="stroke:#0F766E;stroke-width:0.5;" width="455.2401" x="980.65" y="834.2383"/><ellipse cx="1178.163" cy="850.2383" fill="#ADD1B2" rx="11" ry="11" style="stroke:#181818;stroke-width:1;"/><path d="M1180.6362,856.3813 Q1180.0551,856.6802 1179.416,856.8296 Q1178.7768,856.979 1178.0712,856.979 Q1175.5644,856.979 1174.2446,855.3271 Q1172.9247,853.6753 1172.9247,850.5542 Q1172.9247,847.4248 1174.2446,845.7729 Q1175.5644,844.1211 1178.0712,844.1211 Q1178.7768,844.1211 1179.4243,844.2705 Q1180.0717,844.4199 1180.6362,844.7188 L1180.6362,847.4414 Q1180.0053,846.8604 1179.4118,846.5906 Q1178.8183,846.3208 1178.1874,846.3208 Q1176.8427,846.3208 1176.1579,847.3875 Q1175.4731,848.4541 1175.4731,850.5542 Q1175.4731,852.646 1176.1579,853.7126 Q1176.8427,854.7793 1178.1874,854.7793 Q1178.8183,854.7793 1179.4118,854.5095 Q1180.0053,854.2397 1180.6362,853.6587 Z " fill="#000000"/><text fill="#111827" font-family="Casual" font-size="18" lengthAdjust="spacing" textLength="51.714" x="1198.663" y="855.4673">RaiFile</text><line style="stroke:#0F766E;stroke-width:0.5;" x1="981.65" x2="1434.8901" y1="866.2383" y2="866.2383"/><g data-visibility-modifier="PUBLIC_FIELD"><ellipse cx="991.65" cy="877.8523" fill="none" rx="3" ry="3" style="stroke:#038048;stroke-width:1;"/></g><text fill="#053583" font-family="Casual" font-size="12" lengthAdjust="spacing" text-decoration="underline" textLength="196.38" x="1000.65" y="879.8383">DefaultSyncPropagationDelayMs : int</text><line style="stroke:#0F766E;stroke-width:0.5;" x1="981.65" x2="1434.8901" y1="886.4663" y2="886.4663"/><g data-visibility-modifier="PUBLIC_METHOD"><ellipse cx="991.65" cy="898.0803" fill="#84BE84" rx="3" ry="3" style="stroke:#038048;stroke-width:1;"/></g><text fill="#053583" font-family="Casual" font-size="12" lengthAdjust="spacing" textLength="134.328" x="1000.65" y="900.0663">RaiFile(filename : string)</text><g data-visibility-modifier="PUBLIC_METHOD"><ellipse cx="991.65" cy="910.3083" fill="#84BE84" rx="3" ry="3" style="stroke:#038048;stroke-width:1;"/></g><text fill="#053583" font-family="Casual" font-size="12" lengthAdjust="spacing" textLength="339.84" x="1000.65" y="912.2943">RaiFile(p : RaiPath, name : string = null, ext : string = null)</text><g data-visibility-modifier="PUBLIC_METHOD"><ellipse cx="991.65" cy="922.5363" fill="#84BE84" rx="3" ry="3" style="stroke:#038048;stroke-width:1;"/></g><text fill="#053583" font-family="Casual" font-size="12" lengthAdjust="spacing" textLength="429.2401" x="1000.65" y="924.5223">BackdateCreationTime(utc : DateTime, propagationDelayMs : int? = null) : void</text></g><!--class Os--><g class="entity" data-qualified-name="OsLib.Os" data-source-line="71" id="ent0009"><rect fill="#CCFBF1" height="356.156" rx="2.5" ry="2.5" style="stroke:#0F766E;stroke-width:0.5;" width="643.9639" x="400.29" y="354.6783"/><ellipse cx="692.0992" cy="371.9063" fill="#ADD1B2" rx="11" ry="11" style="stroke:#181818;stroke-width:1;"/><path d="M694.5723,378.0493 Q693.9912,378.3482 693.3521,378.4976 Q692.7129,378.647 692.0074,378.647 Q689.5005,378.647 688.1807,376.9951 Q686.8609,375.3433 686.8609,372.2222 Q686.8609,369.0928 688.1807,367.4409 Q689.5005,365.7891 692.0074,365.7891 Q692.7129,365.7891 693.3604,365.9385 Q694.0078,366.0879 694.5723,366.3868 L694.5723,369.1094 Q693.9414,368.5284 693.3479,368.2586 Q692.7544,367.9888 692.1236,367.9888 Q690.7788,367.9888 690.094,369.0555 Q689.4092,370.1221 689.4092,372.2222 Q689.4092,374.314 690.094,375.3806 Q690.7788,376.4473 692.1236,376.4473 Q692.7544,376.4473 693.3479,376.1775 Q693.9414,375.9077 694.5723,375.3267 Z " fill="#000000"/><text fill="#111827" font-family="Casual" font-size="24" lengthAdjust="spacing" textLength="23.208" x="712.5992" y="378.8783">Os</text><text fill="#111827" font-family="Casual" font-size="12" lengthAdjust="spacing" textLength="22.2656" x="742.1792" y="381.5063">&#9416;&#9413;</text><line style="stroke:#0F766E;stroke-width:0.5;" x1="401.29" x2="1043.2539" y1="389.1343" y2="389.1343"/><g data-visibility-modifier="PUBLIC_FIELD"><ellipse cx="411.29" cy="400.7483" fill="none" rx="3" ry="3" style="stroke:#038048;stroke-width:1;"/></g><text fill="#053583" font-family="Casual" font-size="12" lengthAdjust="spacing" text-decoration="underline" textLength="65.412" x="420.29" y="402.7343">DIR : string</text><g data-visibility-modifier="PUBLIC_FIELD"><ellipse cx="411.29" cy="412.9763" fill="none" rx="3" ry="3" style="stroke:#038048;stroke-width:1;"/></g><text fill="#053583" font-family="Casual" font-size="12" lengthAdjust="spacing" text-decoration="underline" textLength="122.412" x="420.29" y="414.9623">DIRSEPERATOR : string</text><g data-visibility-modifier="PUBLIC_FIELD"><ellipse cx="411.29" cy="425.2043" fill="none" rx="3" ry="3" style="stroke:#038048;stroke-width:1;"/></g><text fill="#053583" font-family="Casual" font-size="12" lengthAdjust="spacing" text-decoration="underline" textLength="110.256" x="420.29" y="427.1903">ESCAPECHAR : string</text><g data-visibility-modifier="PUBLIC_FIELD"><ellipse cx="411.29" cy="437.4323" fill="none" rx="3" ry="3" style="stroke:#038048;stroke-width:1;"/></g><text fill="#053583" font-family="Casual" font-size="12" lengthAdjust="spacing" text-decoration="underline" textLength="112.644" x="420.29" y="439.4183">DATEFORMAT : string</text><g data-visibility-modifier="PUBLIC_FIELD"><ellipse cx="411.29" cy="449.6603" fill="none" rx="3" ry="3" style="stroke:#038048;stroke-width:1;"/></g><text fill="#053583" font-family="Casual" font-size="12" lengthAdjust="spacing" text-decoration="underline" textLength="75.876" x="420.29" y="451.6463">Type : OsType</text><g data-visibility-modifier="PUBLIC_FIELD"><ellipse cx="411.29" cy="461.8883" fill="none" rx="3" ry="3" style="stroke:#038048;stroke-width:1;"/></g><text fill="#053583" font-family="Casual" font-size="12" lengthAdjust="spacing" text-decoration="underline" textLength="92.772" x="420.29" y="463.8743">IsWindows : bool</text><g data-visibility-modifier="PUBLIC_FIELD"><ellipse cx="411.29" cy="474.1163" fill="none" rx="3" ry="3" style="stroke:#038048;stroke-width:1;"/></g><text fill="#053583" font-family="Casual" font-size="12" lengthAdjust="spacing" text-decoration="underline" textLength="82.092" x="420.29" y="476.1023">IsMacOS : bool</text><g data-visibility-modifier="PUBLIC_FIELD"><ellipse cx="411.29" cy="486.3443" fill="none" rx="3" ry="3" style="stroke:#038048;stroke-width:1;"/></g><text fill="#053583" font-family="Casual" font-size="12" lengthAdjust="spacing" text-decoration="underline" textLength="91.092" x="420.29" y="488.3303">IsUnixLike : bool</text><g data-visibility-modifier="PUBLIC_FIELD"><ellipse cx="411.29" cy="498.5723" fill="none" rx="3" ry="3" style="stroke:#038048;stroke-width:1;"/></g><text fill="#053583" font-family="Casual" font-size="12" lengthAdjust="spacing" text-decoration="underline" textLength="96.528" x="420.29" y="500.5583">IsLinuxLike : bool</text><g data-visibility-modifier="PUBLIC_FIELD"><ellipse cx="411.29" cy="510.8003" fill="none" rx="3" ry="3" style="stroke:#038048;stroke-width:1;"/></g><text fill="#053583" font-family="Casual" font-size="12" lengthAdjust="spacing" text-decoration="underline" textLength="120.528" x="420.29" y="512.7863">UserHomeDir : RaiPath</text><g data-visibility-modifier="PUBLIC_FIELD"><ellipse cx="411.29" cy="523.0283" fill="none" rx="3" ry="3" style="stroke:#038048;stroke-width:1;"/></g><text fill="#053583" font-family="Casual" font-size="12" lengthAdjust="spacing" text-decoration="underline" textLength="113.424" x="420.29" y="525.0143">AppRootDir : RaiPath</text><g data-visibility-modifier="PUBLIC_FIELD"><ellipse cx="411.29" cy="535.2563" fill="none" rx="3" ry="3" style="stroke:#038048;stroke-width:1;"/></g><text fill="#053583" font-family="Casual" font-size="12" lengthAdjust="spacing" text-decoration="underline" textLength="98.22" x="420.29" y="537.2423">TempDir : RaiPath</text><g data-visibility-modifier="PUBLIC_FIELD"><ellipse cx="411.29" cy="547.4843" fill="none" rx="3" ry="3" style="stroke:#038048;stroke-width:1;"/></g><text fill="#053583" font-family="Casual" font-size="12" lengthAdjust="spacing" text-decoration="underline" textLength="135.36" x="420.29" y="549.4703">LocalBackupDir : RaiPath</text><g data-visibility-modifier="PUBLIC_FIELD"><ellipse cx="411.29" cy="559.7123" fill="none" rx="3" ry="3" style="stroke:#038048;stroke-width:1;"/></g><text fill="#053583" font-family="Casual" font-size="12" lengthAdjust="spacing" text-decoration="underline" textLength="90.864" x="420.29" y="561.6983">Config : dynamic</text><g data-visibility-modifier="PUBLIC_FIELD"><ellipse cx="411.29" cy="571.9403" fill="none" rx="3" ry="3" style="stroke:#038048;stroke-width:1;"/></g><text fill="#053583" font-family="Casual" font-size="12" lengthAdjust="spacing" text-decoration="underline" textLength="116.328" x="420.29" y="573.9263">IsConfigLoaded : bool</text><g data-visibility-modifier="PUBLIC_FIELD"><ellipse cx="411.29" cy="584.1683" fill="none" rx="3" ry="3" style="stroke:#038048;stroke-width:1;"/></g><text fill="#053583" font-family="Casual" font-size="12" lengthAdjust="spacing" text-decoration="underline" textLength="178.692" x="420.29" y="586.1543">DefaultConfigFileLocation : string</text><line style="stroke:#0F766E;stroke-width:1;" x1="401.29" x2="1043.2539" y1="592.7823" y2="592.7823"/><g data-visibility-modifier="PUBLIC_METHOD"><ellipse cx="411.29" cy="604.3963" fill="#84BE84" rx="3" ry="3" style="stroke:#038048;stroke-width:1;"/></g><text fill="#053583" font-family="Casual" font-size="12" lengthAdjust="spacing" text-decoration="underline" textLength="617.9639" x="420.29" y="606.3823">ConfigureDiagnostics(loggerFactory : ILoggerFactory, startupDiagnosticSink : IStartupDiagnosticSink = null) : void</text><g data-visibility-modifier="PUBLIC_METHOD"><ellipse cx="411.29" cy="616.6243" fill="#84BE84" rx="3" ry="3" style="stroke:#038048;stroke-width:1;"/></g><text fill="#053583" font-family="Casual" font-size="12" lengthAdjust="spacing" text-decoration="underline" textLength="348.12" x="420.29" y="618.6103">ParseDateTime(datetimeInDATEFORMAT : string) : DateTimeOffset</text><g data-visibility-modifier="PUBLIC_METHOD"><ellipse cx="411.29" cy="628.8523" fill="#84BE84" rx="3" ry="3" style="stroke:#038048;stroke-width:1;"/></g><text fill="#053583" font-family="Casual" font-size="12" lengthAdjust="spacing" text-decoration="underline" textLength="255.636" x="420.29" y="630.8383">Escape(s : string, mode : EscapeMode) : string</text><g data-visibility-modifier="PUBLIC_METHOD"><ellipse cx="411.29" cy="641.0803" fill="#84BE84" rx="3" ry="3" style="stroke:#038048;stroke-width:1;"/></g><text fill="#053583" font-family="Casual" font-size="12" lengthAdjust="spacing" text-decoration="underline" textLength="176.604" x="420.29" y="643.0663">NormPath(path : string) : string</text><g data-visibility-modifier="PUBLIC_METHOD"><ellipse cx="411.29" cy="653.3083" fill="#84BE84" rx="3" ry="3" style="stroke:#038048;stroke-width:1;"/></g><text fill="#053583" font-family="Casual" font-size="12" lengthAdjust="spacing" text-decoration="underline" textLength="185.016" x="420.29" y="655.2943">NormSeperator(s : string) : string</text><g data-visibility-modifier="PUBLIC_METHOD"><ellipse cx="411.29" cy="665.5363" fill="#84BE84" rx="3" ry="3" style="stroke:#038048;stroke-width:1;"/></g><text fill="#053583" font-family="Casual" font-size="12" lengthAdjust="spacing" text-decoration="underline" textLength="205.296" x="420.29" y="667.5223">NewShortId(length : int = 4) : string</text><g data-visibility-modifier="PUBLIC_METHOD"><ellipse cx="411.29" cy="677.7643" fill="#84BE84" rx="3" ry="3" style="stroke:#038048;stroke-width:1;"/></g><text fill="#053583" font-family="Casual" font-size="12" lengthAdjust="spacing" text-decoration="underline" textLength="202.26" x="420.29" y="679.7503">EscapeParam(param : string) : string</text><g data-visibility-modifier="PUBLIC_METHOD"><ellipse cx="411.29" cy="689.9923" fill="#84BE84" rx="3" ry="3" style="stroke:#038048;stroke-width:1;"/></g><text fill="#053583" font-family="Casual" font-size="12" lengthAdjust="spacing" text-decoration="underline" textLength="192.504" x="420.29" y="691.9783">EscapeBlank(name : string) : string</text><g data-visibility-modifier="PUBLIC_METHOD"><ellipse cx="411.29" cy="702.2203" fill="#84BE84" rx="3" ry="3" style="stroke:#038048;stroke-width:1;"/></g><text fill="#053583" font-family="Casual" font-size="12" lengthAdjust="spacing" text-decoration="underline" textLength="208.944" x="420.29" y="704.2063">WinInternal(fullname : string) : string</text></g><!--class LegendSample--><g class="entity" data-qualified-name="LegendSample" data-source-line="110" id="ent0018"><rect fill="#CCFBF1" height="235.192" rx="2.5" ry="2.5" style="stroke:#0F766E;stroke-width:0.5;" width="158.54" x="9" y="44.4883"/><ellipse cx="52.3254" cy="60.4883" fill="#ADD1B2" rx="11" ry="11" style="stroke:#181818;stroke-width:1;"/><path d="M54.7985,66.6313 Q54.2175,66.9302 53.5783,67.0796 Q52.9392,67.229 52.2336,67.229 Q49.7268,67.229 48.4069,65.5771 Q47.0871,63.9253 47.0871,60.8042 Q47.0871,57.6748 48.4069,56.0229 Q49.7268,54.3711 52.2336,54.3711 Q52.9392,54.3711 53.5866,54.5205 Q54.2341,54.6699 54.7985,54.9688 L54.7985,57.6914 Q54.1677,57.1104 53.5742,56.8406 Q52.9807,56.5708 52.3498,56.5708 Q51.0051,56.5708 50.3203,57.6375 Q49.6355,58.7041 49.6355,60.8042 Q49.6355,62.896 50.3203,63.9626 Q51.0051,65.0293 52.3498,65.0293 Q52.9807,65.0293 53.5742,64.7595 Q54.1677,64.4897 54.7985,63.9087 Z " fill="#000000"/><text fill="#111827" font-family="Casual" font-size="12" lengthAdjust="spacing" textLength="35.04" x="72.6199" y="63.9743">Legend</text><text fill="#111827" font-family="Casual" font-size="10" lengthAdjust="spacing" textLength="28.5547" x="107.6599" y="64.4123">&#9416;&#9398;&#9413;</text><line style="stroke:#0F766E;stroke-width:0.5;" x1="10" x2="166.54" y1="76.4883" y2="76.4883"/><g data-visibility-modifier="PUBLIC_METHOD"><ellipse cx="20" cy="88.1023" fill="#84BE84" rx="3" ry="3" style="stroke:#038048;stroke-width:1;"/></g><text fill="#053583" font-family="Casual" font-size="12" lengthAdjust="spacing" text-decoration="underline" textLength="113.232" x="29" y="90.0883">staticMethod() : void</text><g data-visibility-modifier="PRIVATE_FIELD"><rect fill="none" height="6" style="stroke:#C82930;stroke-width:1;" width="6" x="17" y="97.3303"/></g><text fill="#053583" font-family="Casual" font-size="12" lengthAdjust="spacing" text-decoration="underline" textLength="121.092" x="29" y="102.3163">staticProperty : string</text><line style="stroke:#0F766E;stroke-width:1;" x1="10" x2="166.54" y1="108.9443" y2="108.9443"/><line style="stroke:#0F766E;stroke-width:1;" x1="10" x2="166.54" y1="110.9443" y2="110.9443"/><g data-visibility-modifier="PACKAGE_PRIVATE_FIELD"><polygon fill="none" points="20,116.5583,16,122.5583,24,122.5583" style="stroke:#1963A0;stroke-width:1;"/></g><text fill="#053583" font-family="Casual" font-size="12" font-style="italic" lengthAdjust="spacing" textLength="132.312" x="29" y="122.5443">Note on class markers :</text><text fill="#053583" font-family="Casual" font-size="10" lengthAdjust="spacing" textLength="10" x="29" y="135.2103">&#9416;</text><text fill="#053583" font-family="Casual" font-size="12" lengthAdjust="spacing" textLength="24.756" x="39" y="134.7723">tatic</text><text fill="#053583" font-family="Casual" font-size="10" lengthAdjust="spacing" textLength="10" x="29" y="147.4383">&#9398;</text><text fill="#053583" font-family="Casual" font-size="12" lengthAdjust="spacing" textLength="38.064" x="39" y="147.0003">bstract</text><text fill="#053583" font-family="Casual" font-size="12" lengthAdjust="spacing" textLength="39.8816" x="29" y="159.2283">&#9413;artial</text><line style="stroke:#0F766E;stroke-width:1;" x1="10" x2="166.54" y1="165.8563" y2="165.8563"/><g data-visibility-modifier="PRIVATE_FIELD"><rect fill="none" height="6" style="stroke:#C82930;stroke-width:1;" width="6" x="17" y="174.4703"/></g><text fill="#053583" font-family="Casual" font-size="12" lengthAdjust="spacing" textLength="108.132" x="29" y="179.4563">privateField : string</text><g data-visibility-modifier="PUBLIC_FIELD"><ellipse cx="20" cy="189.6983" fill="none" rx="3" ry="3" style="stroke:#038048;stroke-width:1;"/></g><text fill="#053583" font-family="Casual" font-size="12" lengthAdjust="spacing" textLength="102.516" x="29" y="191.6843">publicField : string</text><g data-visibility-modifier="PROTECTED_FIELD"><polygon fill="none" points="20,196.9263,24,200.9263,20,204.9263,16,200.9263" style="stroke:#B38D22;stroke-width:1;"/></g><text fill="#053583" font-family="Casual" font-size="12" lengthAdjust="spacing" textLength="120.324" x="29" y="203.9123">protectedField : string</text><g data-visibility-modifier="PACKAGE_PRIVATE_FIELD"><polygon fill="none" points="20,210.1543,16,216.1543,24,216.1543" style="stroke:#1963A0;stroke-width:1;"/></g><text fill="#053583" font-family="Casual" font-size="12" lengthAdjust="spacing" textLength="112.068" x="29" y="216.1403">internalField : string</text><line style="stroke:#0F766E;stroke-width:1;" x1="10" x2="166.54" y1="222.7683" y2="222.7683"/><g data-visibility-modifier="PRIVATE_METHOD"><rect fill="#F24D5C" height="6" style="stroke:#C82930;stroke-width:1;" width="6" x="17" y="231.3823"/></g><text fill="#053583" font-family="Casual" font-size="12" lengthAdjust="spacing" textLength="120.348" x="29" y="236.3683">privateMethod() : void</text><g data-visibility-modifier="PUBLIC_METHOD"><ellipse cx="20" cy="246.6103" fill="#84BE84" rx="3" ry="3" style="stroke:#038048;stroke-width:1;"/></g><text fill="#053583" font-family="Casual" font-size="12" lengthAdjust="spacing" textLength="114.732" x="29" y="248.5963">publicMethod() : void</text><g data-visibility-modifier="PROTECTED_METHOD"><polygon fill="#FFFF44" points="20,253.8383,24,257.8383,20,261.8383,16,257.8383" style="stroke:#B38D22;stroke-width:1;"/></g><text fill="#053583" font-family="Casual" font-size="12" lengthAdjust="spacing" textLength="132.54" x="29" y="260.8243">protectedMethod() : void</text><g data-visibility-modifier="PACKAGE_PRIVATE_METHOD"><polygon fill="#4177AF" points="20,267.0663,16,273.0663,24,273.0663" style="stroke:#1963A0;stroke-width:1;"/></g><text fill="#053583" font-family="Casual" font-size="12" lengthAdjust="spacing" textLength="124.284" x="29" y="273.0523">internalMethod() : void</text></g><g class="entity" data-qualified-name="GMN19" data-source-line="131" id="ent0020"><path d="M1471.03,785.8283 L1471.03,979.5548 L1663.5119,979.5548 L1663.5119,795.8283 L1653.5119,785.8283 L1471.03,785.8283" fill="#FFF7D6" style="stroke:#D4B106;stroke-width:0.5;"/><path d="M1653.5119,785.8283 L1653.5119,795.8283 L1663.5119,795.8283 L1653.5119,785.8283" fill="#FFF7D6" style="stroke:#D4B106;stroke-width:1;"/><text fill="#000000" font-family="sans-serif" font-size="13" lengthAdjust="spacing" textLength="124.9282" x="1477.03" y="803.3966">Os is a static partial</text><text fill="#000000" font-family="sans-serif" font-size="13" lengthAdjust="spacing" textLength="138.4106" x="1477.03" y="818.7072">class composed from:</text><text fill="#000000" font-family="sans-serif" font-size="13" lengthAdjust="spacing" textLength="45.7603" x="1477.03" y="834.0177">- Os.cs</text><text fill="#000000" font-family="sans-serif" font-size="13" lengthAdjust="spacing" textLength="91.5649" x="1477.03" y="849.3283">- Os.Config.cs</text><text fill="#000000" font-family="sans-serif" font-size="13" lengthAdjust="spacing" textLength="123.2397" x="1477.03" y="864.6388">- Os.Diagnostics.cs</text><text fill="#000000" font-family="sans-serif" font-size="13" lengthAdjust="spacing" textLength="133.4468" x="1477.03" y="879.9494">- CloudPathWiring.cs</text><text fill="#000000" font-family="sans-serif" font-size="13" lengthAdjust="spacing" textLength="149.2588" x="1477.03" y="895.2599">Current config model is</text><text fill="#000000" font-family="sans-serif" font-size="13" lengthAdjust="spacing" textLength="171.4819" x="1477.03" y="910.5705">dynamic (`RAIkeep.json5`)</text><text fill="#000000" font-family="sans-serif" font-size="13" lengthAdjust="spacing" textLength="145.9834" x="1477.03" y="925.881">with lazy loading and a</text><text fill="#000000" font-family="sans-serif" font-size="13" lengthAdjust="spacing" textLength="154.3052" x="1477.03" y="941.1916">RaiPath delegate firewall</text><text fill="#000000" font-family="sans-serif" font-size="13" lengthAdjust="spacing" textLength="147.1768" x="1477.03" y="956.5021">rather than a dedicated</text><text fill="#000000" font-family="sans-serif" font-size="13" lengthAdjust="spacing" textLength="157.2759" x="1477.03" y="971.8127">config-file wrapper type.</text></g><!--link Os to OsType--><g class="link" data-entity-1="ent0009" data-entity-2="ent0004" data-link-type="dependency" data-source-line="101" id="lnk10"><path codeLine="101" d="M686.04,711.2883 C676.2,759.5383 667.6188,801.5493 660.9588,834.2093" fill="none" id="Os-to-OsType" style="stroke:#9B2C2C;stroke-width:1;stroke-dasharray:7,7;"/><polygon fill="#9B2C2C" points="659.76,840.0883,665.4776,832.069,660.759,835.1891,657.6389,830.4705,659.76,840.0883" style="stroke:#9B2C2C;stroke-width:1;"/><text fill="#374151" font-family="'Casual'" font-size="13" lengthAdjust="spacing" textLength="23.53" x="679.32" y="752.2283">uses</text></g><!--link Os to EscapeMode--><g class="link" data-entity-1="ent0009" data-entity-2="ent0003" data-link-type="dependency" data-source-line="102" id="lnk11"><path codeLine="102" d="M615.12,711.2883 C587.81,756.5283 563.811,796.3017 544.281,828.6517" fill="none" id="Os-to-EscapeMode" style="stroke:#9B2C2C;stroke-width:1;stroke-dasharray:7,7;"/><polygon fill="#9B2C2C" points="541.18,833.7883,549.2558,828.1508,543.7641,829.5078,542.4071,824.0162,541.18,833.7883" style="stroke:#9B2C2C;stroke-width:1;"/><text fill="#374151" font-family="'Casual'" font-size="13" lengthAdjust="spacing" textLength="23.53" x="593.29" y="752.2283">uses</text></g><!--link Os to RaiPath--><g class="link" data-entity-1="ent0009" data-entity-2="ent0007" data-link-type="dependency" data-source-line="103" id="lnk12"><path codeLine="103" d="M400.21,697.7983 C391.14,702.2083 382.15,706.5683 373.27,710.8283 C344.23,724.7883 324.71,713.7383 307.27,740.8283 C290.92,766.2283 289.5369,793.9523 293.3269,822.0123" fill="none" id="Os-to-RaiPath" style="stroke:#9B2C2C;stroke-width:1;stroke-dasharray:7,7;"/><polygon fill="#9B2C2C" points="294.13,827.9583,296.8893,818.5039,293.4607,823.0033,288.9613,819.5747,294.13,827.9583" style="stroke:#9B2C2C;stroke-width:1;"/><text fill="#374151" font-family="'Casual'" font-size="13" lengthAdjust="spacing" textLength="85.514" x="308.27" y="752.2283">path contracts</text></g><!--link RaiPath to Os--><g class="link" data-entity-1="ent0007" data-entity-2="ent0009" data-link-type="dependency" data-source-line="108" id="lnk17"><path codeLine="108" d="M370.6,827.6983 C401.5,801.4183 439.26,769.3983 473.27,740.8283 C484.79,731.1583 492.0086,725.0988 503.9586,715.0988" fill="none" id="RaiPath-to-Os" style="stroke:#9B2C2C;stroke-width:1;stroke-dasharray:7,7;"/><polygon fill="#9B2C2C" points="508.56,711.2483,499.0908,713.9565,504.7255,714.4571,504.2249,720.0917,508.56,711.2483" style="stroke:#9B2C2C;stroke-width:1;"/><text fill="#374151" font-family="'Casual'" font-size="13" lengthAdjust="spacing" textLength="109.46" x="474.27" y="752.2283">path normalization</text></g><!--link Os to RaiFile--><g class="link" data-entity-1="ent0009" data-entity-2="ent0008" data-link-type="dependency" data-source-line="104" id="lnk13"><path codeLine="104" d="M970.25,711.2883 C1033.44,756.5283 1091.2912,797.9457 1136.4812,830.2957" fill="none" id="Os-to-RaiFile" style="stroke:#9B2C2C;stroke-width:1;stroke-dasharray:7,7;"/><polygon fill="#9B2C2C" points="1141.36,833.7883,1136.3702,825.297,1137.2944,830.8778,1131.7135,831.802,1141.36,833.7883" style="stroke:#9B2C2C;stroke-width:1;"/><text fill="#374151" font-family="'Casual'" font-size="13" lengthAdjust="spacing" textLength="122.707" x="1024.09" y="752.2283">config file resolution</text></g><!--link Os to IStartupDiagnosticSink--><g class="link" data-entity-1="ent0009" data-entity-2="ent0005" data-link-type="dependency" data-source-line="105" id="lnk14"><path codeLine="105" d="M780.95,711.2883 C799,765.9083 815.017,814.3614 825.637,846.4914" fill="none" id="Os-to-IStartupDiagnosticSink" style="stroke:#9B2C2C;stroke-width:1;stroke-dasharray:7,7;"/><polygon fill="#9B2C2C" points="827.52,852.1883,828.4934,842.3876,825.9508,847.4409,820.8976,844.8983,827.52,852.1883" style="stroke:#9B2C2C;stroke-width:1;"/><text fill="#374151" font-family="'Casual'" font-size="13" lengthAdjust="spacing" textLength="91.559" x="794.45" y="752.2283">diagnostics sink</text></g><!--link CloudPathWiring to Os--><g class="link" data-entity-1="ent0006" data-entity-2="ent0009" data-link-type="dependency" data-source-line="106" id="lnk15"><path codeLine="106" d="M424.24,192.6283 C455.77,228.5083 507.6195,287.5012 562.4695,349.9212" fill="none" id="CloudPathWiring-to-Os" style="stroke:#9B2C2C;stroke-width:1;stroke-dasharray:7,7;"/><polygon fill="#9B2C2C" points="566.43,354.4283,563.494,345.0272,563.1296,350.6723,557.4845,350.3079,566.43,354.4283" style="stroke:#9B2C2C;stroke-width:1;"/><text fill="#374151" font-family="'Casual'" font-size="13" lengthAdjust="spacing" textLength="98.423" x="532.25" y="321.0783">boot-state check</text></g><!--link CloudPathWiring to RaiPath--><g class="link" data-entity-1="ent0006" data-entity-2="ent0007" data-link-type="dependency" data-source-line="107" id="lnk16"><path codeLine="107" d="M373.09,192.4583 C344.38,228.0783 299.1,291.2683 281.27,354.6783 C234.22,522.0083 269.8545,724.9811 292.1445,821.8511" fill="none" id="CloudPathWiring-to-RaiPath" style="stroke:#9B2C2C;stroke-width:1;stroke-dasharray:7,7;"/><polygon fill="#9B2C2C" points="293.49,827.6983,295.37,818.0305,292.3688,822.8256,287.5737,819.8244,293.49,827.6983" style="stroke:#9B2C2C;stroke-width:1;"/><text fill="#374151" font-family="'Casual'" font-size="13" lengthAdjust="spacing" textLength="100.672" x="282.27" y="536.6583">assigns evaluator</text></g><!--link Os to GMN19--><g class="link" data-entity-1="ent0009" data-entity-2="ent0020" data-link-type="association" data-source-line="131" id="lnk21"><path d="M1044.3,617.3183 C1175.48,658.3083 1325.72,714.4283 1452.27,785.8283 C1458.5,789.3483 1464.71,793.2083 1470.85,797.3083" fill="none" id="Os-GMN19" style="stroke:#9B2C2C;stroke-width:1;stroke-dasharray:7,7;"/></g><?plantuml-src XLRTRjfA4Bx6Jx4Y5mTKGY64q2BA4IL4HI8bWbIvxTeUmvwONMjt7Kghzkv8vxfzbpvGd-JCsYOiZftSW3tVvvdP-Ts_o092e0hwfDFiDNkEevaEWSpLZBduIyOXLOfSChgITECuwfxnYE8ZSQbtlv8YvlvOX4AIxPffi72rfhxOChuY0GsLZMJAhWJN7-a6I7LCLKp3QZ5boRu2wLnOOEBISry_4ag-7MajcHjhc7g29vnsgvJpQ2YryomlZSH9gzlflkayoxm3jbfhmeNSlA0pzUyipxa6lHR-Yr4uq5xKaxdKRJqVYwNUONqKE_vUI1_aFWf1x-82db1oPNFYUO4Rj8kobn7QxVQRivv5cF1uSsJ9FUzsMc_pZBoX08AEbzTZsUbvP_vHV3uA3K-r147FlyYpR6_ySxVTiXaZASKs0z-wPzwPbmSjBpgzytQtNKGuphEZrc9BF2Qz41mdGZVf2k6aRwlacrC1F1sf3XIclTz-CvmeZqPmBNmOl3QoOPLGHGvICXYGsgHn4dJVGikja-7GAAbmWHJyTqFAxzF7nArCYcOLfciDlbFvxZmnEbUtk-Z8O2efCNR7E8uCXK_Nr9ilyV-J6tCTfxePro03we5bOBhKLEeuClE22wMPjsJytZPOp4ZClRgJEB8c65zPsu1I9e1zeh3M-QgEJm-2PSVoaY5uC3iEHUpVKBs-OuPisyj1gQ5lIbEq_9rCETECXiYkFMzXGPbHOclEH3cDYRt90mrZgh5--kGgvjuWFKI3k4A4GyDFQ8WQWNdFbDNKuud9Er9jLkisAFGQZChi_GWBKlaL2w5UUWI3vevWHEaHifTQW3_SrFPZx6qqEjXla2CQEipZC6mG-ABpmlfHZ2uXe76ebplktKWHqHMA1R-4aEwkJG2miWpVzBfFDOmb98HRje5Qh3raNABOl3P8LABWxxtbyhIUdMD3PE4WVtxzz-VNlrbFv79wELqy7YWFB2StayNeTbx2c2p7evl9-CEeJCFeTd8rNroFRelnf3lxMPiUbwxAsjEg8WjCEhOO-iJPbncxXs9qndXS2dzI83-83LmogmwF6ACeMWYXomcti8dAqPdmQ6WI7pz36WiUi1M2_Wuha7cv4wJmJ50V_A93PEMNqanH6wEcWEmKd9uMc8mb7EQMgeLYjG9vHJtiz1r-F9tPWWOgAnfr_R8Pc2zOo_mDbGhsHLypJQ7nOSeBogTkjSSy21Jeuu9CDemrPnfaOzPDtzezzU9Q_8XtZ6JMH6RisVPAo4k8G9enQ9aheyDskHPIJ_qQJfzLeX-x66DoNl95wkwDMNwrT3E_O2BzuBrPdBNZ-LRCn_QQcXN7QLWBC36bttntSBJWq6WsX_jzsYUn0hKNMblz6DYla3v9GegtNosnU6mycSzz0vcIDxEPI50YZ4t1xdab1OKDSgXMeb3avDTXwdFQ9VhK71s8jmQlc7dm5ySeMt55OB_fd3tsg34vKdelPL-J_dASRFxEO0NSppPJQsXcxy_VE7xjtPHobdGJfGlga9ZqFxqeMslxD4SmgmMatbcPUlVEgVmOiA6v8nBizzIT3PNt8D7bmMk6ozbsAtCeqMSZFtzdYAkIZ3aLz1vJW7S99naTfxYOs0D6yuf1w5ikl29Hx8RCoyjFp2RJu6dmyz0Fmh8wp2D7bfu4P6_g2M3PUe8TZEKXB79kukOAhSM6Y03Jx5GmrKmHciKSavu58Gsj9pQHK3Y60oasVUFiN3KzbJsaG_NmRitMJ9WhmaGwZgK470rPIvZf5Q8FJYNR1gJsUJ6QtWD4pN-KuDtFUFdOCgp5a7xTaH3NWYbdodr2dSg-Qb47h4pn1qp2bePu0fnSvhgbrvJZ-N2NCDmIvcAT6ZvDUd4hQHGP5dPzqy629IP6ply0?></g></svg>