<svg xmlns="http://www.w3.org/2000/svg" xmlns:xlink="http://www.w3.org/1999/xlink" contentStyleType="text/css" data-diagram-type="CLASS" height="1090px" preserveAspectRatio="none" style="width:1710px;height:1090px;background:#FFFFFF;" version="1.1" viewBox="0 0 1710 1090" width="1710px" zoomAndPan="magnify"><?plantuml 1.2026.6?><defs/><g><g class="title" data-source-line="3"><text fill="#000000" font-family="sans-serif" font-size="14" font-weight="700" lengthAdjust="spacing" textLength="174.5762" x="764.3737" y="23.5352">OsLib Os Class Diagram</text></g><!--cluster OsLib--><g class="cluster" data-qualified-name="OsLib" data-source-line="34" id="ent0001"><path d="M197.28,109.3583 L239.6921,109.3583 A3.75,3.75 0 0 1 242.1921,111.8583 L249.1921,131.8466 L1475.28,131.8466 A2.5,2.5 0 0 1 1477.78,134.3466 L1477.78,1065.8983 A2.5,2.5 0 0 1 1475.28,1068.3983 L197.28,1068.3983 A2.5,2.5 0 0 1 194.78,1065.8983 L194.78,111.8583 A2.5,2.5 0 0 1 197.28,109.3583" fill="none" style="stroke:#000000;stroke-width:1.5;"/><line style="stroke:#000000;stroke-width:1.5;" x1="194.78" x2="249.1921" y1="131.8466" y2="131.8466"/><text fill="#000000" font-family="sans-serif" font-size="14" font-weight="700" lengthAdjust="spacing" textLength="41.4121" x="198.78" y="124.8934">OsLib</text></g><!--class EscapeMode--><g class="entity" data-qualified-name="OsLib.EscapeMode" data-source-line="35" id="ent0002"><rect fill="#CCFBF1" height="104.5313" rx="2.5" ry="2.5" style="stroke:#0F766E;stroke-width:0.5;" width="139.3672" x="408.1" y="926.6683"/><ellipse cx="423.1" cy="942.6683" fill="#F59E0B" rx="11" ry="11" style="stroke:#181818;stroke-width:1;"/><path d="M426.7143,949.1683 L418.9945,949.1683 L418.9945,936.7752 L426.7143,936.7752 L426.7143,938.9334 L421.4433,938.9334 L421.4433,941.6063 L426.2162,941.6063 L426.2162,943.7645 L421.4433,943.7645 L421.4433,947.0101 L426.7143,947.0101 Z " fill="#000000"/><text fill="#111827" font-family="Casual" font-size="18" lengthAdjust="spacing" textLength="107.3672" x="437.1" y="949.471">EscapeMode</text><line style="stroke:#0F766E;stroke-width:0.5;" x1="409.1" x2="546.4672" y1="958.6683" y2="958.6683"/><text fill="#053583" font-family="Casual" font-size="12" lengthAdjust="spacing" textLength="33.5859" x="414.1" y="974.2698">noEsc</text><text fill="#053583" font-family="Casual" font-size="12" lengthAdjust="spacing" textLength="50.877" x="414.1" y="988.4027">blankEsc</text><text fill="#053583" font-family="Casual" font-size="12" lengthAdjust="spacing" textLength="55.6875" x="414.1" y="1002.5355">paramEsc</text><text fill="#053583" font-family="Casual" font-size="12" lengthAdjust="spacing" textLength="71.3555" x="414.1" y="1016.6683">backslashed</text><line style="stroke:#0F766E;stroke-width:0.5;" x1="409.1" x2="546.4672" y1="1023.1995" y2="1023.1995"/></g><!--class OsType--><g class="entity" data-qualified-name="OsLib.OsType" data-source-line="42" id="ent0003"><rect fill="#CCFBF1" height="90.3984" rx="2.5" ry="2.5" style="stroke:#0F766E;stroke-width:0.5;" width="97.3027" x="582.13" y="933.7383"/><ellipse cx="597.13" cy="949.7383" fill="#F59E0B" rx="11" ry="11" style="stroke:#181818;stroke-width:1;"/><path d="M600.7443,956.2383 L593.0245,956.2383 L593.0245,943.8452 L600.7443,943.8452 L600.7443,946.0034 L595.4733,946.0034 L595.4733,948.6763 L600.2462,948.6763 L600.2462,950.8345 L595.4733,950.8345 L595.4733,954.0801 L600.7443,954.0801 Z " fill="#000000"/><text fill="#111827" font-family="Casual" font-size="18" lengthAdjust="spacing" textLength="65.3027" x="611.13" y="956.541">OsType</text><line style="stroke:#0F766E;stroke-width:0.5;" x1="583.13" x2="678.4327" y1="965.7383" y2="965.7383"/><text fill="#053583" font-family="Casual" font-size="12" lengthAdjust="spacing" textLength="51.4688" x="588.13" y="981.3398">Windows</text><text fill="#053583" font-family="Casual" font-size="12" lengthAdjust="spacing" textLength="38.8945" x="588.13" y="995.4727">MacOS</text><text fill="#053583" font-family="Casual" font-size="12" lengthAdjust="spacing" textLength="42.6973" x="588.13" y="1009.6055">Ubuntu</text><line style="stroke:#0F766E;stroke-width:0.5;" x1="583.13" x2="678.4327" y1="1016.1367" y2="1016.1367"/></g><!--class IStartupDiagnosticSink--><g class="entity" data-qualified-name="OsLib.IStartupDiagnosticSink" data-source-line="48" id="ent0004"><rect fill="#CCFBF1" height="62.1328" rx="2.5" ry="2.5" style="stroke:#0F766E;stroke-width:0.5;" width="229.1475" x="714.21" y="947.8683"/><ellipse cx="729.21" cy="963.8683" fill="#B4A7E5" rx="11" ry="11" style="stroke:#181818;stroke-width:1;"/><path d="M725.6377,960.1334 L725.6377,957.9752 L733.0171,957.9752 L733.0171,960.1334 L730.5518,960.1334 L730.5518,968.2101 L733.0171,968.2101 L733.0171,970.3683 L725.6377,970.3683 L725.6377,968.2101 L728.1031,968.2101 L728.1031,960.1334 Z " fill="#000000"/><text fill="#111827" font-family="Casual" font-size="18" font-style="italic" lengthAdjust="spacing" textLength="197.1475" x="743.21" y="970.671">IStartupDiagnosticSink</text><line style="stroke:#0F766E;stroke-width:0.5;" x1="715.21" x2="942.3575" y1="979.8683" y2="979.8683"/><line style="stroke:#0F766E;stroke-width:0.5;" x1="715.21" x2="942.3575" y1="987.8683" y2="987.8683"/><g data-visibility-modifier="PUBLIC_METHOD"><ellipse cx="725.21" cy="1000.4347" fill="#84BE84" rx="3" ry="3" style="stroke:#038048;stroke-width:1;"/></g><text fill="#053583" font-family="Casual" font-size="12" lengthAdjust="spacing" textLength="198.4453" x="734.21" y="1003.4698">WriteError(message : string) : void</text></g><!--class CloudPathWiring--><g class="entity" data-qualified-name="OsLib.CloudPathWiring" data-source-line="52" id="ent0005"><rect fill="#CCFBF1" height="62.1328" rx="2.5" ry="2.5" style="stroke:#0F766E;stroke-width:0.5;" width="176.5713" x="342.49" y="144.3583"/><ellipse cx="357.49" cy="160.3583" fill="#ADD1B2" rx="11" ry="11" style="stroke:#181818;stroke-width:1;"/><path d="M359.9631,166.5013 Q359.3821,166.8002 358.7429,166.9496 Q358.1038,167.099 357.3982,167.099 Q354.8914,167.099 353.5715,165.4471 Q352.2517,163.7953 352.2517,160.6742 Q352.2517,157.5448 353.5715,155.8929 Q354.8914,154.2411 357.3982,154.2411 Q358.1038,154.2411 358.7512,154.3905 Q359.3987,154.5399 359.9631,154.8388 L359.9631,157.5614 Q359.3323,156.9804 358.7388,156.7106 Q358.1453,156.4408 357.5144,156.4408 Q356.1697,156.4408 355.4849,157.5075 Q354.8001,158.5741 354.8001,160.6742 Q354.8001,162.766 355.4849,163.8326 Q356.1697,164.8993 357.5144,164.8993 Q358.1453,164.8993 358.7388,164.6295 Q359.3323,164.3597 359.9631,163.7787 Z " fill="#000000"/><text fill="#111827" font-family="Casual" font-size="18" lengthAdjust="spacing" textLength="144.5713" x="371.49" y="167.161">CloudPathWiring</text><line style="stroke:#0F766E;stroke-width:0.5;" x1="343.49" x2="518.0613" y1="176.3583" y2="176.3583"/><line style="stroke:#0F766E;stroke-width:0.5;" x1="343.49" x2="518.0613" y1="184.3583" y2="184.3583"/><g data-visibility-modifier="PUBLIC_METHOD"><ellipse cx="353.49" cy="196.9247" fill="#84BE84" rx="3" ry="3" style="stroke:#038048;stroke-width:1;"/></g><text fill="#053583" font-family="Casual" font-size="12" lengthAdjust="spacing" text-decoration="underline" textLength="93.2578" x="362.49" y="199.9598">Initialize() : void</text></g><!--class RaiPath--><g class="entity" data-qualified-name="OsLib.RaiPath" data-source-line="56" id="ent0006"><rect fill="#CCFBF1" height="104.5313" rx="2.5" ry="2.5" style="stroke:#0F766E;stroke-width:0.5;" width="161.8555" x="210.85" y="926.6683"/><ellipse cx="255.3686" cy="942.6683" fill="#ADD1B2" rx="11" ry="11" style="stroke:#181818;stroke-width:1;"/><path d="M257.8417,948.8113 Q257.2606,949.1102 256.6215,949.2596 Q255.9823,949.409 255.2768,949.409 Q252.7699,949.409 251.4501,947.7571 Q250.1303,946.1053 250.1303,942.9842 Q250.1303,939.8548 251.4501,938.2029 Q252.7699,936.5511 255.2768,936.5511 Q255.9823,936.5511 256.6298,936.7005 Q257.2772,936.8499 257.8417,937.1488 L257.8417,939.8714 Q257.2108,939.2904 256.6173,939.0206 Q256.0238,938.7508 255.393,938.7508 Q254.0482,938.7508 253.3634,939.8175 Q252.6786,940.8841 252.6786,942.9842 Q252.6786,945.076 253.3634,946.1426 Q254.0482,947.2093 255.393,947.2093 Q256.0238,947.2093 256.6173,946.9395 Q257.2108,946.6697 257.8417,946.0887 Z " fill="#000000"/><text fill="#111827" font-family="Casual" font-size="18" lengthAdjust="spacing" textLength="64.3184" x="275.8686" y="949.471">RaiPath</text><line style="stroke:#0F766E;stroke-width:0.5;" x1="211.85" x2="371.7055" y1="958.6683" y2="958.6683"/><g data-visibility-modifier="PUBLIC_FIELD"><ellipse cx="221.85" cy="971.2347" fill="none" rx="3" ry="3" style="stroke:#038048;stroke-width:1;"/></g><text fill="#053583" font-family="Casual" font-size="12" lengthAdjust="spacing" textLength="71.2969" x="230.85" y="974.2698">Cloud : bool</text><line style="stroke:#0F766E;stroke-width:0.5;" x1="211.85" x2="371.7055" y1="980.8011" y2="980.8011"/><g data-visibility-modifier="PUBLIC_METHOD"><ellipse cx="221.85" cy="993.3675" fill="#84BE84" rx="3" ry="3" style="stroke:#038048;stroke-width:1;"/></g><text fill="#053583" font-family="Casual" font-size="12" lengthAdjust="spacing" textLength="132" x="230.85" y="996.4027">RaiPath(s : string = ".")</text><g data-visibility-modifier="PUBLIC_METHOD"><ellipse cx="221.85" cy="1007.5003" fill="#84BE84" rx="3" ry="3" style="stroke:#038048;stroke-width:1;"/></g><text fill="#053583" font-family="Casual" font-size="12" lengthAdjust="spacing" textLength="135.8555" x="230.85" y="1010.5355">RaiPath(other : RaiPath)</text><g data-visibility-modifier="PUBLIC_METHOD"><ellipse cx="221.85" cy="1021.6331" fill="#84BE84" rx="3" ry="3" style="stroke:#038048;stroke-width:1;"/></g><text fill="#053583" font-family="Casual" font-size="12" lengthAdjust="spacing" textLength="104.2266" x="230.85" y="1024.6683">RaiPath(f : RaiFile)</text></g><!--class RaiFile--><g class="entity" data-qualified-name="OsLib.RaiFile" data-source-line="63" id="ent0007"><rect fill="#CCFBF1" height="146.9297" rx="2.5" ry="2.5" style="stroke:#0F766E;stroke-width:0.5;" width="483.1016" x="978.23" y="905.4683"/><ellipse cx="1187.2256" cy="921.4683" fill="#ADD1B2" rx="11" ry="11" style="stroke:#181818;stroke-width:1;"/><path d="M1189.6988,927.6113 Q1189.1177,927.9102 1188.4785,928.0596 Q1187.8394,928.209 1187.1338,928.209 Q1184.627,928.209 1183.3071,926.5571 Q1181.9873,924.9053 1181.9873,921.7842 Q1181.9873,918.6548 1183.3071,917.0029 Q1184.627,915.3511 1187.1338,915.3511 Q1187.8394,915.3511 1188.4868,915.5005 Q1189.1343,915.6499 1189.6988,915.9488 L1189.6988,918.6714 Q1189.0679,918.0904 1188.4744,917.8206 Q1187.8809,917.5508 1187.25,917.5508 Q1185.9053,917.5508 1185.2205,918.6175 Q1184.5357,919.6841 1184.5357,921.7842 Q1184.5357,923.876 1185.2205,924.9426 Q1185.9053,926.0093 1187.25,926.0093 Q1187.8809,926.0093 1188.4744,925.7395 Q1189.0679,925.4697 1189.6988,924.8887 Z " fill="#000000"/><text fill="#111827" font-family="Casual" font-size="18" lengthAdjust="spacing" textLength="56.6104" x="1207.7256" y="928.271">RaiFile</text><line style="stroke:#0F766E;stroke-width:0.5;" x1="979.23" x2="1460.3316" y1="937.4683" y2="937.4683"/><g data-visibility-modifier="PUBLIC_FIELD"><ellipse cx="989.23" cy="950.0347" fill="none" rx="3" ry="3" style="stroke:#038048;stroke-width:1;"/></g><text fill="#053583" font-family="Casual" font-size="12" lengthAdjust="spacing" text-decoration="underline" textLength="213.709" x="998.23" y="953.0698">DefaultSyncPropagationDelayMs : int</text><line style="stroke:#0F766E;stroke-width:0.5;" x1="979.23" x2="1460.3316" y1="959.6011" y2="959.6011"/><g data-visibility-modifier="PUBLIC_METHOD"><ellipse cx="989.23" cy="972.1675" fill="#84BE84" rx="3" ry="3" style="stroke:#038048;stroke-width:1;"/></g><text fill="#053583" font-family="Casual" font-size="12" lengthAdjust="spacing" textLength="140.8477" x="998.23" y="975.2027">RaiFile(filename : string)</text><g data-visibility-modifier="PUBLIC_METHOD"><ellipse cx="989.23" cy="986.3003" fill="#84BE84" rx="3" ry="3" style="stroke:#038048;stroke-width:1;"/></g><text fill="#053583" font-family="Casual" font-size="12" lengthAdjust="spacing" textLength="341.5898" x="998.23" y="989.3355">RaiFile(p : RaiPath, name : string = null, ext : string = null)</text><g data-visibility-modifier="PUBLIC_METHOD"><ellipse cx="989.23" cy="1000.4331" fill="#84BE84" rx="3" ry="3" style="stroke:#038048;stroke-width:1;"/></g><text fill="#053583" font-family="Casual" font-size="12" lengthAdjust="spacing" textLength="144.4453" x="998.23" y="1003.4683">{virtual} mkdir() : RaiPath</text><g data-visibility-modifier="PUBLIC_METHOD"><ellipse cx="989.23" cy="1014.5659" fill="#84BE84" rx="3" ry="3" style="stroke:#038048;stroke-width:1;"/></g><text fill="#053583" font-family="Casual" font-size="12" lengthAdjust="spacing" textLength="426.0703" x="998.23" y="1017.6011">WriteFromAsync(source : Stream, ct : CancellationToken = default) : Task</text><g data-visibility-modifier="PUBLIC_METHOD"><ellipse cx="989.23" cy="1028.6988" fill="#84BE84" rx="3" ry="3" style="stroke:#038048;stroke-width:1;"/></g><text fill="#053583" font-family="Casual" font-size="12" lengthAdjust="spacing" textLength="394.3066" x="998.23" y="1031.7339">ReadAllBytesAsync(ct : CancellationToken = default) : Task&lt;byte[]&gt;</text><g data-visibility-modifier="PUBLIC_METHOD"><ellipse cx="989.23" cy="1042.8316" fill="#84BE84" rx="3" ry="3" style="stroke:#038048;stroke-width:1;"/></g><text fill="#053583" font-family="Casual" font-size="12" lengthAdjust="spacing" textLength="457.1016" x="998.23" y="1045.8667">BackdateCreationTime(utc : DateTime, propagationDelayMs : int? = null) : void</text></g><!--class Os--><g class="entity" data-qualified-name="OsLib.Os" data-source-line="73" id="ent0008"><rect fill="#CCFBF1" height="421.7188" rx="2.5" ry="2.5" style="stroke:#0F766E;stroke-width:0.5;" width="689.1289" x="458.22" y="383.3483"/><ellipse cx="770.0638" cy="402.4811" fill="#ADD1B2" rx="11" ry="11" style="stroke:#181818;stroke-width:1;"/><path d="M772.5369,408.6242 Q771.9558,408.923 771.3167,409.0724 Q770.6775,409.2218 769.972,409.2218 Q767.4651,409.2218 766.1453,407.57 Q764.8255,405.9181 764.8255,402.797 Q764.8255,399.6676 766.1453,398.0158 Q767.4651,396.3639 769.972,396.3639 Q770.6775,396.3639 771.325,396.5133 Q771.9724,396.6627 772.5369,396.9616 L772.5369,399.6842 Q771.906,399.1032 771.3125,398.8334 Q770.719,398.5636 770.0882,398.5636 Q768.7434,398.5636 768.0586,399.6303 Q767.3738,400.6969 767.3738,402.797 Q767.3738,404.8888 768.0586,405.9555 Q768.7434,407.0221 770.0882,407.0221 Q770.719,407.0221 771.3125,406.7523 Q771.906,406.4826 772.5369,405.9015 Z " fill="#000000"/><text fill="#111827" font-family="Casual" font-size="24" lengthAdjust="spacing" textLength="30.8789" x="790.5638" y="411.5514">Os</text><text fill="#111827" font-family="Casual" font-size="12" lengthAdjust="spacing" textLength="22.2656" x="825.2395" y="414.0827">&#9416;&#9413;</text><line style="stroke:#0F766E;stroke-width:0.5;" x1="459.22" x2="1146.3489" y1="421.6139" y2="421.6139"/><g data-visibility-modifier="PUBLIC_FIELD"><ellipse cx="469.22" cy="434.1803" fill="none" rx="3" ry="3" style="stroke:#038048;stroke-width:1;"/></g><text fill="#053583" font-family="Casual" font-size="12" lengthAdjust="spacing" text-decoration="underline" textLength="65.3379" x="478.22" y="437.2155">DIR : string</text><g data-visibility-modifier="PUBLIC_FIELD"><ellipse cx="469.22" cy="448.3131" fill="none" rx="3" ry="3" style="stroke:#038048;stroke-width:1;"/></g><text fill="#053583" font-family="Casual" font-size="12" lengthAdjust="spacing" text-decoration="underline" textLength="131.8066" x="478.22" y="451.3483">DIRSEPERATOR : string</text><g data-visibility-modifier="PUBLIC_FIELD"><ellipse cx="469.22" cy="462.4459" fill="none" rx="3" ry="3" style="stroke:#038048;stroke-width:1;"/></g><text fill="#053583" font-family="Casual" font-size="12" lengthAdjust="spacing" text-decoration="underline" textLength="120.9785" x="478.22" y="465.4811">ESCAPECHAR : string</text><g data-visibility-modifier="PUBLIC_FIELD"><ellipse cx="469.22" cy="476.5788" fill="none" rx="3" ry="3" style="stroke:#038048;stroke-width:1;"/></g><text fill="#053583" font-family="Casual" font-size="12" lengthAdjust="spacing" text-decoration="underline" textLength="126.2109" x="478.22" y="479.6139">DATEFORMAT : string</text><g data-visibility-modifier="PUBLIC_FIELD"><ellipse cx="469.22" cy="490.7116" fill="none" rx="3" ry="3" style="stroke:#038048;stroke-width:1;"/></g><text fill="#053583" font-family="Casual" font-size="12" lengthAdjust="spacing" text-decoration="underline" textLength="83.0215" x="478.22" y="493.7467">Type : OsType</text><g data-visibility-modifier="PUBLIC_FIELD"><ellipse cx="469.22" cy="504.8444" fill="none" rx="3" ry="3" style="stroke:#038048;stroke-width:1;"/></g><text fill="#053583" font-family="Casual" font-size="12" lengthAdjust="spacing" text-decoration="underline" textLength="98.1973" x="478.22" y="507.8795">IsWindows : bool</text><g data-visibility-modifier="PUBLIC_FIELD"><ellipse cx="469.22" cy="518.9772" fill="none" rx="3" ry="3" style="stroke:#038048;stroke-width:1;"/></g><text fill="#053583" font-family="Casual" font-size="12" lengthAdjust="spacing" text-decoration="underline" textLength="85.623" x="478.22" y="522.0123">IsMacOS : bool</text><g data-visibility-modifier="PUBLIC_FIELD"><ellipse cx="469.22" cy="533.11" fill="none" rx="3" ry="3" style="stroke:#038048;stroke-width:1;"/></g><text fill="#053583" font-family="Casual" font-size="12" lengthAdjust="spacing" text-decoration="underline" textLength="96.8848" x="478.22" y="536.1452">IsUnixLike : bool</text><g data-visibility-modifier="PUBLIC_FIELD"><ellipse cx="469.22" cy="547.2428" fill="none" rx="3" ry="3" style="stroke:#038048;stroke-width:1;"/></g><text fill="#053583" font-family="Casual" font-size="12" lengthAdjust="spacing" text-decoration="underline" textLength="102.416" x="478.22" y="550.278">IsLinuxLike : bool</text><g data-visibility-modifier="PUBLIC_FIELD"><ellipse cx="469.22" cy="561.3756" fill="none" rx="3" ry="3" style="stroke:#038048;stroke-width:1;"/></g><text fill="#053583" font-family="Casual" font-size="12" lengthAdjust="spacing" text-decoration="underline" textLength="131.7422" x="478.22" y="564.4108">UserHomeDir : RaiPath</text><g data-visibility-modifier="PUBLIC_FIELD"><ellipse cx="469.22" cy="575.5084" fill="none" rx="3" ry="3" style="stroke:#038048;stroke-width:1;"/></g><text fill="#053583" font-family="Casual" font-size="12" lengthAdjust="spacing" text-decoration="underline" textLength="121.8398" x="478.22" y="578.5436">AppRootDir : RaiPath</text><g data-visibility-modifier="PUBLIC_FIELD"><ellipse cx="469.22" cy="589.6413" fill="none" rx="3" ry="3" style="stroke:#038048;stroke-width:1;"/></g><text fill="#053583" font-family="Casual" font-size="12" lengthAdjust="spacing" text-decoration="underline" textLength="104.666" x="478.22" y="592.6764">TempDir : RaiPath</text><g data-visibility-modifier="PUBLIC_FIELD"><ellipse cx="469.22" cy="603.7741" fill="none" rx="3" ry="3" style="stroke:#038048;stroke-width:1;"/></g><text fill="#053583" font-family="Casual" font-size="12" lengthAdjust="spacing" text-decoration="underline" textLength="143.3379" x="478.22" y="606.8092">LocalBackupDir : RaiPath</text><g data-visibility-modifier="PUBLIC_FIELD"><ellipse cx="469.22" cy="617.9069" fill="none" rx="3" ry="3" style="stroke:#038048;stroke-width:1;"/></g><text fill="#053583" font-family="Casual" font-size="12" lengthAdjust="spacing" text-decoration="underline" textLength="98.5898" x="478.22" y="620.942">Config : dynamic</text><g data-visibility-modifier="PUBLIC_FIELD"><ellipse cx="469.22" cy="632.0397" fill="none" rx="3" ry="3" style="stroke:#038048;stroke-width:1;"/></g><text fill="#053583" font-family="Casual" font-size="12" lengthAdjust="spacing" text-decoration="underline" textLength="127.4004" x="478.22" y="635.0748">IsConfigLoaded : bool</text><g data-visibility-modifier="PUBLIC_FIELD"><ellipse cx="469.22" cy="646.1725" fill="none" rx="3" ry="3" style="stroke:#038048;stroke-width:1;"/></g><text fill="#053583" font-family="Casual" font-size="12" lengthAdjust="spacing" text-decoration="underline" textLength="158.0449" x="478.22" y="649.2077">ConfigFileFullName : string</text><g data-visibility-modifier="PUBLIC_FIELD"><ellipse cx="469.22" cy="660.3053" fill="none" rx="3" ry="3" style="stroke:#038048;stroke-width:1;"/></g><text fill="#053583" font-family="Casual" font-size="12" lengthAdjust="spacing" text-decoration="underline" textLength="195.2813" x="478.22" y="663.3405">DefaultConfigFileLocation : string</text><line style="stroke:#0F766E;stroke-width:1;" x1="459.22" x2="1146.3489" y1="669.8717" y2="669.8717"/><g data-visibility-modifier="PUBLIC_METHOD"><ellipse cx="469.22" cy="682.4381" fill="#84BE84" rx="3" ry="3" style="stroke:#038048;stroke-width:1;"/></g><text fill="#053583" font-family="Casual" font-size="12" lengthAdjust="spacing" text-decoration="underline" textLength="663.1289" x="478.22" y="685.4733">ConfigureDiagnostics(loggerFactory : ILoggerFactory, startupDiagnosticSink : IStartupDiagnosticSink = null) : void</text><g data-visibility-modifier="PUBLIC_METHOD"><ellipse cx="469.22" cy="696.5709" fill="#84BE84" rx="3" ry="3" style="stroke:#038048;stroke-width:1;"/></g><text fill="#053583" font-family="Casual" font-size="12" lengthAdjust="spacing" text-decoration="underline" textLength="385.3887" x="478.22" y="699.6061">ParseDateTime(datetimeInDATEFORMAT : string) : DateTimeOffset</text><g data-visibility-modifier="PUBLIC_METHOD"><ellipse cx="469.22" cy="710.7038" fill="#84BE84" rx="3" ry="3" style="stroke:#038048;stroke-width:1;"/></g><text fill="#053583" font-family="Casual" font-size="12" lengthAdjust="spacing" text-decoration="underline" textLength="267.5391" x="478.22" y="713.7389">Escape(s : string, mode : EscapeMode) : string</text><g data-visibility-modifier="PUBLIC_METHOD"><ellipse cx="469.22" cy="724.8366" fill="#84BE84" rx="3" ry="3" style="stroke:#038048;stroke-width:1;"/></g><text fill="#053583" font-family="Casual" font-size="12" lengthAdjust="spacing" text-decoration="underline" textLength="182.0742" x="478.22" y="727.8717">NormPath(path : string) : string</text><g data-visibility-modifier="PUBLIC_METHOD"><ellipse cx="469.22" cy="738.9694" fill="#84BE84" rx="3" ry="3" style="stroke:#038048;stroke-width:1;"/></g><text fill="#053583" font-family="Casual" font-size="12" lengthAdjust="spacing" text-decoration="underline" textLength="192.5742" x="478.22" y="742.0045">NormSeperator(s : string) : string</text><g data-visibility-modifier="PUBLIC_METHOD"><ellipse cx="469.22" cy="753.1022" fill="#84BE84" rx="3" ry="3" style="stroke:#038048;stroke-width:1;"/></g><text fill="#053583" font-family="Casual" font-size="12" lengthAdjust="spacing" text-decoration="underline" textLength="208.1309" x="478.22" y="756.1373">NewShortId(length : int = 4) : string</text><g data-visibility-modifier="PUBLIC_METHOD"><ellipse cx="469.22" cy="767.235" fill="#84BE84" rx="3" ry="3" style="stroke:#038048;stroke-width:1;"/></g><text fill="#053583" font-family="Casual" font-size="12" lengthAdjust="spacing" text-decoration="underline" textLength="210.9668" x="478.22" y="770.2702">EscapeParam(param : string) : string</text><g data-visibility-modifier="PUBLIC_METHOD"><ellipse cx="469.22" cy="781.3678" fill="#84BE84" rx="3" ry="3" style="stroke:#038048;stroke-width:1;"/></g><text fill="#053583" font-family="Casual" font-size="12" lengthAdjust="spacing" text-decoration="underline" textLength="201.4688" x="478.22" y="784.403">EscapeBlank(name : string) : string</text><g data-visibility-modifier="PUBLIC_METHOD"><ellipse cx="469.22" cy="795.5006" fill="#84BE84" rx="3" ry="3" style="stroke:#038048;stroke-width:1;"/></g><text fill="#053583" font-family="Casual" font-size="12" lengthAdjust="spacing" text-decoration="underline" textLength="214.8867" x="478.22" y="798.5358">WinInternal(fullname : string) : string</text></g><!--class LegendSample--><g class="entity" data-qualified-name="LegendSample" data-source-line="113" id="ent0017"><rect fill="#CCFBF1" height="261.8594" rx="2.5" ry="2.5" style="stroke:#0F766E;stroke-width:0.5;" width="169.5605" x="9" y="44.4883"/><ellipse cx="54.127" cy="60.4883" fill="#ADD1B2" rx="11" ry="11" style="stroke:#181818;stroke-width:1;"/><path d="M56.6001,66.6313 Q56.019,66.9302 55.3799,67.0796 Q54.7407,67.229 54.0352,67.229 Q51.5283,67.229 50.2085,65.5771 Q48.8887,63.9253 48.8887,60.8042 Q48.8887,57.6748 50.2085,56.0229 Q51.5283,54.3711 54.0352,54.3711 Q54.7407,54.3711 55.3882,54.5205 Q56.0356,54.6699 56.6001,54.9688 L56.6001,57.6914 Q55.9692,57.1104 55.3757,56.8406 Q54.7822,56.5708 54.1514,56.5708 Q52.8066,56.5708 52.1218,57.6375 Q51.437,58.7041 51.437,60.8042 Q51.437,62.896 52.1218,63.9626 Q52.8066,65.0293 54.1514,65.0293 Q54.7822,65.0293 55.3757,64.7595 Q55.9692,64.4897 56.6001,63.9087 Z " fill="#000000"/><text fill="#111827" font-family="Casual" font-size="12" lengthAdjust="spacing" textLength="42.252" x="74.627" y="65.0234">Legend</text><text fill="#111827" font-family="Casual" font-size="10" lengthAdjust="spacing" textLength="28.5547" x="116.8789" y="65.4453">&#9416;&#9398;&#9413;</text><line style="stroke:#0F766E;stroke-width:0.5;" x1="10" x2="177.5605" y1="76.4883" y2="76.4883"/><g data-visibility-modifier="PUBLIC_METHOD"><ellipse cx="20" cy="89.0547" fill="#84BE84" rx="3" ry="3" style="stroke:#038048;stroke-width:1;"/></g><text fill="#053583" font-family="Casual" font-size="12" lengthAdjust="spacing" text-decoration="underline" textLength="119.0156" x="29" y="92.0898">staticMethod() : void</text><g data-visibility-modifier="PRIVATE_FIELD"><rect fill="none" height="6" style="stroke:#C82930;stroke-width:1;" width="6" x="17" y="100.1875"/></g><text fill="#053583" font-family="Casual" font-size="12" lengthAdjust="spacing" text-decoration="underline" textLength="125.4609" x="29" y="106.2227">staticProperty : string</text><line style="stroke:#0F766E;stroke-width:1;" x1="10" x2="177.5605" y1="112.7539" y2="112.7539"/><line style="stroke:#0F766E;stroke-width:1;" x1="10" x2="177.5605" y1="114.7539" y2="114.7539"/><g data-visibility-modifier="PACKAGE_PRIVATE_FIELD"><polygon fill="none" points="20,121.3203,16,127.3203,24,127.3203" style="stroke:#1963A0;stroke-width:1;stroke-linejoin:miter;stroke-miterlimit:10;"/></g><text fill="#053583" font-family="Casual" font-size="12" font-style="italic" lengthAdjust="spacing" textLength="137.1563" x="29" y="128.3555">Note on class markers :</text><text fill="#053583" font-family="Casual" font-size="10" lengthAdjust="spacing" textLength="10" x="29" y="142.9102">&#9416;</text><text fill="#053583" font-family="Casual" font-size="12" lengthAdjust="spacing" textLength="25.2188" x="39" y="142.4883">tatic</text><text fill="#053583" font-family="Casual" font-size="10" lengthAdjust="spacing" textLength="10" x="29" y="157.043">&#9398;</text><text fill="#053583" font-family="Casual" font-size="12" lengthAdjust="spacing" textLength="40.3301" x="39" y="156.6211">bstract</text><text fill="#053583" font-family="Casual" font-size="12" lengthAdjust="spacing" textLength="39.8555" x="29" y="170.7539">&#9413;artial</text><line style="stroke:#0F766E;stroke-width:1;" x1="10" x2="177.5605" y1="177.2852" y2="177.2852"/><g data-visibility-modifier="PRIVATE_FIELD"><rect fill="none" height="6" style="stroke:#C82930;stroke-width:1;" width="6" x="17" y="186.8516"/></g><text fill="#053583" font-family="Casual" font-size="12" lengthAdjust="spacing" textLength="112.8574" x="29" y="192.8867">privateField : string</text><g data-visibility-modifier="PUBLIC_FIELD"><ellipse cx="20" cy="203.9844" fill="none" rx="3" ry="3" style="stroke:#038048;stroke-width:1;"/></g><text fill="#053583" font-family="Casual" font-size="12" lengthAdjust="spacing" textLength="108.5508" x="29" y="207.0195">publicField : string</text><g data-visibility-modifier="PROTECTED_FIELD"><polygon fill="none" points="20,213.1172,24,217.1172,20,221.1172,16,217.1172" style="stroke:#B38D22;stroke-width:1;stroke-linejoin:miter;stroke-miterlimit:10;"/></g><text fill="#053583" font-family="Casual" font-size="12" lengthAdjust="spacing" textLength="128.7949" x="29" y="221.1523">protectedField : string</text><g data-visibility-modifier="PACKAGE_PRIVATE_FIELD"><polygon fill="none" points="20,228.25,16,234.25,24,234.25" style="stroke:#1963A0;stroke-width:1;stroke-linejoin:miter;stroke-miterlimit:10;"/></g><text fill="#053583" font-family="Casual" font-size="12" lengthAdjust="spacing" textLength="117.457" x="29" y="235.2852">internalField : string</text><line style="stroke:#0F766E;stroke-width:1;" x1="10" x2="177.5605" y1="241.8164" y2="241.8164"/><g data-visibility-modifier="PRIVATE_METHOD"><rect fill="#F24D5C" height="6" style="stroke:#C82930;stroke-width:1;" width="6" x="17" y="251.3828"/></g><text fill="#053583" font-family="Casual" font-size="12" lengthAdjust="spacing" textLength="127.623" x="29" y="257.418">privateMethod() : void</text><g data-visibility-modifier="PUBLIC_METHOD"><ellipse cx="20" cy="268.5156" fill="#84BE84" rx="3" ry="3" style="stroke:#038048;stroke-width:1;"/></g><text fill="#053583" font-family="Casual" font-size="12" lengthAdjust="spacing" textLength="123.3164" x="29" y="271.5508">publicMethod() : void</text><g data-visibility-modifier="PROTECTED_METHOD"><polygon fill="#FFFF44" points="20,277.6484,24,281.6484,20,285.6484,16,281.6484" style="stroke:#B38D22;stroke-width:1;stroke-linejoin:miter;stroke-miterlimit:10;"/></g><text fill="#053583" font-family="Casual" font-size="12" lengthAdjust="spacing" textLength="143.5605" x="29" y="285.6836">protectedMethod() : void</text><g data-visibility-modifier="PACKAGE_PRIVATE_METHOD"><polygon fill="#4177AF" points="20,292.7813,16,298.7813,24,298.7813" style="stroke:#1963A0;stroke-width:1;stroke-linejoin:miter;stroke-miterlimit:10;"/></g><text fill="#053583" font-family="Casual" font-size="12" lengthAdjust="spacing" textLength="132.2227" x="29" y="299.8164">internalMethod() : void</text></g><g class="entity" data-qualified-name="GMN18" data-source-line="134" id="ent0019"><path d="M1496.24,882.0683 L1496.24,1075.7948 L1695.3235,1075.7948 L1695.3235,892.0683 L1685.3235,882.0683 L1496.24,882.0683" fill="#FFF7D6" style="stroke:#D4B106;stroke-width:0.5;"/><path d="M1685.3235,882.0683 L1685.3235,892.0683 L1695.3235,892.0683 L1685.3235,882.0683" fill="#FFF7D6" style="stroke:#D4B106;stroke-width:1;"/><text fill="#000000" font-family="sans-serif" font-size="13" lengthAdjust="spacing" textLength="124.9282" x="1502.24" y="899.6366">Os is a static partial</text><text fill="#000000" font-family="sans-serif" font-size="13" lengthAdjust="spacing" textLength="138.4106" x="1502.24" y="914.9472">class composed from:</text><text fill="#000000" font-family="sans-serif" font-size="13" lengthAdjust="spacing" textLength="45.7603" x="1502.24" y="930.2577">- Os.cs</text><text fill="#000000" font-family="sans-serif" font-size="13" lengthAdjust="spacing" textLength="91.5649" x="1502.24" y="945.5683">- Os.Config.cs</text><text fill="#000000" font-family="sans-serif" font-size="13" lengthAdjust="spacing" textLength="123.2397" x="1502.24" y="960.8788">- Os.Diagnostics.cs</text><text fill="#000000" font-family="sans-serif" font-size="13" lengthAdjust="spacing" textLength="133.4468" x="1502.24" y="976.1894">- CloudPathWiring.cs</text><text fill="#000000" font-family="sans-serif" font-size="13" lengthAdjust="spacing" textLength="149.2588" x="1502.24" y="991.4999">Current config model is</text><text fill="#000000" font-family="sans-serif" font-size="13" lengthAdjust="spacing" textLength="171.4819" x="1502.24" y="1006.8105">dynamic (`RAIkeep.json5`)</text><text fill="#000000" font-family="sans-serif" font-size="13" lengthAdjust="spacing" textLength="178.0835" x="1502.24" y="1022.121">with a boot-time immutable</text><text fill="#000000" font-family="sans-serif" font-size="13" lengthAdjust="spacing" textLength="111.1665" x="1502.24" y="1037.4316">runtime snapshot</text><text fill="#000000" font-family="sans-serif" font-size="13" lengthAdjust="spacing" textLength="147.1768" x="1502.24" y="1052.7421">rather than a dedicated</text><text fill="#000000" font-family="sans-serif" font-size="13" lengthAdjust="spacing" textLength="157.2759" x="1502.24" y="1068.0527">config-file wrapper type.</text></g><!--link Os to OsType--><g class="link" data-entity-1="ent0008" data-entity-2="ent0003" data-link-type="dependency" data-source-line="104" id="lnk9"><path codeLine="104" d="M724.98,805.2483 C718.11,821.2183 711.01,836.9883 703.78,852.0683 C690.47,879.8683 675.8526,905.473 661.4926,929.153" fill="none" id="Os-to-OsType" style="stroke:#9B2C2C;stroke-width:1;stroke-dasharray:7,7;"/><polygon fill="#9B2C2C" points="658.9,933.4283,666.987,927.8068,661.4926,929.153,660.1465,923.6586,658.9,933.4283" style="stroke:#9B2C2C;stroke-width:1;stroke-linejoin:miter;stroke-miterlimit:10;"/><text fill="#374151" font-family="'Casual'" font-size="13" lengthAdjust="spacing" textLength="28.5645" x="711.09" y="848.6366">uses</text></g><!--link Os to EscapeMode--><g class="link" data-entity-1="ent0008" data-entity-2="ent0002" data-link-type="dependency" data-source-line="105" id="lnk10"><path codeLine="105" d="M667.84,805.4183 C653.28,822.1083 637.87,837.9383 621.78,852.0683 C600.27,870.9583 587.41,864.5383 564.78,882.0683 C548.26,894.8683 535.583,907.2823 521.903,922.6623" fill="none" id="Os-to-EscapeMode" style="stroke:#9B2C2C;stroke-width:1;stroke-dasharray:7,7;"/><polygon fill="#9B2C2C" points="518.58,926.3983,527.5502,922.3319,521.903,922.6623,521.5727,917.0151,518.58,926.3983" style="stroke:#9B2C2C;stroke-width:1;stroke-linejoin:miter;stroke-miterlimit:10;"/><text fill="#374151" font-family="'Casual'" font-size="13" lengthAdjust="spacing" textLength="28.5645" x="635.23" y="848.6366">uses</text></g><!--link Os to RaiPath--><g class="link" data-entity-1="ent0008" data-entity-2="ent0006" data-link-type="dependency" data-source-line="106" id="lnk11"><path codeLine="106" d="M457.76,791.7483 C448.71,796.2883 439.7,800.7383 430.78,805.0683 C399.22,820.3883 383.11,810.8083 357.78,835.0683 C332.03,859.7383 316.991,891.6415 306.851,921.6415" fill="none" id="Os-to-RaiPath" style="stroke:#9B2C2C;stroke-width:1;stroke-dasharray:7,7;"/><polygon fill="#9B2C2C" points="305.25,926.3783,311.9212,919.133,306.851,921.6415,304.3424,916.5713,305.25,926.3783" style="stroke:#9B2C2C;stroke-width:1;stroke-linejoin:miter;stroke-miterlimit:10;"/><text fill="#374151" font-family="'Casual'" font-size="13" lengthAdjust="spacing" textLength="90.6255" x="358.78" y="848.6366">path contracts</text></g><!--link RaiPath to Os--><g class="link" data-entity-1="ent0006" data-entity-2="ent0008" data-link-type="dependency" data-source-line="111" id="lnk16"><path codeLine="111" d="M338.85,926.2683 C354.44,910.8783 372.5,894.7583 390.78,882.0683 C416.26,864.3883 427.17,867.9983 453.78,852.0683 C477.99,837.5783 498.4376,824.6036 522.7976,808.2636" fill="none" id="RaiPath-to-Os" style="stroke:#9B2C2C;stroke-width:1;stroke-dasharray:7,7;"/><polygon fill="#9B2C2C" points="526.95,805.4783,517.2475,807.1699,522.7976,808.2636,521.704,813.8137,526.95,805.4783" style="stroke:#9B2C2C;stroke-width:1;stroke-linejoin:miter;stroke-miterlimit:10;"/><text fill="#374151" font-family="'Casual'" font-size="13" lengthAdjust="spacing" textLength="119.9136" x="474.69" y="848.6366">path normalization</text></g><!--link Os to RaiFile--><g class="link" data-entity-1="ent0008" data-entity-2="ent0007" data-link-type="dependency" data-source-line="107" id="lnk12"><path codeLine="107" d="M1031.71,805.3283 C1070.75,841.1483 1105.1266,872.7071 1136.6866,901.6771" fill="none" id="Os-to-RaiFile" style="stroke:#9B2C2C;stroke-width:1;stroke-dasharray:7,7;"/><polygon fill="#9B2C2C" points="1140.37,905.0583,1136.4447,896.0254,1136.6866,901.6771,1131.0349,901.919,1140.37,905.0583" style="stroke:#9B2C2C;stroke-width:1;stroke-linejoin:miter;stroke-miterlimit:10;"/><text fill="#374151" font-family="'Casual'" font-size="13" lengthAdjust="spacing" textLength="130.7935" x="1074" y="848.6366">config file resolution</text></g><!--link Os to IStartupDiagnosticSink--><g class="link" data-entity-1="ent0008" data-entity-2="ent0004" data-link-type="dependency" data-source-line="108" id="lnk13"><path codeLine="108" d="M817.05,805.3283 C820.86,861.3183 824.1811,910.1698 826.3711,942.4098" fill="none" id="Os-to-IStartupDiagnosticSink" style="stroke:#9B2C2C;stroke-width:1;stroke-dasharray:7,7;"/><polygon fill="#9B2C2C" points="826.71,947.3983,830.0909,938.1479,826.3711,942.4098,822.1092,938.6901,826.71,947.3983" style="stroke:#9B2C2C;stroke-width:1;stroke-linejoin:miter;stroke-miterlimit:10;"/><text fill="#374151" font-family="'Casual'" font-size="13" lengthAdjust="spacing" textLength="101.9751" x="820.63" y="848.6366">diagnostics sink</text></g><!--link CloudPathWiring to Os--><g class="link" data-entity-1="ent0005" data-entity-2="ent0008" data-link-type="dependency" data-source-line="109" id="lnk14"><path codeLine="109" d="M457.83,206.7283 C491.86,244.8483 550.0006,309.998 611.7206,379.148" fill="none" id="CloudPathWiring-to-Os" style="stroke:#9B2C2C;stroke-width:1;stroke-dasharray:7,7;"/><polygon fill="#9B2C2C" points="615.05,382.8783,612.0412,373.5003,611.7206,379.148,606.0728,378.8274,615.05,382.8783" style="stroke:#9B2C2C;stroke-width:1;stroke-linejoin:miter;stroke-miterlimit:10;"/><text fill="#374151" font-family="'Casual'" font-size="13" lengthAdjust="spacing" textLength="107.6499" x="584.46" y="349.9166">boot-state check</text></g><!--link CloudPathWiring to RaiPath--><g class="link" data-entity-1="ent0005" data-entity-2="ent0006" data-link-type="dependency" data-source-line="110" id="lnk15"><path codeLine="110" d="M402.49,206.7683 C369.26,244.6883 315.97,313.1783 294.78,383.3483 C236.45,576.5483 264.662,816.4824 281.632,921.4424" fill="none" id="CloudPathWiring-to-RaiPath" style="stroke:#9B2C2C;stroke-width:1;stroke-dasharray:7,7;"/><polygon fill="#9B2C2C" points="282.43,926.3783,284.9423,916.8552,281.632,921.4424,277.0448,918.1321,282.43,926.3783" style="stroke:#9B2C2C;stroke-width:1;stroke-linejoin:miter;stroke-miterlimit:10;"/><text fill="#374151" font-family="'Casual'" font-size="13" lengthAdjust="spacing" textLength="144.8979" x="295.78" y="599.2766">compatibility initializer</text></g><!--link Os to GMN18--><g class="link" data-entity-1="ent0008" data-entity-2="ent0019" data-link-type="association" data-source-line="134" id="lnk20"><path d="M1147.55,719.9083 C1256.37,764.9483 1374.97,820.1583 1477.78,882.0683 C1483.77,885.6783 1489.79,889.5683 1495.76,893.6383" fill="none" id="Os-GMN18" style="stroke:#9B2C2C;stroke-width:1;stroke-dasharray:7,7;"/></g><?plantuml-src ZLVDRjiu43vRJq4aXxNHn1ixVwsHUk4w3ceWVuXJvB1Oe9GqihccI86awhf5UbjWp-sxz87w93kKP9jMf6GljiJluynmVgdVo1rme1fwvB3TwROxdcUOuK1kz2NpyPSCETMQd3CwLJJsF3rd8g7uI7mQpATAfY8SIYuLMSoO0GVNCnhA1HDJ4b6kNQGGTY65kQOna9qXrIdbEzMK2Vi2vF340JEJdjkz9jJi7HYZc9yQ60TIP9pEGIrdhIZNyomlzyJkmV7XyUl3PvaFmAOpGuHKyGioS_kwPSuLc9aCN_J2XlQYdCAauuFdVJ4nIyoFQiFVIHM2MdaXEZqvWIUKKjhi1a7aHvsgw1M4JgVpkdlg44OYZRSq-KV7XmTloeooeWYYmw0inz5p6dJ3BVzSImDFfKJHQNXIPhdMX4T-vy1b39IIYm9yutU3Rb067IiEJuywnvqgmdQSFJsJ2n8m5N3ml0JDf5E4ixhT8L-z1k3foCwPnh3tEg_x8ntG1Ava26U_sxN-3g6QR5R9sHbfZlPse-CtSE2tIBzlXJI4H0h--voAUVwOcLMiebgDuPf1w3KUlITAR_JzCjbIcA_KA7jW0bk6ngSh6jnCyF-3dmgJvhAPCA0Y6e2ZO3mnL9aqiVr2I6rOC65YxYgiPcJgNZqeR5aZzAzgng2rTM2FQCnrCMtXqoV9YcC5MHFSg1rocOQtrCmUc2Mx-afGhkYhDXGrFvAnO8PHZkpcynhkABD2NCd5KYunKuCIV2cvVI_0fbwVWBmbE-sTbWjACmE5XE9z2ulozGl6eLLhaaLB9jcbtAJYfHdXZx2vklQbYoOR_NjaYuO6YvJpFGAVJNcnjUN5SuXeoiraAO9R9HCwnMKfpe7JvPLr06OAyd739uQXf_oHnFEGgSpbXUvr-2-KZ0SQ9JMrJ5LWpPaO1JJU8u4rOqX509nd6kxb70HQ5ERwhRXxgkVPyO260yxVBGteNDp_tNtcuvu__-fRARRRXDJ040t8jh0Ocga9a7gEo_PrZoGrH_vZvQlwnEeUOKaM0II_VlpxwyS_HLMMylHyVBSEGHcOZ6v7TuFxcnh6Q38St8w6xmTr4WRteukRkwl1VJMUzOTUqIYsYqSN3SB9UmVCUaOrz46mpvTi3jNe9HDfBVn1WtelOpXdQZjxren1ajn9QUe9zn0dzUYb32YtWK-V8GsbYDWKmN29DSE2qWbo-5BI4CAgG-IuhRyBJ91hj-gg2cj3jyRPH7Ff-_iLibC5cmwhcrnEfw0kQ62aMkBcyQMxi8V2gffohwvRbnFRKNzBbOPLSJHjyHXy68kAD6ivPNGJHHhCTk9ciz3fe7iajeEnvqp9LhNVhl4sb7NHn3PeLryDUG89A8g-SDJLqM4ncKbbnc4J--eqau_LZZuvgjcHctjhntGplqEye2BVyCwE-EPsvwxcOncExJ0Mb3SZ34pjdaSFMn0sbtQxlvhyFP9gqAj5v_wn3Qo6NOzaBiLxkb6OF2wUJPwUXMnfsAb356Z9KvkmArvDGc4XRRALQ5pooeCxjpcl9hDlZmuac45GpTpO6yWOJMO-uymiCLAhWQ-y5MSjEJjQVfDcNx8wyxoYNr_254HOpDw3lktLttzYktQdRywPq3Z9H_0cGFb_VhLtBXhx9O8Tdg3CqedOsxTUuziPwzjRBS6wpys9gPg3GfFFVcSug5op2eCoUIxo_MU1-3gBdDT0wp4Kw0mlQo7xECZO9_Jg1GCUEYQy8adgSnQKrtVjv3CG60ZBq3V2Ydmi8rkQdZXafUe9uEXwWcsKbI5CTc7zvajZP4naX67s6XXgfWajV8v1BvoGkzQcYzJOjYEyYFIiiJUw7UZY8M-kctUdnnQBfMJCLeUfKe0jeYWDsyKusk0rYkb1cX_l1kCvGDB-Mqjn_16lLmk6kKZpPBSTbB0uJWtryUkYeV0IRfUqe0b-Tc0iiNVPgwIPKO6RSEemd1Fs8o1NkPzLuqBH9B4ihFksXwbAh7Uy_m00?></g></svg>