<?plantuml 1.2026.2?><svg xmlns="http://www.w3.org/2000/svg" xmlns:xlink="http://www.w3.org/1999/xlink" contentStyleType="text/css" data-diagram-type="CLASS" height="986px" preserveAspectRatio="none" style="width:1670px;height:986px;background:#FFFFFF;" version="1.1" viewBox="0 0 1670 986" width="1670px" zoomAndPan="magnify"><title>OsLib Os Class Diagram</title><defs/><g><g class="title" data-source-line="3"><text fill="#000000" font-family="sans-serif" font-size="14" font-weight="bold" lengthAdjust="spacing" textLength="174.5762" x="740.9679" y="23.5352">OsLib Os Class Diagram</text></g><!--cluster OsLib--><g class="cluster" data-qualified-name="OsLib" data-source-line="34" id="ent0002"><path d="M185.77,96.9683 L228.1821,96.9683 A3.75,3.75 0 0 1 230.6821,99.4683 L237.6821,119.4566 L1449.77,119.4566 A2.5,2.5 0 0 1 1452.27,121.9566 L1452.27,962.9983 A2.5,2.5 0 0 1 1449.77,965.4983 L185.77,965.4983 A2.5,2.5 0 0 1 183.27,962.9983 L183.27,99.4683 A2.5,2.5 0 0 1 185.77,96.9683" fill="none" style="stroke:#000000;stroke-width:1.5;"/><line style="stroke:#000000;stroke-width:1.5;" x1="183.27" x2="237.6821" y1="119.4566" y2="119.4566"/><text fill="#000000" font-family="sans-serif" font-size="14" font-weight="bold" lengthAdjust="spacing" textLength="41.4121" x="187.27" y="112.5034">OsLib</text></g><!--class EscapeMode--><g class="entity" data-qualified-name="OsLib.EscapeMode" data-source-line="35" id="ent0003"><rect fill="#CCFBF1" height="96.912" rx="2.5" ry="2.5" style="stroke:#0F766E;stroke-width:0.5;" width="122.792" x="450.87" y="834.2483"/><ellipse cx="465.87" cy="850.2483" fill="#F59E0B" rx="11" ry="11" style="stroke:#181818;stroke-width:1;"/><path d="M469.4843,856.7483 L461.7645,856.7483 L461.7645,844.3552 L469.4843,844.3552 L469.4843,846.5134 L464.2133,846.5134 L464.2133,849.1863 L468.9862,849.1863 L468.9862,851.3445 L464.2133,851.3445 L464.2133,854.5901 L469.4843,854.5901 Z " fill="#000000"/><text fill="#111827" font-family="Casual" font-size="18" lengthAdjust="spacing" textLength="90.792" x="479.87" y="855.4773">EscapeMode</text><line style="stroke:#0F766E;stroke-width:0.5;" x1="451.87" x2="572.662" y1="866.2483" y2="866.2483"/><text fill="#053583" font-family="Casual" font-size="12" lengthAdjust="spacing" textLength="28.488" x="456.87" y="879.8483">noEsc</text><text fill="#053583" font-family="Casual" font-size="12" lengthAdjust="spacing" textLength="45.552" x="456.87" y="892.0763">blankEsc</text><text fill="#053583" font-family="Casual" font-size="12" lengthAdjust="spacing" textLength="49.116" x="456.87" y="904.3043">paramEsc</text><text fill="#053583" font-family="Casual" font-size="12" lengthAdjust="spacing" textLength="63.156" x="456.87" y="916.5323">backslashed</text><line style="stroke:#0F766E;stroke-width:0.5;" x1="451.87" x2="572.662" y1="923.1603" y2="923.1603"/></g><!--class OsType--><g class="entity" data-qualified-name="OsLib.OsType" data-source-line="42" id="ent0004"><rect fill="#CCFBF1" height="84.684" rx="2.5" ry="2.5" style="stroke:#0F766E;stroke-width:0.5;" width="85.1" x="608.72" y="840.3583"/><ellipse cx="623.72" cy="856.3583" fill="#F59E0B" rx="11" ry="11" style="stroke:#181818;stroke-width:1;"/><path d="M627.3343,862.8583 L619.6145,862.8583 L619.6145,850.4652 L627.3343,850.4652 L627.3343,852.6234 L622.0633,852.6234 L622.0633,855.2963 L626.8362,855.2963 L626.8362,857.4545 L622.0633,857.4545 L622.0633,860.7001 L627.3343,860.7001 Z " fill="#000000"/><text fill="#111827" font-family="Casual" font-size="18" lengthAdjust="spacing" textLength="53.1" x="637.72" y="861.5873">OsType</text><line style="stroke:#0F766E;stroke-width:0.5;" x1="609.72" x2="692.82" y1="872.3583" y2="872.3583"/><text fill="#053583" font-family="Casual" font-size="12" lengthAdjust="spacing" textLength="44.052" x="614.72" y="885.9583">Windows</text><text fill="#053583" font-family="Casual" font-size="12" lengthAdjust="spacing" textLength="33.372" x="614.72" y="898.1863">MacOS</text><text fill="#053583" font-family="Casual" font-size="12" lengthAdjust="spacing" textLength="35.448" x="614.72" y="910.4143">Ubuntu</text><line style="stroke:#0F766E;stroke-width:0.5;" x1="609.72" x2="692.82" y1="917.0423" y2="917.0423"/></g><!--class IStartupDiagnosticSink--><g class="entity" data-qualified-name="OsLib.IStartupDiagnosticSink" data-source-line="48" id="ent0005"><rect fill="#CCFBF1" height="60.228" rx="2.5" ry="2.5" style="stroke:#0F766E;stroke-width:0.5;" width="216.98" x="728.78" y="852.5883"/><ellipse cx="746.4017" cy="868.5883" fill="#B4A7E5" rx="11" ry="11" style="stroke:#181818;stroke-width:1;"/><path d="M742.8294,864.8534 L742.8294,862.6952 L750.2088,862.6952 L750.2088,864.8534 L747.7435,864.8534 L747.7435,872.9301 L750.2088,872.9301 L750.2088,875.0883 L742.8294,875.0883 L742.8294,872.9301 L745.2948,872.9301 L745.2948,864.8534 Z " fill="#000000"/><text fill="#111827" font-family="Casual" font-size="18" font-style="italic" lengthAdjust="spacing" textLength="179.154" x="760.9843" y="873.8173">IStartupDiagnosticSink</text><line style="stroke:#0F766E;stroke-width:0.5;" x1="729.78" x2="944.76" y1="884.5883" y2="884.5883"/><line style="stroke:#0F766E;stroke-width:0.5;" x1="729.78" x2="944.76" y1="892.5883" y2="892.5883"/><g data-visibility-modifier="PUBLIC_METHOD"><ellipse cx="739.78" cy="904.2023" fill="#84BE84" rx="3" ry="3" style="stroke:#038048;stroke-width:1;"/></g><text fill="#053583" font-family="Casual" font-size="12" lengthAdjust="spacing" textLength="190.98" x="748.78" y="906.1883">WriteError(message : string) : void</text></g><!--class CloudPathWiring--><g class="entity" data-qualified-name="OsLib.CloudPathWiring" data-source-line="52" id="ent0006"><rect fill="#CCFBF1" height="60.228" rx="2.5" ry="2.5" style="stroke:#0F766E;stroke-width:0.5;" width="158.81" x="318.87" y="131.9683"/><ellipse cx="333.87" cy="147.9683" fill="#ADD1B2" rx="11" ry="11" style="stroke:#181818;stroke-width:1;"/><path d="M336.3431,154.1113 Q335.7621,154.4102 335.1229,154.5596 Q334.4838,154.709 333.7782,154.709 Q331.2714,154.709 329.9515,153.0571 Q328.6317,151.4053 328.6317,148.2842 Q328.6317,145.1548 329.9515,143.5029 Q331.2714,141.8511 333.7782,141.8511 Q334.4838,141.8511 335.1312,142.0005 Q335.7787,142.1499 336.3431,142.4488 L336.3431,145.1714 Q335.7123,144.5904 335.1188,144.3206 Q334.5253,144.0508 333.8944,144.0508 Q332.5497,144.0508 331.8649,145.1175 Q331.1801,146.1841 331.1801,148.2842 Q331.1801,150.376 331.8649,151.4426 Q332.5497,152.5093 333.8944,152.5093 Q334.5253,152.5093 335.1188,152.2395 Q335.7123,151.9697 336.3431,151.3887 Z " fill="#000000"/><text fill="#111827" font-family="Casual" font-size="18" lengthAdjust="spacing" textLength="126.81" x="347.87" y="153.1973">CloudPathWiring</text><line style="stroke:#0F766E;stroke-width:0.5;" x1="319.87" x2="476.68" y1="163.9683" y2="163.9683"/><line style="stroke:#0F766E;stroke-width:0.5;" x1="319.87" x2="476.68" y1="171.9683" y2="171.9683"/><g data-visibility-modifier="PUBLIC_METHOD"><ellipse cx="329.87" cy="183.5823" fill="#84BE84" rx="3" ry="3" style="stroke:#038048;stroke-width:1;"/></g><text fill="#053583" font-family="Casual" font-size="12" lengthAdjust="spacing" text-decoration="underline" textLength="93.72" x="338.87" y="185.5683">Initialize() : void</text></g><!--class RaiPath--><g class="entity" data-qualified-name="OsLib.RaiPath" data-source-line="56" id="ent0007"><rect fill="#CCFBF1" height="109.14" rx="2.5" ry="2.5" style="stroke:#0F766E;stroke-width:0.5;" width="216.656" x="198.94" y="828.1283"/><ellipse cx="273.066" cy="844.1283" fill="#ADD1B2" rx="11" ry="11" style="stroke:#181818;stroke-width:1;"/><path d="M275.5391,850.2713 Q274.9581,850.5702 274.3189,850.7196 Q273.6797,850.869 272.9742,850.869 Q270.4673,850.869 269.1475,849.2171 Q267.8277,847.5653 267.8277,844.4442 Q267.8277,841.3148 269.1475,839.6629 Q270.4673,838.0111 272.9742,838.0111 Q273.6797,838.0111 274.3272,838.1605 Q274.9747,838.3099 275.5391,838.6088 L275.5391,841.3314 Q274.9083,840.7504 274.3148,840.4806 Q273.7213,840.2108 273.0904,840.2108 Q271.7457,840.2108 271.0609,841.2775 Q270.376,842.3441 270.376,844.4442 Q270.376,846.536 271.0609,847.6026 Q271.7457,848.6693 273.0904,848.6693 Q273.7213,848.6693 274.3148,848.3995 Q274.9083,848.1297 275.5391,847.5487 Z " fill="#000000"/><text fill="#111827" font-family="Casual" font-size="18" lengthAdjust="spacing" textLength="59.904" x="293.566" y="849.3573">RaiPath</text><line style="stroke:#0F766E;stroke-width:0.5;" x1="199.94" x2="414.596" y1="860.1283" y2="860.1283"/><g data-visibility-modifier="PUBLIC_FIELD"><ellipse cx="209.94" cy="871.7423" fill="none" rx="3" ry="3" style="stroke:#038048;stroke-width:1;"/></g><text fill="#053583" font-family="Casual" font-size="12" lengthAdjust="spacing" text-decoration="underline" textLength="190.656" x="218.94" y="873.7283">CloudEvaluator : Func&lt;string, bool&gt;</text><g data-visibility-modifier="PUBLIC_FIELD"><ellipse cx="209.94" cy="883.9703" fill="none" rx="3" ry="3" style="stroke:#038048;stroke-width:1;"/></g><text fill="#053583" font-family="Casual" font-size="12" lengthAdjust="spacing" textLength="66.156" x="218.94" y="885.9563">Cloud : bool</text><line style="stroke:#0F766E;stroke-width:0.5;" x1="199.94" x2="414.596" y1="892.5843" y2="892.5843"/><g data-visibility-modifier="PUBLIC_METHOD"><ellipse cx="209.94" cy="904.1983" fill="#84BE84" rx="3" ry="3" style="stroke:#038048;stroke-width:1;"/></g><text fill="#053583" font-family="Casual" font-size="12" lengthAdjust="spacing" textLength="134.04" x="218.94" y="906.1843">RaiPath(s : string = ".")</text><g data-visibility-modifier="PUBLIC_METHOD"><ellipse cx="209.94" cy="916.4263" fill="#84BE84" rx="3" ry="3" style="stroke:#038048;stroke-width:1;"/></g><text fill="#053583" font-family="Casual" font-size="12" lengthAdjust="spacing" textLength="132.936" x="218.94" y="918.4123">RaiPath(other : RaiPath)</text><g data-visibility-modifier="PUBLIC_METHOD"><ellipse cx="209.94" cy="928.6543" fill="#84BE84" rx="3" ry="3" style="stroke:#038048;stroke-width:1;"/></g><text fill="#053583" font-family="Casual" font-size="12" lengthAdjust="spacing" textLength="104.556" x="218.94" y="930.6403">RaiPath(f : RaiFile)</text></g><!--class RaiFile--><g class="entity" data-qualified-name="OsLib.RaiFile" data-source-line="64" id="ent0008"><rect fill="#CCFBF1" height="133.596" rx="2.5" ry="2.5" style="stroke:#0F766E;stroke-width:0.5;" width="455.2401" x="980.65" y="815.8983"/><ellipse cx="1178.163" cy="831.8983" fill="#ADD1B2" rx="11" ry="11" style="stroke:#181818;stroke-width:1;"/><path d="M1180.6362,838.0413 Q1180.0551,838.3402 1179.416,838.4896 Q1178.7768,838.639 1178.0712,838.639 Q1175.5644,838.639 1174.2446,836.9871 Q1172.9247,835.3353 1172.9247,832.2142 Q1172.9247,829.0848 1174.2446,827.4329 Q1175.5644,825.7811 1178.0712,825.7811 Q1178.7768,825.7811 1179.4243,825.9305 Q1180.0717,826.0799 1180.6362,826.3788 L1180.6362,829.1014 Q1180.0053,828.5204 1179.4118,828.2506 Q1178.8183,827.9808 1178.1874,827.9808 Q1176.8427,827.9808 1176.1579,829.0475 Q1175.4731,830.1141 1175.4731,832.2142 Q1175.4731,834.306 1176.1579,835.3726 Q1176.8427,836.4393 1178.1874,836.4393 Q1178.8183,836.4393 1179.4118,836.1695 Q1180.0053,835.8997 1180.6362,835.3187 Z " fill="#000000"/><text fill="#111827" font-family="Casual" font-size="18" lengthAdjust="spacing" textLength="51.714" x="1198.663" y="837.1273">RaiFile</text><line style="stroke:#0F766E;stroke-width:0.5;" x1="981.65" x2="1434.8901" y1="847.8983" y2="847.8983"/><g data-visibility-modifier="PUBLIC_FIELD"><ellipse cx="991.65" cy="859.5123" fill="none" rx="3" ry="3" style="stroke:#038048;stroke-width:1;"/></g><text fill="#053583" font-family="Casual" font-size="12" lengthAdjust="spacing" text-decoration="underline" textLength="196.38" x="1000.65" y="861.4983">DefaultSyncPropagationDelayMs : int</text><line style="stroke:#0F766E;stroke-width:0.5;" x1="981.65" x2="1434.8901" y1="868.1263" y2="868.1263"/><g data-visibility-modifier="PUBLIC_METHOD"><ellipse cx="991.65" cy="879.7403" fill="#84BE84" rx="3" ry="3" style="stroke:#038048;stroke-width:1;"/></g><text fill="#053583" font-family="Casual" font-size="12" lengthAdjust="spacing" textLength="134.328" x="1000.65" y="881.7263">RaiFile(filename : string)</text><g data-visibility-modifier="PUBLIC_METHOD"><ellipse cx="991.65" cy="891.9683" fill="#84BE84" rx="3" ry="3" style="stroke:#038048;stroke-width:1;"/></g><text fill="#053583" font-family="Casual" font-size="12" lengthAdjust="spacing" textLength="339.84" x="1000.65" y="893.9543">RaiFile(p : RaiPath, name : string = null, ext : string = null)</text><g data-visibility-modifier="PUBLIC_METHOD"><ellipse cx="991.65" cy="904.1963" fill="#84BE84" rx="3" ry="3" style="stroke:#038048;stroke-width:1;"/></g><text fill="#053583" font-family="Casual" font-size="12" lengthAdjust="spacing" textLength="146.064" x="1000.65" y="906.1823">{virtual} mkdir() : RaiPath</text><g data-visibility-modifier="PUBLIC_METHOD"><ellipse cx="991.65" cy="916.4243" fill="#84BE84" rx="3" ry="3" style="stroke:#038048;stroke-width:1;"/></g><text fill="#053583" font-family="Casual" font-size="12" lengthAdjust="spacing" textLength="404.664" x="1000.65" y="918.4103">WriteFromAsync(source : Stream, ct : CancellationToken = default) : Task</text><g data-visibility-modifier="PUBLIC_METHOD"><ellipse cx="991.65" cy="928.6523" fill="#84BE84" rx="3" ry="3" style="stroke:#038048;stroke-width:1;"/></g><text fill="#053583" font-family="Casual" font-size="12" lengthAdjust="spacing" textLength="365.076" x="1000.65" y="930.6383">ReadAllBytesAsync(ct : CancellationToken = default) : Task&lt;byte[]&gt;</text><g data-visibility-modifier="PUBLIC_METHOD"><ellipse cx="991.65" cy="940.8803" fill="#84BE84" rx="3" ry="3" style="stroke:#038048;stroke-width:1;"/></g><text fill="#053583" font-family="Casual" font-size="12" lengthAdjust="spacing" textLength="429.2401" x="1000.65" y="942.8663">BackdateCreationTime(utc : DateTime, propagationDelayMs : int? = null) : void</text></g><!--class Os--><g class="entity" data-qualified-name="OsLib.Os" data-source-line="74" id="ent0009"><rect fill="#CCFBF1" height="356.156" rx="2.5" ry="2.5" style="stroke:#0F766E;stroke-width:0.5;" width="643.9639" x="400.29" y="354.6783"/><ellipse cx="692.0992" cy="371.9063" fill="#ADD1B2" rx="11" ry="11" style="stroke:#181818;stroke-width:1;"/><path d="M694.5723,378.0493 Q693.9912,378.3482 693.3521,378.4976 Q692.7129,378.647 692.0074,378.647 Q689.5005,378.647 688.1807,376.9951 Q686.8609,375.3433 686.8609,372.2222 Q686.8609,369.0928 688.1807,367.4409 Q689.5005,365.7891 692.0074,365.7891 Q692.7129,365.7891 693.3604,365.9385 Q694.0078,366.0879 694.5723,366.3868 L694.5723,369.1094 Q693.9414,368.5284 693.3479,368.2586 Q692.7544,367.9888 692.1236,367.9888 Q690.7788,367.9888 690.094,369.0555 Q689.4092,370.1221 689.4092,372.2222 Q689.4092,374.314 690.094,375.3806 Q690.7788,376.4473 692.1236,376.4473 Q692.7544,376.4473 693.3479,376.1775 Q693.9414,375.9077 694.5723,375.3267 Z " fill="#000000"/><text fill="#111827" font-family="Casual" font-size="24" lengthAdjust="spacing" textLength="23.208" x="712.5992" y="378.8783">Os</text><text fill="#111827" font-family="Casual" font-size="12" lengthAdjust="spacing" textLength="22.2656" x="742.1792" y="381.5063">&#9416;&#9413;</text><line style="stroke:#0F766E;stroke-width:0.5;" x1="401.29" x2="1043.2539" y1="389.1343" y2="389.1343"/><g data-visibility-modifier="PUBLIC_FIELD"><ellipse cx="411.29" cy="400.7483" fill="none" rx="3" ry="3" style="stroke:#038048;stroke-width:1;"/></g><text fill="#053583" font-family="Casual" font-size="12" lengthAdjust="spacing" text-decoration="underline" textLength="65.412" x="420.29" y="402.7343">DIR : string</text><g data-visibility-modifier="PUBLIC_FIELD"><ellipse cx="411.29" cy="412.9763" fill="none" rx="3" ry="3" style="stroke:#038048;stroke-width:1;"/></g><text fill="#053583" font-family="Casual" font-size="12" lengthAdjust="spacing" text-decoration="underline" textLength="122.412" x="420.29" y="414.9623">DIRSEPERATOR : string</text><g data-visibility-modifier="PUBLIC_FIELD"><ellipse cx="411.29" cy="425.2043" fill="none" rx="3" ry="3" style="stroke:#038048;stroke-width:1;"/></g><text fill="#053583" font-family="Casual" font-size="12" lengthAdjust="spacing" text-decoration="underline" textLength="110.256" x="420.29" y="427.1903">ESCAPECHAR : string</text><g data-visibility-modifier="PUBLIC_FIELD"><ellipse cx="411.29" cy="437.4323" fill="none" rx="3" ry="3" style="stroke:#038048;stroke-width:1;"/></g><text fill="#053583" font-family="Casual" font-size="12" lengthAdjust="spacing" text-decoration="underline" textLength="112.644" x="420.29" y="439.4183">DATEFORMAT : string</text><g data-visibility-modifier="PUBLIC_FIELD"><ellipse cx="411.29" cy="449.6603" fill="none" rx="3" ry="3" style="stroke:#038048;stroke-width:1;"/></g><text fill="#053583" font-family="Casual" font-size="12" lengthAdjust="spacing" text-decoration="underline" textLength="75.876" x="420.29" y="451.6463">Type : OsType</text><g data-visibility-modifier="PUBLIC_FIELD"><ellipse cx="411.29" cy="461.8883" fill="none" rx="3" ry="3" style="stroke:#038048;stroke-width:1;"/></g><text fill="#053583" font-family="Casual" font-size="12" lengthAdjust="spacing" text-decoration="underline" textLength="92.772" x="420.29" y="463.8743">IsWindows : bool</text><g data-visibility-modifier="PUBLIC_FIELD"><ellipse cx="411.29" cy="474.1163" fill="none" rx="3" ry="3" style="stroke:#038048;stroke-width:1;"/></g><text fill="#053583" font-family="Casual" font-size="12" lengthAdjust="spacing" text-decoration="underline" textLength="82.092" x="420.29" y="476.1023">IsMacOS : bool</text><g data-visibility-modifier="PUBLIC_FIELD"><ellipse cx="411.29" cy="486.3443" fill="none" rx="3" ry="3" style="stroke:#038048;stroke-width:1;"/></g><text fill="#053583" font-family="Casual" font-size="12" lengthAdjust="spacing" text-decoration="underline" textLength="91.092" x="420.29" y="488.3303">IsUnixLike : bool</text><g data-visibility-modifier="PUBLIC_FIELD"><ellipse cx="411.29" cy="498.5723" fill="none" rx="3" ry="3" style="stroke:#038048;stroke-width:1;"/></g><text fill="#053583" font-family="Casual" font-size="12" lengthAdjust="spacing" text-decoration="underline" textLength="96.528" x="420.29" y="500.5583">IsLinuxLike : bool</text><g data-visibility-modifier="PUBLIC_FIELD"><ellipse cx="411.29" cy="510.8003" fill="none" rx="3" ry="3" style="stroke:#038048;stroke-width:1;"/></g><text fill="#053583" font-family="Casual" font-size="12" lengthAdjust="spacing" text-decoration="underline" textLength="120.528" x="420.29" y="512.7863">UserHomeDir : RaiPath</text><g data-visibility-modifier="PUBLIC_FIELD"><ellipse cx="411.29" cy="523.0283" fill="none" rx="3" ry="3" style="stroke:#038048;stroke-width:1;"/></g><text fill="#053583" font-family="Casual" font-size="12" lengthAdjust="spacing" text-decoration="underline" textLength="113.424" x="420.29" y="525.0143">AppRootDir : RaiPath</text><g data-visibility-modifier="PUBLIC_FIELD"><ellipse cx="411.29" cy="535.2563" fill="none" rx="3" ry="3" style="stroke:#038048;stroke-width:1;"/></g><text fill="#053583" font-family="Casual" font-size="12" lengthAdjust="spacing" text-decoration="underline" textLength="98.22" x="420.29" y="537.2423">TempDir : RaiPath</text><g data-visibility-modifier="PUBLIC_FIELD"><ellipse cx="411.29" cy="547.4843" fill="none" rx="3" ry="3" style="stroke:#038048;stroke-width:1;"/></g><text fill="#053583" font-family="Casual" font-size="12" lengthAdjust="spacing" text-decoration="underline" textLength="135.36" x="420.29" y="549.4703">LocalBackupDir : RaiPath</text><g data-visibility-modifier="PUBLIC_FIELD"><ellipse cx="411.29" cy="559.7123" fill="none" rx="3" ry="3" style="stroke:#038048;stroke-width:1;"/></g><text fill="#053583" font-family="Casual" font-size="12" lengthAdjust="spacing" text-decoration="underline" textLength="90.864" x="420.29" y="561.6983">Config : dynamic</text><g data-visibility-modifier="PUBLIC_FIELD"><ellipse cx="411.29" cy="571.9403" fill="none" rx="3" ry="3" style="stroke:#038048;stroke-width:1;"/></g><text fill="#053583" font-family="Casual" font-size="12" lengthAdjust="spacing" text-decoration="underline" textLength="116.328" x="420.29" y="573.9263">IsConfigLoaded : bool</text><g data-visibility-modifier="PUBLIC_FIELD"><ellipse cx="411.29" cy="584.1683" fill="none" rx="3" ry="3" style="stroke:#038048;stroke-width:1;"/></g><text fill="#053583" font-family="Casual" font-size="12" lengthAdjust="spacing" text-decoration="underline" textLength="178.692" x="420.29" y="586.1543">DefaultConfigFileLocation : string</text><line style="stroke:#0F766E;stroke-width:1;" x1="401.29" x2="1043.2539" y1="592.7823" y2="592.7823"/><g data-visibility-modifier="PUBLIC_METHOD"><ellipse cx="411.29" cy="604.3963" fill="#84BE84" rx="3" ry="3" style="stroke:#038048;stroke-width:1;"/></g><text fill="#053583" font-family="Casual" font-size="12" lengthAdjust="spacing" text-decoration="underline" textLength="617.9639" x="420.29" y="606.3823">ConfigureDiagnostics(loggerFactory : ILoggerFactory, startupDiagnosticSink : IStartupDiagnosticSink = null) : void</text><g data-visibility-modifier="PUBLIC_METHOD"><ellipse cx="411.29" cy="616.6243" fill="#84BE84" rx="3" ry="3" style="stroke:#038048;stroke-width:1;"/></g><text fill="#053583" font-family="Casual" font-size="12" lengthAdjust="spacing" text-decoration="underline" textLength="348.12" x="420.29" y="618.6103">ParseDateTime(datetimeInDATEFORMAT : string) : DateTimeOffset</text><g data-visibility-modifier="PUBLIC_METHOD"><ellipse cx="411.29" cy="628.8523" fill="#84BE84" rx="3" ry="3" style="stroke:#038048;stroke-width:1;"/></g><text fill="#053583" font-family="Casual" font-size="12" lengthAdjust="spacing" text-decoration="underline" textLength="255.636" x="420.29" y="630.8383">Escape(s : string, mode : EscapeMode) : string</text><g data-visibility-modifier="PUBLIC_METHOD"><ellipse cx="411.29" cy="641.0803" fill="#84BE84" rx="3" ry="3" style="stroke:#038048;stroke-width:1;"/></g><text fill="#053583" font-family="Casual" font-size="12" lengthAdjust="spacing" text-decoration="underline" textLength="176.604" x="420.29" y="643.0663">NormPath(path : string) : string</text><g data-visibility-modifier="PUBLIC_METHOD"><ellipse cx="411.29" cy="653.3083" fill="#84BE84" rx="3" ry="3" style="stroke:#038048;stroke-width:1;"/></g><text fill="#053583" font-family="Casual" font-size="12" lengthAdjust="spacing" text-decoration="underline" textLength="185.016" x="420.29" y="655.2943">NormSeperator(s : string) : string</text><g data-visibility-modifier="PUBLIC_METHOD"><ellipse cx="411.29" cy="665.5363" fill="#84BE84" rx="3" ry="3" style="stroke:#038048;stroke-width:1;"/></g><text fill="#053583" font-family="Casual" font-size="12" lengthAdjust="spacing" text-decoration="underline" textLength="205.296" x="420.29" y="667.5223">NewShortId(length : int = 4) : string</text><g data-visibility-modifier="PUBLIC_METHOD"><ellipse cx="411.29" cy="677.7643" fill="#84BE84" rx="3" ry="3" style="stroke:#038048;stroke-width:1;"/></g><text fill="#053583" font-family="Casual" font-size="12" lengthAdjust="spacing" text-decoration="underline" textLength="202.26" x="420.29" y="679.7503">EscapeParam(param : string) : string</text><g data-visibility-modifier="PUBLIC_METHOD"><ellipse cx="411.29" cy="689.9923" fill="#84BE84" rx="3" ry="3" style="stroke:#038048;stroke-width:1;"/></g><text fill="#053583" font-family="Casual" font-size="12" lengthAdjust="spacing" text-decoration="underline" textLength="192.504" x="420.29" y="691.9783">EscapeBlank(name : string) : string</text><g data-visibility-modifier="PUBLIC_METHOD"><ellipse cx="411.29" cy="702.2203" fill="#84BE84" rx="3" ry="3" style="stroke:#038048;stroke-width:1;"/></g><text fill="#053583" font-family="Casual" font-size="12" lengthAdjust="spacing" text-decoration="underline" textLength="208.944" x="420.29" y="704.2063">WinInternal(fullname : string) : string</text></g><!--class LegendSample--><g class="entity" data-qualified-name="LegendSample" data-source-line="113" id="ent0018"><rect fill="#CCFBF1" height="235.192" rx="2.5" ry="2.5" style="stroke:#0F766E;stroke-width:0.5;" width="158.54" x="9" y="44.4883"/><ellipse cx="52.3254" cy="60.4883" fill="#ADD1B2" rx="11" ry="11" style="stroke:#181818;stroke-width:1;"/><path d="M54.7985,66.6313 Q54.2175,66.9302 53.5783,67.0796 Q52.9392,67.229 52.2336,67.229 Q49.7268,67.229 48.4069,65.5771 Q47.0871,63.9253 47.0871,60.8042 Q47.0871,57.6748 48.4069,56.0229 Q49.7268,54.3711 52.2336,54.3711 Q52.9392,54.3711 53.5866,54.5205 Q54.2341,54.6699 54.7985,54.9688 L54.7985,57.6914 Q54.1677,57.1104 53.5742,56.8406 Q52.9807,56.5708 52.3498,56.5708 Q51.0051,56.5708 50.3203,57.6375 Q49.6355,58.7041 49.6355,60.8042 Q49.6355,62.896 50.3203,63.9626 Q51.0051,65.0293 52.3498,65.0293 Q52.9807,65.0293 53.5742,64.7595 Q54.1677,64.4897 54.7985,63.9087 Z " fill="#000000"/><text fill="#111827" font-family="Casual" font-size="12" lengthAdjust="spacing" textLength="35.04" x="72.6199" y="63.9743">Legend</text><text fill="#111827" font-family="Casual" font-size="10" lengthAdjust="spacing" textLength="28.5547" x="107.6599" y="64.4123">&#9416;&#9398;&#9413;</text><line style="stroke:#0F766E;stroke-width:0.5;" x1="10" x2="166.54" y1="76.4883" y2="76.4883"/><g data-visibility-modifier="PUBLIC_METHOD"><ellipse cx="20" cy="88.1023" fill="#84BE84" rx="3" ry="3" style="stroke:#038048;stroke-width:1;"/></g><text fill="#053583" font-family="Casual" font-size="12" lengthAdjust="spacing" text-decoration="underline" textLength="113.232" x="29" y="90.0883">staticMethod() : void</text><g data-visibility-modifier="PRIVATE_FIELD"><rect fill="none" height="6" style="stroke:#C82930;stroke-width:1;" width="6" x="17" y="97.3303"/></g><text fill="#053583" font-family="Casual" font-size="12" lengthAdjust="spacing" text-decoration="underline" textLength="121.092" x="29" y="102.3163">staticProperty : string</text><line style="stroke:#0F766E;stroke-width:1;" x1="10" x2="166.54" y1="108.9443" y2="108.9443"/><line style="stroke:#0F766E;stroke-width:1;" x1="10" x2="166.54" y1="110.9443" y2="110.9443"/><g data-visibility-modifier="PACKAGE_PRIVATE_FIELD"><polygon fill="none" points="20,116.5583,16,122.5583,24,122.5583" style="stroke:#1963A0;stroke-width:1;"/></g><text fill="#053583" font-family="Casual" font-size="12" font-style="italic" lengthAdjust="spacing" textLength="132.312" x="29" y="122.5443">Note on class markers :</text><text fill="#053583" font-family="Casual" font-size="10" lengthAdjust="spacing" textLength="10" x="29" y="135.2103">&#9416;</text><text fill="#053583" font-family="Casual" font-size="12" lengthAdjust="spacing" textLength="24.756" x="39" y="134.7723">tatic</text><text fill="#053583" font-family="Casual" font-size="10" lengthAdjust="spacing" textLength="10" x="29" y="147.4383">&#9398;</text><text fill="#053583" font-family="Casual" font-size="12" lengthAdjust="spacing" textLength="38.064" x="39" y="147.0003">bstract</text><text fill="#053583" font-family="Casual" font-size="12" lengthAdjust="spacing" textLength="39.8816" x="29" y="159.2283">&#9413;artial</text><line style="stroke:#0F766E;stroke-width:1;" x1="10" x2="166.54" y1="165.8563" y2="165.8563"/><g data-visibility-modifier="PRIVATE_FIELD"><rect fill="none" height="6" style="stroke:#C82930;stroke-width:1;" width="6" x="17" y="174.4703"/></g><text fill="#053583" font-family="Casual" font-size="12" lengthAdjust="spacing" textLength="108.132" x="29" y="179.4563">privateField : string</text><g data-visibility-modifier="PUBLIC_FIELD"><ellipse cx="20" cy="189.6983" fill="none" rx="3" ry="3" style="stroke:#038048;stroke-width:1;"/></g><text fill="#053583" font-family="Casual" font-size="12" lengthAdjust="spacing" textLength="102.516" x="29" y="191.6843">publicField : string</text><g data-visibility-modifier="PROTECTED_FIELD"><polygon fill="none" points="20,196.9263,24,200.9263,20,204.9263,16,200.9263" style="stroke:#B38D22;stroke-width:1;"/></g><text fill="#053583" font-family="Casual" font-size="12" lengthAdjust="spacing" textLength="120.324" x="29" y="203.9123">protectedField : string</text><g data-visibility-modifier="PACKAGE_PRIVATE_FIELD"><polygon fill="none" points="20,210.1543,16,216.1543,24,216.1543" style="stroke:#1963A0;stroke-width:1;"/></g><text fill="#053583" font-family="Casual" font-size="12" lengthAdjust="spacing" textLength="112.068" x="29" y="216.1403">internalField : string</text><line style="stroke:#0F766E;stroke-width:1;" x1="10" x2="166.54" y1="222.7683" y2="222.7683"/><g data-visibility-modifier="PRIVATE_METHOD"><rect fill="#F24D5C" height="6" style="stroke:#C82930;stroke-width:1;" width="6" x="17" y="231.3823"/></g><text fill="#053583" font-family="Casual" font-size="12" lengthAdjust="spacing" textLength="120.348" x="29" y="236.3683">privateMethod() : void</text><g data-visibility-modifier="PUBLIC_METHOD"><ellipse cx="20" cy="246.6103" fill="#84BE84" rx="3" ry="3" style="stroke:#038048;stroke-width:1;"/></g><text fill="#053583" font-family="Casual" font-size="12" lengthAdjust="spacing" textLength="114.732" x="29" y="248.5963">publicMethod() : void</text><g data-visibility-modifier="PROTECTED_METHOD"><polygon fill="#FFFF44" points="20,253.8383,24,257.8383,20,261.8383,16,257.8383" style="stroke:#B38D22;stroke-width:1;"/></g><text fill="#053583" font-family="Casual" font-size="12" lengthAdjust="spacing" textLength="132.54" x="29" y="260.8243">protectedMethod() : void</text><g data-visibility-modifier="PACKAGE_PRIVATE_METHOD"><polygon fill="#4177AF" points="20,267.0663,16,273.0663,24,273.0663" style="stroke:#1963A0;stroke-width:1;"/></g><text fill="#053583" font-family="Casual" font-size="12" lengthAdjust="spacing" textLength="124.284" x="29" y="273.0523">internalMethod() : void</text></g><g class="entity" data-qualified-name="GMN19" data-source-line="134" id="ent0020"><path d="M1471.03,785.8383 L1471.03,979.5648 L1663.5119,979.5648 L1663.5119,795.8383 L1653.5119,785.8383 L1471.03,785.8383" fill="#FFF7D6" style="stroke:#D4B106;stroke-width:0.5;"/><path d="M1653.5119,785.8383 L1653.5119,795.8383 L1663.5119,795.8383 L1653.5119,785.8383" fill="#FFF7D6" style="stroke:#D4B106;stroke-width:1;"/><text fill="#000000" font-family="sans-serif" font-size="13" lengthAdjust="spacing" textLength="124.9282" x="1477.03" y="803.4066">Os is a static partial</text><text fill="#000000" font-family="sans-serif" font-size="13" lengthAdjust="spacing" textLength="138.4106" x="1477.03" y="818.7172">class composed from:</text><text fill="#000000" font-family="sans-serif" font-size="13" lengthAdjust="spacing" textLength="45.7603" x="1477.03" y="834.0277">- Os.cs</text><text fill="#000000" font-family="sans-serif" font-size="13" lengthAdjust="spacing" textLength="91.5649" x="1477.03" y="849.3383">- Os.Config.cs</text><text fill="#000000" font-family="sans-serif" font-size="13" lengthAdjust="spacing" textLength="123.2397" x="1477.03" y="864.6488">- Os.Diagnostics.cs</text><text fill="#000000" font-family="sans-serif" font-size="13" lengthAdjust="spacing" textLength="133.4468" x="1477.03" y="879.9594">- CloudPathWiring.cs</text><text fill="#000000" font-family="sans-serif" font-size="13" lengthAdjust="spacing" textLength="149.2588" x="1477.03" y="895.2699">Current config model is</text><text fill="#000000" font-family="sans-serif" font-size="13" lengthAdjust="spacing" textLength="171.4819" x="1477.03" y="910.5805">dynamic (`RAIkeep.json5`)</text><text fill="#000000" font-family="sans-serif" font-size="13" lengthAdjust="spacing" textLength="145.9834" x="1477.03" y="925.891">with lazy loading and a</text><text fill="#000000" font-family="sans-serif" font-size="13" lengthAdjust="spacing" textLength="154.3052" x="1477.03" y="941.2016">RaiPath delegate firewall</text><text fill="#000000" font-family="sans-serif" font-size="13" lengthAdjust="spacing" textLength="147.1768" x="1477.03" y="956.5121">rather than a dedicated</text><text fill="#000000" font-family="sans-serif" font-size="13" lengthAdjust="spacing" textLength="157.2759" x="1477.03" y="971.8227">config-file wrapper type.</text></g><!--link Os to OsType--><g class="link" data-entity-1="ent0009" data-entity-2="ent0004" data-link-type="dependency" data-source-line="104" id="lnk10"><path codeLine="104" d="M686.04,711.2983 C676.2,759.5483 667.6188,801.5593 660.9588,834.2193" fill="none" id="Os-to-OsType" style="stroke:#9B2C2C;stroke-width:1;stroke-dasharray:7,7;"/><polygon fill="#9B2C2C" points="659.76,840.0983,665.4776,832.079,660.759,835.1991,657.6389,830.4805,659.76,840.0983" style="stroke:#9B2C2C;stroke-width:1;"/><text fill="#374151" font-family="'Casual'" font-size="13" lengthAdjust="spacing" textLength="23.53" x="679.32" y="752.2383">uses</text></g><!--link Os to EscapeMode--><g class="link" data-entity-1="ent0009" data-entity-2="ent0003" data-link-type="dependency" data-source-line="105" id="lnk11"><path codeLine="105" d="M615.12,711.2983 C587.81,756.5283 563.811,796.3117 544.281,828.6617" fill="none" id="Os-to-EscapeMode" style="stroke:#9B2C2C;stroke-width:1;stroke-dasharray:7,7;"/><polygon fill="#9B2C2C" points="541.18,833.7983,549.2558,828.1608,543.7641,829.5178,542.4071,824.0262,541.18,833.7983" style="stroke:#9B2C2C;stroke-width:1;"/><text fill="#374151" font-family="'Casual'" font-size="13" lengthAdjust="spacing" textLength="23.53" x="593.29" y="752.2383">uses</text></g><!--link Os to RaiPath--><g class="link" data-entity-1="ent0009" data-entity-2="ent0007" data-link-type="dependency" data-source-line="106" id="lnk12"><path codeLine="106" d="M400.21,697.7983 C391.14,702.2183 382.15,706.5683 373.27,710.8383 C344.23,724.7983 324.71,713.7483 307.27,740.8383 C290.92,766.2283 289.5369,793.9623 293.3269,822.0223" fill="none" id="Os-to-RaiPath" style="stroke:#9B2C2C;stroke-width:1;stroke-dasharray:7,7;"/><polygon fill="#9B2C2C" points="294.13,827.9683,296.8893,818.5139,293.4607,823.0133,288.9613,819.5847,294.13,827.9683" style="stroke:#9B2C2C;stroke-width:1;"/><text fill="#374151" font-family="'Casual'" font-size="13" lengthAdjust="spacing" textLength="85.514" x="308.27" y="752.2383">path contracts</text></g><!--link RaiPath to Os--><g class="link" data-entity-1="ent0007" data-entity-2="ent0009" data-link-type="dependency" data-source-line="111" id="lnk17"><path codeLine="111" d="M370.6,827.7083 C401.5,801.4183 439.26,769.4083 473.27,740.8383 C484.79,731.1583 492.0086,725.0988 503.9586,715.0988" fill="none" id="RaiPath-to-Os" style="stroke:#9B2C2C;stroke-width:1;stroke-dasharray:7,7;"/><polygon fill="#9B2C2C" points="508.56,711.2483,499.0908,713.9565,504.7255,714.4571,504.2249,720.0917,508.56,711.2483" style="stroke:#9B2C2C;stroke-width:1;"/><text fill="#374151" font-family="'Casual'" font-size="13" lengthAdjust="spacing" textLength="109.46" x="474.27" y="752.2383">path normalization</text></g><!--link Os to RaiFile--><g class="link" data-entity-1="ent0009" data-entity-2="ent0008" data-link-type="dependency" data-source-line="107" id="lnk13"><path codeLine="107" d="M970.25,711.2983 C1022.2,748.4883 1068.9711,781.9759 1110.8111,811.9259" fill="none" id="Os-to-RaiFile" style="stroke:#9B2C2C;stroke-width:1;stroke-dasharray:7,7;"/><polygon fill="#9B2C2C" points="1115.69,815.4183,1110.7,806.9271,1111.6243,812.508,1106.0435,813.4323,1115.69,815.4183" style="stroke:#9B2C2C;stroke-width:1;"/><text fill="#374151" font-family="'Casual'" font-size="13" lengthAdjust="spacing" textLength="122.707" x="1024.09" y="752.2383">config file resolution</text></g><!--link Os to IStartupDiagnosticSink--><g class="link" data-entity-1="ent0009" data-entity-2="ent0005" data-link-type="dependency" data-source-line="108" id="lnk14"><path codeLine="108" d="M780.95,711.2983 C799,765.9183 815.017,814.3714 825.637,846.5014" fill="none" id="Os-to-IStartupDiagnosticSink" style="stroke:#9B2C2C;stroke-width:1;stroke-dasharray:7,7;"/><polygon fill="#9B2C2C" points="827.52,852.1983,828.4934,842.3976,825.9508,847.4509,820.8976,844.9083,827.52,852.1983" style="stroke:#9B2C2C;stroke-width:1;"/><text fill="#374151" font-family="'Casual'" font-size="13" lengthAdjust="spacing" textLength="91.559" x="794.45" y="752.2383">diagnostics sink</text></g><!--link CloudPathWiring to Os--><g class="link" data-entity-1="ent0006" data-entity-2="ent0009" data-link-type="dependency" data-source-line="109" id="lnk15"><path codeLine="109" d="M424.24,192.6283 C455.77,228.5183 507.6198,287.5008 562.4698,349.9308" fill="none" id="CloudPathWiring-to-Os" style="stroke:#9B2C2C;stroke-width:1;stroke-dasharray:7,7;"/><polygon fill="#9B2C2C" points="566.43,354.4383,563.4947,345.037,563.1299,350.6821,557.4848,350.3172,566.43,354.4383" style="stroke:#9B2C2C;stroke-width:1;"/><text fill="#374151" font-family="'Casual'" font-size="13" lengthAdjust="spacing" textLength="98.423" x="532.25" y="321.0783">boot-state check</text></g><!--link CloudPathWiring to RaiPath--><g class="link" data-entity-1="ent0006" data-entity-2="ent0007" data-link-type="dependency" data-source-line="110" id="lnk16"><path codeLine="110" d="M373.09,192.4583 C344.38,228.0883 299.1,291.2683 281.27,354.6783 C234.22,522.0183 269.8545,724.9811 292.1445,821.8511" fill="none" id="CloudPathWiring-to-RaiPath" style="stroke:#9B2C2C;stroke-width:1;stroke-dasharray:7,7;"/><polygon fill="#9B2C2C" points="293.49,827.6983,295.37,818.0305,292.3688,822.8256,287.5737,819.8244,293.49,827.6983" style="stroke:#9B2C2C;stroke-width:1;"/><text fill="#374151" font-family="'Casual'" font-size="13" lengthAdjust="spacing" textLength="100.672" x="282.27" y="536.6583">assigns evaluator</text></g><!--link Os to GMN19--><g class="link" data-entity-1="ent0009" data-entity-2="ent0020" data-link-type="association" data-source-line="134" id="lnk21"><path d="M1044.3,617.3283 C1175.48,658.3083 1325.72,714.4283 1452.27,785.8383 C1458.5,789.3483 1464.71,793.2183 1470.85,797.3083" fill="none" id="Os-GMN19" style="stroke:#9B2C2C;stroke-width:1;stroke-dasharray:7,7;"/></g><?plantuml-src ZLVDRjiu43vRJq4aXtLGnnldluRhXUiug86a2U8KEImMA2MDRAufKY2fk6wHtXROS_ikVQ0-oGubsQOLATrBBCryccyulynlv0uuK0rTSjG-RtSypp33WTpeA-RZNpBaL6jomUXKqTZpz9o9XE8ZyMamdogPYd0ekLHaCMC67BsUqL0kc9YIY7BjQWfZbrAOzpG6iZEaEgLyfneoOP-179qwoiobbxvU0sg-7HYZc9yQ60TIP9ZEGIrcJPJpl8ZB8x5xS79qSdxq8l81s7HcY90g_eNDtB_3CkOQp4o6lup21lPBEuLB9mSlns9YbbWVrOw_bIe4jOf2T7Pw2iyWfRBP3OB8ZpfLsIi0dKxd_F3C0On46cyn-SSdHmUlouWoKGJHKL2su_2S1OVXLdpUImFFhKJHMNXQHhdUXCT-vy1539IIYqBvsZyC3eEoql7YwEouSzAf0cpdsTCpkI01Km47pqlGJJf5TTQtE-IBrm0y7TdfQKnxjtFU7-c09d0jG-ZzRcNz7K8rsKX9hqUQezPkTF8Q3lmzqkzR8mqX4OA_FgTYdZzcRXLIfDMOhXc4NkF9UqPwe--NoHPXBgaXUs02HuR6fsiQt4pmzuEV2fFcjfame28QW4CmdXYgJ9hOUI6aDYoOC35t2QiH6Tsh1uKZQuJnLSqOjBO1x1ADjIwcU_ZqA5bnh20RWXlQ8PTfU4lDx85PiCjNKkL4NxIXoFn4ne8PHZcYcoypt55cZRYM2r79OiOtUgGyfGRhfqikKn7qyaEqY2ybxrjy1aEj5TZtmbXJhqzCtf2TziwUgvHc1jPayRwbYtBv9UEmLti4goqTmOho8nGlpGZ_25lRwzYxscJ3to9RC7HOf9ot27moPU7ULemk8A8fDvEb26wLJEWKnL9S0AVBQni0h2p4umUF34k5yYSIpqEciXGLtEjokLGo7cYqrDGoLO5rPs8KqBX50kl6a8e0ECyOxkKS17eKvlpMt3tLy-nuGCC1vs-N1dHkxlz-tVFncp__oh9gfrD83GpHWUmJ5aCpDG52Br1iNriagJdo7wjOrHVYuJ6sS950ylFxlp-__rDqSQaAByPtwnIK5PFHxUXkS7zJWnXDXeFRqV3TeCx2u7vqUNDtFRYlrcVpf5iCbkrcqyL0SUhUKMOpfbhrGR1FLsmErTeh9j9QzGSDwfsCuOAfxUfP8mP9SYUbgGVSGvpKQwzaGBbDVFe2Q2X5nAQe39VOComedI1NNqaQGbXrYA9XSfXjGqjg2yXDmVv-1MMgO3DfTPFBwHJK9GrmDYtnu_6LAsYXiQhXtAsRskM2TUXlgTAmAlgcRGg33sDHKJvxJdlSH946irsGsKvq9cEBn7P1TfrjkLTTY-_nLfHDnyGEQfUl1Zo119GTt0vT7HmMavbKPXmsSLvEC_lOnHYJuvelSdTlxRfkvdU9Nr3a7xorgxwvFP6hyTXUOxkK1UND21DJ-ysJXwC5XqQxtL_T0BearQ1NGkSUigrOBRqkoKAAztMZi7XSVRPHkbPbIzvk4w90IvxQWbtXQWeA6sHJhKIZo2ilyDpdl4lClZqwa606GJLouo-EKJOLci1gDtihtTfYTgJy9iq-P_tbUSNylO8fYB3OfGTzEtk__S3nwsxJ73EXSPAlr4rYyj_yQkzSDFPB0BiCGPcbawatRxp6rnxhsrijmNxFtOcfceD2btk_Crmyhbk5GvazL_FjHw7nTPOnhu7UOmhmzkDbesCV5nDxn6XUCk2Xuy8hagG-Pq5PlcitcO70G5XMVIMigCEoPelfMK1MLCyK3jSptOQihC8Y5pPklZH6naH6c6QlWQbccj0YvfZq8WXvQ0CP9rBZ68xmOj6rpjxeTg2BXtoeRjwTsLe8IqMOIOUfKe2ZeMW9Exqu-k0rYcr0cX_l1kCvGDB-MqjnyX6lImk6jSZfvoNXk1PiELCH4kerLbMBDc1gYpzY2XQKumbmSjaBefbHWUV3NS9mIzX_1NBY_QmN5uecYKLXrxSzB5XYO-Jz1m00?></g></svg>