<?plantuml 1.2026.2?><svg xmlns="http://www.w3.org/2000/svg" xmlns:xlink="http://www.w3.org/1999/xlink" contentStyleType="text/css" data-diagram-type="CLASS" height="627px" preserveAspectRatio="none" style="width:1326px;height:627px;background:#FFFFFF;" version="1.1" viewBox="0 0 1326 627" width="1326px" zoomAndPan="magnify"><title>RaiFile and RaiPath Descendants With Namespaces</title><defs/><g><g class="title" data-source-line="3"><text fill="#000000" font-family="sans-serif" font-size="14" font-weight="bold" lengthAdjust="spacing" textLength="365.8867" x="473.0566" y="23.5352">RaiFile and RaiPath Descendants With Namespaces</text></g><!--cluster OsLib--><g class="cluster" data-qualified-name="OsLib" data-source-line="34" id="ent0002"><path d="M377.5,157.4883 L419.9121,157.4883 A3.75,3.75 0 0 1 422.4121,159.9883 L429.4121,179.9766 L995.5,179.9766 A2.5,2.5 0 0 1 998,182.4766 L998,618.1283 A2.5,2.5 0 0 1 995.5,620.6283 L377.5,620.6283 A2.5,2.5 0 0 1 375,618.1283 L375,159.9883 A2.5,2.5 0 0 1 377.5,157.4883" fill="none" style="stroke:#000000;stroke-width:1.5;"/><line style="stroke:#000000;stroke-width:1.5;" x1="375" x2="429.4121" y1="179.9766" y2="179.9766"/><text fill="#000000" font-family="sans-serif" font-size="14" font-weight="bold" lengthAdjust="spacing" textLength="41.4121" x="379" y="173.0234">OsLib</text></g><!--cluster RaiImage--><g class="cluster" data-qualified-name="RaiImage" data-source-line="53" id="ent0012"><path d="M8.5,43.4883 L75.8291,43.4883 A3.75,3.75 0 0 1 78.3291,45.9883 L85.3291,65.9766 L348.5,65.9766 A2.5,2.5 0 0 1 351,68.4766 L351,237.9883 A2.5,2.5 0 0 1 348.5,240.4883 L8.5,240.4883 A2.5,2.5 0 0 1 6,237.9883 L6,45.9883 A2.5,2.5 0 0 1 8.5,43.4883" fill="none" style="stroke:#000000;stroke-width:1.5;"/><line style="stroke:#000000;stroke-width:1.5;" x1="6" x2="85.3291" y1="65.9766" y2="65.9766"/><text fill="#000000" font-family="sans-serif" font-size="14" font-weight="bold" lengthAdjust="spacing" textLength="66.3291" x="10" y="59.0234">RaiImage</text></g><!--cluster JsonPit--><g class="cluster" data-qualified-name="JsonPit" data-source-line="59" id="ent0016"><path d="M1024.5,43.4883 L1076.2227,43.4883 A3.75,3.75 0 0 1 1078.7227,45.9883 L1085.7227,65.9766 L1316.5,65.9766 A2.5,2.5 0 0 1 1319,68.4766 L1319,237.9883 A2.5,2.5 0 0 1 1316.5,240.4883 L1024.5,240.4883 A2.5,2.5 0 0 1 1022,237.9883 L1022,45.9883 A2.5,2.5 0 0 1 1024.5,43.4883" fill="none" style="stroke:#000000;stroke-width:1.5;"/><line style="stroke:#000000;stroke-width:1.5;" x1="1022" x2="1085.7227" y1="65.9766" y2="65.9766"/><text fill="#000000" font-family="sans-serif" font-size="14" font-weight="bold" lengthAdjust="spacing" textLength="50.7227" x="1026" y="59.0234">JsonPit</text></g><!--class RaiFile--><g class="entity" data-qualified-name="OsLib.RaiFile" data-source-line="35" id="ent0003"><rect fill="#CCFBF1" height="32" rx="2.5" ry="2.5" style="stroke:#0F766E;stroke-width:0.5;" width="83.714" x="626.14" y="400.7183"/><ellipse cx="641.14" cy="416.7183" fill="#ADD1B2" rx="11" ry="11" style="stroke:#181818;stroke-width:1;"/><path d="M643.6131,422.8613 Q643.0321,423.1602 642.3929,423.3096 Q641.7538,423.459 641.0482,423.459 Q638.5414,423.459 637.2215,421.8071 Q635.9017,420.1553 635.9017,417.0342 Q635.9017,413.9048 637.2215,412.2529 Q638.5414,410.6011 641.0482,410.6011 Q641.7538,410.6011 642.4012,410.7505 Q643.0487,410.8999 643.6131,411.1988 L643.6131,413.9214 Q642.9823,413.3404 642.3888,413.0706 Q641.7953,412.8008 641.1644,412.8008 Q639.8197,412.8008 639.1349,413.8675 Q638.4501,414.9341 638.4501,417.0342 Q638.4501,419.126 639.1349,420.1926 Q639.8197,421.2593 641.1644,421.2593 Q641.7953,421.2593 642.3888,420.9895 Q642.9823,420.7197 643.6131,420.1387 Z " fill="#000000"/><text fill="#111827" font-family="Casual" font-size="18" lengthAdjust="spacing" textLength="51.714" x="655.14" y="421.9473">RaiFile</text></g><!--class RaiPath--><g class="entity" data-qualified-name="OsLib.RaiPath" data-source-line="36" id="ent0004"><rect fill="#CCFBF1" height="32" rx="2.5" ry="2.5" style="stroke:#0F766E;stroke-width:0.5;" width="91.904" x="391.05" y="192.4883"/><ellipse cx="406.05" cy="208.4883" fill="#ADD1B2" rx="11" ry="11" style="stroke:#181818;stroke-width:1;"/><path d="M408.5231,214.6313 Q407.9421,214.9302 407.3029,215.0796 Q406.6638,215.229 405.9582,215.229 Q403.4514,215.229 402.1315,213.5771 Q400.8117,211.9253 400.8117,208.8042 Q400.8117,205.6748 402.1315,204.0229 Q403.4514,202.3711 405.9582,202.3711 Q406.6638,202.3711 407.3112,202.5205 Q407.9587,202.6699 408.5231,202.9688 L408.5231,205.6914 Q407.8923,205.1104 407.2988,204.8406 Q406.7053,204.5708 406.0744,204.5708 Q404.7297,204.5708 404.0449,205.6375 Q403.3601,206.7041 403.3601,208.8042 Q403.3601,210.896 404.0449,211.9626 Q404.7297,213.0293 406.0744,213.0293 Q406.7053,213.0293 407.2988,212.7595 Q407.8923,212.4897 408.5231,211.9087 Z " fill="#000000"/><text fill="#111827" font-family="Casual" font-size="18" lengthAdjust="spacing" textLength="59.904" x="420.05" y="213.7173">RaiPath</text></g><!--class TextFile--><g class="entity" data-qualified-name="OsLib.TextFile" data-source-line="37" id="ent0005"><rect fill="#CCFBF1" height="32" rx="2.5" ry="2.5" style="stroke:#0F766E;stroke-width:0.5;" width="92.984" x="390.51" y="287.4883"/><ellipse cx="405.51" cy="303.4883" fill="#ADD1B2" rx="11" ry="11" style="stroke:#181818;stroke-width:1;"/><path d="M407.9831,309.6313 Q407.4021,309.9302 406.7629,310.0796 Q406.1238,310.229 405.4182,310.229 Q402.9114,310.229 401.5915,308.5771 Q400.2717,306.9253 400.2717,303.8042 Q400.2717,300.6748 401.5915,299.0229 Q402.9114,297.3711 405.4182,297.3711 Q406.1238,297.3711 406.7712,297.5205 Q407.4187,297.6699 407.9831,297.9688 L407.9831,300.6914 Q407.3523,300.1104 406.7588,299.8406 Q406.1653,299.5708 405.5344,299.5708 Q404.1897,299.5708 403.5049,300.6375 Q402.8201,301.7041 402.8201,303.8042 Q402.8201,305.896 403.5049,306.9626 Q404.1897,308.0293 405.5344,308.0293 Q406.1653,308.0293 406.7588,307.7595 Q407.3523,307.4897 407.9831,306.9087 Z " fill="#000000"/><text fill="#111827" font-family="Casual" font-size="18" lengthAdjust="spacing" textLength="60.984" x="419.51" y="308.7173">TextFile</text></g><!--class CsvFile--><g class="entity" data-qualified-name="OsLib.CsvFile" data-source-line="38" id="ent0006"><rect fill="#CCFBF1" height="32" rx="2.5" ry="2.5" style="stroke:#0F766E;stroke-width:0.5;" width="84.542" x="517.73" y="192.4883"/><ellipse cx="532.73" cy="208.4883" fill="#ADD1B2" rx="11" ry="11" style="stroke:#181818;stroke-width:1;"/><path d="M535.2031,214.6313 Q534.6221,214.9302 533.9829,215.0796 Q533.3438,215.229 532.6382,215.229 Q530.1314,215.229 528.8115,213.5771 Q527.4917,211.9253 527.4917,208.8042 Q527.4917,205.6748 528.8115,204.0229 Q530.1314,202.3711 532.6382,202.3711 Q533.3438,202.3711 533.9912,202.5205 Q534.6387,202.6699 535.2031,202.9688 L535.2031,205.6914 Q534.5723,205.1104 533.9788,204.8406 Q533.3853,204.5708 532.7544,204.5708 Q531.4097,204.5708 530.7249,205.6375 Q530.0401,206.7041 530.0401,208.8042 Q530.0401,210.896 530.7249,211.9626 Q531.4097,213.0293 532.7544,213.0293 Q533.3853,213.0293 533.9788,212.7595 Q534.5723,212.4897 535.2031,211.9087 Z " fill="#000000"/><text fill="#111827" font-family="Casual" font-size="18" lengthAdjust="spacing" textLength="52.542" x="546.73" y="213.7173">CsvFile</text></g><!--class TmpFile--><g class="entity" data-qualified-name="OsLib.TmpFile" data-source-line="39" id="ent0007"><rect fill="#CCFBF1" height="32" rx="2.5" ry="2.5" style="stroke:#0F766E;stroke-width:0.5;" width="90.464" x="686.77" y="287.4883"/><ellipse cx="701.77" cy="303.4883" fill="#ADD1B2" rx="11" ry="11" style="stroke:#181818;stroke-width:1;"/><path d="M704.2431,309.6313 Q703.6621,309.9302 703.0229,310.0796 Q702.3838,310.229 701.6782,310.229 Q699.1714,310.229 697.8515,308.5771 Q696.5317,306.9253 696.5317,303.8042 Q696.5317,300.6748 697.8515,299.0229 Q699.1714,297.3711 701.6782,297.3711 Q702.3838,297.3711 703.0312,297.5205 Q703.6787,297.6699 704.2431,297.9688 L704.2431,300.6914 Q703.6123,300.1104 703.0188,299.8406 Q702.4253,299.5708 701.7944,299.5708 Q700.4497,299.5708 699.7649,300.6375 Q699.0801,301.7041 699.0801,303.8042 Q699.0801,305.896 699.7649,306.9626 Q700.4497,308.0293 701.7944,308.0293 Q702.4253,308.0293 703.0188,307.7595 Q703.6123,307.4897 704.2431,306.9087 Z " fill="#000000"/><text fill="#111827" font-family="Casual" font-size="18" lengthAdjust="spacing" textLength="58.464" x="715.77" y="308.7173">TmpFile</text></g><!--class CanonicalFile--><g class="entity" data-qualified-name="OsLib.CanonicalFile" data-source-line="40" id="ent0008"><rect fill="#CCFBF1" height="32" rx="2.5" ry="2.5" style="stroke:#0F766E;stroke-width:0.5;" width="133.196" x="518.4" y="287.4883"/><ellipse cx="533.4" cy="303.4883" fill="#ADD1B2" rx="11" ry="11" style="stroke:#181818;stroke-width:1;"/><path d="M535.8731,309.6313 Q535.2921,309.9302 534.6529,310.0796 Q534.0138,310.229 533.3082,310.229 Q530.8014,310.229 529.4815,308.5771 Q528.1617,306.9253 528.1617,303.8042 Q528.1617,300.6748 529.4815,299.0229 Q530.8014,297.3711 533.3082,297.3711 Q534.0138,297.3711 534.6612,297.5205 Q535.3087,297.6699 535.8731,297.9688 L535.8731,300.6914 Q535.2423,300.1104 534.6488,299.8406 Q534.0553,299.5708 533.4244,299.5708 Q532.0797,299.5708 531.3949,300.6375 Q530.7101,301.7041 530.7101,303.8042 Q530.7101,305.896 531.3949,306.9626 Q532.0797,308.0293 533.4244,308.0293 Q534.0553,308.0293 534.6488,307.7595 Q535.2423,307.4897 535.8731,306.9087 Z " fill="#000000"/><text fill="#111827" font-family="Casual" font-size="18" lengthAdjust="spacing" textLength="101.196" x="547.4" y="308.7173">CanonicalFile</text></g><!--class ConfigFileT--><g class="entity" data-qualified-name="OsLib.ConfigFileT" data-source-line="41" id="ent0009"><rect fill="#CCFBF1" height="32" rx="2.5" ry="2.5" style="stroke:#0F766E;stroke-width:0.5;" width="169.988" x="812.01" y="287.4883"/><ellipse cx="827.01" cy="303.4883" fill="#A9DCDF" rx="11" ry="11" style="stroke:#181818;stroke-width:1;"/><path d="M826.8733,298.8364 L825.7195,303.9082 L828.0354,303.9082 Z M825.3791,296.5952 L828.3757,296.5952 L831.7209,308.9883 L829.2722,308.9883 L828.5085,305.9253 L825.2297,305.9253 L824.4827,308.9883 L822.0339,308.9883 Z " fill="#000000"/><text fill="#111827" font-family="Casual" font-size="18" font-style="italic" lengthAdjust="spacing" textLength="137.988" x="841.01" y="308.7173">ConfigFile&lt;TData&gt;</text></g><!--class IPathConvention--><g class="entity" data-qualified-name="OsLib.IPathConvention" data-source-line="42" id="ent0010"><rect fill="#CCFBF1" height="72.456" rx="2.5" ry="2.5" style="stroke:#0F766E;stroke-width:0.5;" width="200.312" x="390.84" y="380.4883"/><ellipse cx="425.0181" cy="396.4883" fill="#B4A7E5" rx="11" ry="11" style="stroke:#181818;stroke-width:1;"/><path d="M421.4458,392.7534 L421.4458,390.5952 L428.8252,390.5952 L428.8252,392.7534 L426.3599,392.7534 L426.3599,400.8301 L428.8252,400.8301 L428.8252,402.9883 L421.4458,402.9883 L421.4458,400.8301 L423.9112,400.8301 L423.9112,392.7534 Z " fill="#000000"/><text fill="#111827" font-family="Casual" font-size="18" font-style="italic" lengthAdjust="spacing" textLength="125.694" x="443.2799" y="401.7173">IPathConvention</text><line style="stroke:#0F766E;stroke-width:0.5;" x1="391.84" x2="590.152" y1="412.4883" y2="412.4883"/><g data-visibility-modifier="PUBLIC_FIELD"><ellipse cx="401.84" cy="424.1023" fill="none" rx="3" ry="3" style="stroke:#038048;stroke-width:1;"/></g><text fill="#053583" font-family="Casual" font-size="12" lengthAdjust="spacing" textLength="174.312" x="410.84" y="426.0883">Convention : PathConventionType</text><line style="stroke:#0F766E;stroke-width:0.5;" x1="391.84" x2="590.152" y1="432.7163" y2="432.7163"/><g data-visibility-modifier="PUBLIC_METHOD"><ellipse cx="401.84" cy="444.3303" fill="#84BE84" rx="3" ry="3" style="stroke:#038048;stroke-width:1;"/></g><text fill="#053583" font-family="Casual" font-size="12" lengthAdjust="spacing" textLength="153.54" x="410.84" y="446.3163">ApplyPathConvention() : void</text></g><!--class PathConventionType--><g class="entity" data-qualified-name="OsLib.PathConventionType" data-source-line="46" id="ent0011"><rect fill="#CCFBF1" height="76.684" rx="2.5" ry="2.5" style="stroke:#0F766E;stroke-width:0.5;" width="185.792" x="398.1" y="527.9483"/><ellipse cx="413.1" cy="543.9483" fill="#F59E0B" rx="11" ry="11" style="stroke:#181818;stroke-width:1;"/><path d="M416.7143,550.4483 L408.9945,550.4483 L408.9945,538.0552 L416.7143,538.0552 L416.7143,540.2134 L411.4433,540.2134 L411.4433,542.8863 L416.2162,542.8863 L416.2162,545.0445 L411.4433,545.0445 L411.4433,548.2901 L416.7143,548.2901 Z " fill="#000000"/><text fill="#111827" font-family="Casual" font-size="18" lengthAdjust="spacing" textLength="153.792" x="427.1" y="549.1773">PathConventionType</text><line style="stroke:#0F766E;stroke-width:0.5;" x1="399.1" x2="582.892" y1="559.9483" y2="559.9483"/><text fill="#053583" font-family="Casual" font-size="12" lengthAdjust="spacing" textLength="89.232" x="404.1" y="573.5483">CanonicalByName</text><text fill="#053583" font-family="Casual" font-size="12" lengthAdjust="spacing" textLength="75.9" x="404.1" y="585.7763">ItemIdTree3x3</text><text fill="#053583" font-family="Casual" font-size="12" lengthAdjust="spacing" textLength="75.9" x="404.1" y="598.0043">ItemIdTree8x2</text></g><!--class ImageFile--><g class="entity" data-qualified-name="RaiImage.ImageFile" data-source-line="54" id="ent0013"><rect fill="#CCFBF1" height="32" rx="2.5" ry="2.5" style="stroke:#0F766E;stroke-width:0.5;" width="107.042" x="227.48" y="192.4883"/><ellipse cx="242.48" cy="208.4883" fill="#ADD1B2" rx="11" ry="11" style="stroke:#181818;stroke-width:1;"/><path d="M244.9531,214.6313 Q244.3721,214.9302 243.7329,215.0796 Q243.0938,215.229 242.3882,215.229 Q239.8814,215.229 238.5615,213.5771 Q237.2417,211.9253 237.2417,208.8042 Q237.2417,205.6748 238.5615,204.0229 Q239.8814,202.3711 242.3882,202.3711 Q243.0938,202.3711 243.7412,202.5205 Q244.3887,202.6699 244.9531,202.9688 L244.9531,205.6914 Q244.3223,205.1104 243.7288,204.8406 Q243.1353,204.5708 242.5044,204.5708 Q241.1597,204.5708 240.4749,205.6375 Q239.7901,206.7041 239.7901,208.8042 Q239.7901,210.896 240.4749,211.9626 Q241.1597,213.0293 242.5044,213.0293 Q243.1353,213.0293 243.7288,212.7595 Q244.3223,212.4897 244.9531,211.9087 Z " fill="#000000"/><text fill="#111827" font-family="Casual" font-size="18" lengthAdjust="spacing" textLength="75.042" x="256.48" y="213.7173">ImageFile</text></g><!--class ImageTreeFile--><g class="entity" data-qualified-name="RaiImage.ImageTreeFile" data-source-line="55" id="ent0014"><rect fill="#CCFBF1" height="32" rx="2.5" ry="2.5" style="stroke:#0F766E;stroke-width:0.5;" width="140.756" x="21.62" y="78.4883"/><ellipse cx="36.62" cy="94.4883" fill="#ADD1B2" rx="11" ry="11" style="stroke:#181818;stroke-width:1;"/><path d="M39.0931,100.6313 Q38.5121,100.9302 37.8729,101.0796 Q37.2338,101.229 36.5282,101.229 Q34.0214,101.229 32.7015,99.5771 Q31.3817,97.9253 31.3817,94.8042 Q31.3817,91.6748 32.7015,90.0229 Q34.0214,88.3711 36.5282,88.3711 Q37.2338,88.3711 37.8812,88.5205 Q38.5287,88.6699 39.0931,88.9688 L39.0931,91.6914 Q38.4623,91.1104 37.8688,90.8406 Q37.2753,90.5708 36.6444,90.5708 Q35.2997,90.5708 34.6149,91.6375 Q33.9301,92.7041 33.9301,94.8042 Q33.9301,96.896 34.6149,97.9626 Q35.2997,99.0293 36.6444,99.0293 Q37.2753,99.0293 37.8688,98.7595 Q38.4623,98.4897 39.0931,97.9087 Z " fill="#000000"/><text fill="#111827" font-family="Casual" font-size="18" lengthAdjust="spacing" textLength="108.756" x="50.62" y="99.7173">ImageTreeFile</text></g><!--class ItemTreePath--><g class="entity" data-qualified-name="RaiImage.ItemTreePath" data-source-line="56" id="ent0015"><rect fill="#CCFBF1" height="32" rx="2.5" ry="2.5" style="stroke:#0F766E;stroke-width:0.5;" width="137.156" x="197.42" y="78.4883"/><ellipse cx="212.42" cy="94.4883" fill="#ADD1B2" rx="11" ry="11" style="stroke:#181818;stroke-width:1;"/><path d="M214.8931,100.6313 Q214.3121,100.9302 213.6729,101.0796 Q213.0338,101.229 212.3282,101.229 Q209.8214,101.229 208.5015,99.5771 Q207.1817,97.9253 207.1817,94.8042 Q207.1817,91.6748 208.5015,90.0229 Q209.8214,88.3711 212.3282,88.3711 Q213.0338,88.3711 213.6812,88.5205 Q214.3287,88.6699 214.8931,88.9688 L214.8931,91.6914 Q214.2623,91.1104 213.6688,90.8406 Q213.0753,90.5708 212.4444,90.5708 Q211.0997,90.5708 210.4149,91.6375 Q209.7301,92.7041 209.7301,94.8042 Q209.7301,96.896 210.4149,97.9626 Q211.0997,99.0293 212.4444,99.0293 Q213.0753,99.0293 213.6688,98.7595 Q214.2623,98.4897 214.8931,97.9087 Z " fill="#000000"/><text fill="#111827" font-family="Casual" font-size="18" lengthAdjust="spacing" textLength="105.156" x="226.42" y="99.7173">ItemTreePath</text></g><!--class PitFile--><g class="entity" data-qualified-name="JsonPit.PitFile" data-source-line="60" id="ent0017"><rect fill="#CCFBF1" height="32" rx="2.5" ry="2.5" style="stroke:#0F766E;stroke-width:0.5;" width="80.348" x="1222.83" y="78.4883"/><ellipse cx="1237.83" cy="94.4883" fill="#ADD1B2" rx="11" ry="11" style="stroke:#181818;stroke-width:1;"/><path d="M1240.3031,100.6313 Q1239.7221,100.9302 1239.0829,101.0796 Q1238.4438,101.229 1237.7382,101.229 Q1235.2314,101.229 1233.9115,99.5771 Q1232.5917,97.9253 1232.5917,94.8042 Q1232.5917,91.6748 1233.9115,90.0229 Q1235.2314,88.3711 1237.7382,88.3711 Q1238.4438,88.3711 1239.0912,88.5205 Q1239.7387,88.6699 1240.3031,88.9688 L1240.3031,91.6914 Q1239.6723,91.1104 1239.0788,90.8406 Q1238.4853,90.5708 1237.8544,90.5708 Q1236.5097,90.5708 1235.8249,91.6375 Q1235.1401,92.7041 1235.1401,94.8042 Q1235.1401,96.896 1235.8249,97.9626 Q1236.5097,99.0293 1237.8544,99.0293 Q1238.4853,99.0293 1239.0788,98.7595 Q1239.6723,98.4897 1240.3031,97.9087 Z " fill="#000000"/><text fill="#111827" font-family="Casual" font-size="18" lengthAdjust="spacing" textLength="48.348" x="1251.83" y="99.7173">PitFile</text></g><!--class MasterFlagFile--><g class="entity" data-qualified-name="JsonPit.MasterFlagFile" data-source-line="61" id="ent0018"><rect fill="#CCFBF1" height="32" rx="2.5" ry="2.5" style="stroke:#0F766E;stroke-width:0.5;" width="144.698" x="1038.65" y="192.4883"/><ellipse cx="1053.65" cy="208.4883" fill="#ADD1B2" rx="11" ry="11" style="stroke:#181818;stroke-width:1;"/><path d="M1056.1231,214.6313 Q1055.5421,214.9302 1054.9029,215.0796 Q1054.2638,215.229 1053.5582,215.229 Q1051.0514,215.229 1049.7315,213.5771 Q1048.4117,211.9253 1048.4117,208.8042 Q1048.4117,205.6748 1049.7315,204.0229 Q1051.0514,202.3711 1053.5582,202.3711 Q1054.2638,202.3711 1054.9112,202.5205 Q1055.5587,202.6699 1056.1231,202.9688 L1056.1231,205.6914 Q1055.4923,205.1104 1054.8988,204.8406 Q1054.3053,204.5708 1053.6744,204.5708 Q1052.3297,204.5708 1051.6449,205.6375 Q1050.9601,206.7041 1050.9601,208.8042 Q1050.9601,210.896 1051.6449,211.9626 Q1052.3297,213.0293 1053.6744,213.0293 Q1054.3053,213.0293 1054.8988,212.7595 Q1055.4923,212.4897 1056.1231,211.9087 Z " fill="#000000"/><text fill="#111827" font-family="Casual" font-size="18" lengthAdjust="spacing" textLength="112.698" x="1067.65" y="213.7173">MasterFlagFile</text></g><!--class ProcessFlagFile--><g class="entity" data-qualified-name="JsonPit.ProcessFlagFile" data-source-line="62" id="ent0019"><rect fill="#CCFBF1" height="32" rx="2.5" ry="2.5" style="stroke:#0F766E;stroke-width:0.5;" width="149.18" x="1038.41" y="78.4883"/><ellipse cx="1053.41" cy="94.4883" fill="#ADD1B2" rx="11" ry="11" style="stroke:#181818;stroke-width:1;"/><path d="M1055.8831,100.6313 Q1055.3021,100.9302 1054.6629,101.0796 Q1054.0238,101.229 1053.3182,101.229 Q1050.8114,101.229 1049.4915,99.5771 Q1048.1717,97.9253 1048.1717,94.8042 Q1048.1717,91.6748 1049.4915,90.0229 Q1050.8114,88.3711 1053.3182,88.3711 Q1054.0238,88.3711 1054.6712,88.5205 Q1055.3187,88.6699 1055.8831,88.9688 L1055.8831,91.6914 Q1055.2523,91.1104 1054.6588,90.8406 Q1054.0653,90.5708 1053.4344,90.5708 Q1052.0897,90.5708 1051.4049,91.6375 Q1050.7201,92.7041 1050.7201,94.8042 Q1050.7201,96.896 1051.4049,97.9626 Q1052.0897,99.0293 1053.4344,99.0293 Q1054.0653,99.0293 1054.6588,98.7595 Q1055.2523,98.4897 1055.8831,97.9087 Z " fill="#000000"/><text fill="#111827" font-family="Casual" font-size="18" lengthAdjust="spacing" textLength="117.18" x="1067.41" y="99.7173">ProcessFlagFile</text></g><!--link TextFile to RaiFile--><g class="link" data-entity-1="ent0005" data-entity-2="ent0003" data-link-type="extension" data-source-line="65" id="lnk20"><path codeLine="65" d="M475.54,319.9283 C510.82,334.4383 564.2,357.3283 609,380.4883 C620.66,386.5183 617.8331,384.4786 628.3331,390.8986" fill="none" id="TextFile-to-RaiFile" style="stroke:#9B2C2C;stroke-width:1;"/><polygon fill="none" points="643.69,400.2883,631.463,385.7797,625.2032,396.0176,643.69,400.2883" style="stroke:#9B2C2C;stroke-width:1;"/></g><!--link CsvFile to TextFile--><g class="link" data-entity-1="ent0006" data-entity-2="ent0005" data-link-type="extension" data-source-line="66" id="lnk21"><path codeLine="66" d="M539.69,224.8483 C516.9,242.0783 494.4976,259.0119 471.6976,276.2519" fill="none" id="CsvFile-to-TextFile" style="stroke:#9B2C2C;stroke-width:1;"/><polygon fill="none" points="457.34,287.1083,475.3164,281.0378,468.0788,271.4661,457.34,287.1083" style="stroke:#9B2C2C;stroke-width:1;"/></g><!--link TmpFile to RaiFile--><g class="link" data-entity-1="ent0007" data-entity-2="ent0003" data-link-type="extension" data-source-line="67" id="lnk22"><path codeLine="67" d="M723.1,319.9583 C710.87,341.2083 697.9888,363.5976 685.7988,384.7776" fill="none" id="TmpFile-to-RaiFile" style="stroke:#9B2C2C;stroke-width:1;"/><polygon fill="none" points="676.82,400.3783,690.9991,387.7706,680.5986,381.7847,676.82,400.3783" style="stroke:#9B2C2C;stroke-width:1;"/></g><!--link CanonicalFile to RaiFile--><g class="link" data-entity-1="ent0008" data-entity-2="ent0003" data-link-type="extension" data-source-line="68" id="lnk23"><path codeLine="68" d="M596.54,319.9583 C612.4,341.2083 629.9827,364.7738 645.7927,385.9538" fill="none" id="CanonicalFile-to-RaiFile" style="stroke:#9B2C2C;stroke-width:1;"/><polygon fill="none" points="656.56,400.3783,650.6009,382.3647,640.9846,389.5429,656.56,400.3783" style="stroke:#9B2C2C;stroke-width:1;"/></g><!--link ConfigFileT to RaiFile--><g class="link" data-entity-1="ent0009" data-entity-2="ent0003" data-link-type="extension" data-source-line="69" id="lnk24"><path codeLine="69" d="M865.16,319.9583 C821.41,341.2083 759.3714,371.3346 715.7614,392.5146" fill="none" id="ConfigFileT-to-RaiFile" style="stroke:#9B2C2C;stroke-width:1;"/><polygon fill="none" points="699.57,400.3783,718.3827,397.9118,713.1402,387.1175,699.57,400.3783" style="stroke:#9B2C2C;stroke-width:1;"/></g><!--link ImageFile to RaiFile--><g class="link" data-entity-1="ent0013" data-entity-2="ent0003" data-link-type="extension" data-source-line="70" id="lnk25"><path codeLine="70" d="M289.55,224.8883 C303.69,248.8983 334.28,295.0183 373,319.4883 C464.58,377.3683 509.03,338.7383 609,380.4883 C621.66,385.7783 619.6752,383.7371 630.3652,390.5571" fill="none" id="ImageFile-to-RaiFile" style="stroke:#9B2C2C;stroke-width:1;"/><polygon fill="none" points="645.54,400.2383,633.5923,385.4988,627.1381,395.6153,645.54,400.2383" style="stroke:#9B2C2C;stroke-width:1;"/></g><!--link ImageTreeFile to ImageFile--><g class="link" data-entity-1="ent0014" data-entity-2="ent0013" data-link-type="extension" data-source-line="71" id="lnk26"><path codeLine="71" d="M117.88,110.8283 C153.98,132.2183 203.5554,161.5908 239.6454,182.9808" fill="none" id="ImageTreeFile-to-ImageFile" style="stroke:#9B2C2C;stroke-width:1;"/><polygon fill="none" points="255.13,192.1583,242.7045,177.8192,236.5862,188.1423,255.13,192.1583" style="stroke:#9B2C2C;stroke-width:1;"/></g><!--link PitFile to CanonicalFile--><g class="link" data-entity-1="ent0017" data-entity-2="ent0008" data-link-type="extension" data-source-line="72" id="lnk27"><path codeLine="72" d="M1261.91,110.8283 C1258.75,142.5683 1246.64,215.2483 1201,248.4883 C1153.09,283.3783 727.81,280.0983 669,287.4883 C663.41,288.1883 675.431,286.2836 669.641,287.1736" fill="none" id="PitFile-to-CanonicalFile" style="stroke:#9B2C2C;stroke-width:1;"/><polygon fill="none" points="651.85,289.9083,670.5526,293.1039,668.7295,281.2432,651.85,289.9083" style="stroke:#9B2C2C;stroke-width:1;"/></g><!--link MasterFlagFile to TextFile--><g class="link" data-entity-1="ent0018" data-entity-2="ent0005" data-link-type="extension" data-source-line="73" id="lnk28"><path codeLine="73" d="M1074,224.9283 C1052.26,233.3183 1024.01,243.0683 998,248.4883 C781.09,293.6583 719.94,253.4483 501,287.4883 C495.36,288.3683 507.0945,285.7632 501.2945,286.9832" fill="none" id="MasterFlagFile-to-TextFile" style="stroke:#9B2C2C;stroke-width:1;"/><polygon fill="none" points="483.68,290.6883,502.5296,292.8547,500.0595,281.1116,483.68,290.6883" style="stroke:#9B2C2C;stroke-width:1;"/></g><!--link ProcessFlagFile to MasterFlagFile--><g class="link" data-entity-1="ent0019" data-entity-2="ent0018" data-link-type="extension" data-source-line="74" id="lnk29"><path codeLine="74" d="M1112.73,110.5883 C1112.35,131.9683 1111.969,152.8311 1111.589,174.2711" fill="none" id="ProcessFlagFile-to-MasterFlagFile" style="stroke:#9B2C2C;stroke-width:1;"/><polygon fill="none" points="1111.27,192.2683,1117.588,174.3774,1105.5899,174.1648,1111.27,192.2683" style="stroke:#9B2C2C;stroke-width:1;"/></g><!--link ItemTreePath to RaiPath--><g class="link" data-entity-1="ent0015" data-entity-2="ent0004" data-link-type="extension" data-source-line="76" id="lnk30"><path codeLine="76" d="M290.66,110.9083 C307.69,121.6183 330.81,136.2683 351,149.4883 C372.7,163.6883 382.3312,170.1234 399.6112,181.9134" fill="none" id="ItemTreePath-to-RaiPath" style="stroke:#9B2C2C;stroke-width:1;"/><polygon fill="none" points="414.48,192.0583,402.9928,176.9571,396.2296,186.8697,414.48,192.0583" style="stroke:#9B2C2C;stroke-width:1;"/></g><!--link CanonicalFile to IPathConvention--><g class="link" data-entity-1="ent0008" data-entity-2="ent0010" data-link-type="extension" data-source-line="78" id="lnk31"><path codeLine="78" d="M571.93,319.9583 C558.81,335.4783 549.7709,346.1822 532.6009,366.4922" fill="none" id="CanonicalFile-to-IPathConvention" style="stroke:#9B2C2C;stroke-width:1;stroke-dasharray:7,7;"/><polygon fill="none" points="520.98,380.2383,537.1829,370.3658,528.0189,362.6186,520.98,380.2383" style="stroke:#9B2C2C;stroke-width:1;"/></g><!--link ImageTreeFile to IPathConvention--><g class="link" data-entity-1="ent0014" data-entity-2="ent0010" data-link-type="extension" data-source-line="79" id="lnk32"><path codeLine="79" d="M97.55,110.8783 C112.7,150.8683 158.57,259.1383 231,319.4883 C276.57,357.4583 321.1811,376.3807 373.1811,390.7607" fill="none" id="ImageTreeFile-to-IPathConvention" style="stroke:#9B2C2C;stroke-width:1;stroke-dasharray:7,7;"/><polygon fill="none" points="390.53,395.5583,374.7804,384.9777,371.5819,396.5436,390.53,395.5583" style="stroke:#9B2C2C;stroke-width:1;"/></g><!--link ItemTreePath to IPathConvention--><g class="link" data-entity-1="ent0015" data-entity-2="ent0010" data-link-type="extension" data-source-line="80" id="lnk33"><path codeLine="80" d="M242.78,110.7783 C230.54,120.2883 216.71,133.6983 210,149.4883 C192.79,189.9883 188.35,210.1883 210,248.4883 C248.35,316.3183 309.6209,352.8347 373.7309,378.2947" fill="none" id="ItemTreePath-to-IPathConvention" style="stroke:#9B2C2C;stroke-width:1;stroke-dasharray:7,7;"/><polygon fill="none" points="390.46,384.9383,375.9455,372.7183,371.5164,383.871,390.46,384.9383" style="stroke:#9B2C2C;stroke-width:1;"/></g><!--link IPathConvention to PathConventionType--><g class="link" data-entity-1="ent0010" data-entity-2="ent0011" data-link-type="dependency" data-source-line="81" id="lnk34"><path codeLine="81" d="M491,453.4383 C491,475.8683 491,498.7683 491,521.5783" fill="none" id="IPathConvention-to-PathConventionType" style="stroke:#9B2C2C;stroke-width:1;stroke-dasharray:7,7;"/><polygon fill="#9B2C2C" points="491,527.5783,495,518.5783,491,522.5783,487,518.5783,491,527.5783" style="stroke:#9B2C2C;stroke-width:1;"/><text fill="#374151" font-family="'Casual'" font-size="13" lengthAdjust="spacing" textLength="23.53" x="492" y="494.3483">uses</text></g><?plantuml-src XLPRJzim57vkVeLL7ZQqqUNI2rHL9IWmTHeCZKeyEyb9Qv7ObUq2tSP_dzsamN5CaIebETztplboBau_eUz0WMC9wHY5VZWyyVlgvtcIo1pGRqokYRfYckhxEonNw1940ZJ5L0hqG9JX5XSWrZW1uNdYaT0rvhX0CKuUbvnjQ3fZEUFeUKKa6BXOuPGz4xf46Sw5YLmIl5JNQqQb3eswComsEE-wAVVa3w1eQ82p70jnoBiclEDxBYKdyKR2F65qnmdyTpbreZBFGLvPYID_40rEeuFC1o3BbKIKyUA3cAM-qERSW5onzCCglD4-Z5D96lY7Qt4ljsfWtC8l64-1xwkGZOP3Q56iiJbAaYpE0bVtAa8G1AVXo21SqKtHo1Jt1v5_PZFiH1baKMB7CVACaZ1jrEUMIMX7oR9HEhHPffgq7mU-oJZdd3rNu5aS9c5YWuQAQDGF1e6BqEopjo8f82ZMSeiAA6BWQZlLaZxYfMBz4Zz9t4L_lKwYgucw4w7QFmvEfzN6JxvfmxIBiDWV0awkFX4ihZQrkGjuaNRWlQtDdeadcroP796BTIjmQNB4nPHHak2y5Tq4l0wEXUGuaQWLWD6CB7VUYqiiyRGHf0ONNeTG2JnJfwBXFTUrKQmde98mQlfQa6vDvulnF4PDmcAx1aqvNw_pRHFwVApOJuoaNkVLwu2QOaD2EugfeesYoGHzllfwb0tEm8-FqNIwarRNwsAhvqvPvXAAURhW0D5Br7W-VGcrabTZ_jIOp0jrvnp17M8tg3Q-mzU9d3vxmE6d56hKdc7Jtb3zGp1wHwHJjBBRwIjJctk3XPgDwnmlRPScuiZ2cVhC2fUh1MdX-_r29oV_flKQLujK6kiLh5R6effROK5lizu4waOvpFjUbD1RIwjAbURcAZOhOecsthb4hHfwPZjhJRlUMk_NwsbHpHMmTBifPW8tmrhkNc_gMhKnsWZr9-e_?></g></svg>