<?plantuml 1.2026.2?><svg xmlns="http://www.w3.org/2000/svg" xmlns:xlink="http://www.w3.org/1999/xlink" contentStyleType="text/css" data-diagram-type="CLASS" height="1085px" preserveAspectRatio="none" style="width:2202px;height:1085px;background:#FFFFFF;" version="1.1" viewBox="0 0 2202 1085" width="2202px" zoomAndPan="magnify"><title>OsLib RaiFile Hierarchy</title><defs/><g><g class="title" data-source-line="6"><text fill="#000000" font-family="sans-serif" font-size="14" font-weight="bold" lengthAdjust="spacing" textLength="167.877" x="1010.231" y="23.5352">OsLib RaiFile Hierarchy</text></g><!--class IPathConventionFile--><g class="entity" data-qualified-name="IPathConventionFile" data-source-line="8" id="ent0002"><rect fill="#F1F1F1" height="80.9766" rx="2.5" ry="2.5" style="stroke:#181818;stroke-width:0.5;" width="292.0957" x="651" y="972.3283"/><ellipse cx="725.7441" cy="988.3283" fill="#B4A7E5" rx="11" ry="11" style="stroke:#181818;stroke-width:1;"/><path d="M722.1719,984.5934 L722.1719,982.4352 L729.5513,982.4352 L729.5513,984.5934 L727.0859,984.5934 L727.0859,992.6701 L729.5513,992.6701 L729.5513,994.8283 L722.1719,994.8283 L722.1719,992.6701 L724.6372,992.6701 L724.6372,984.5934 Z " fill="#000000"/><text fill="#000000" font-family="sans-serif" font-size="14" font-style="italic" lengthAdjust="spacing" textLength="134.1074" x="746.2441" y="993.6193">IPathConventionFile</text><line style="stroke:#181818;stroke-width:0.5;" x1="652" x2="942.0957" y1="1004.3283" y2="1004.3283"/><text fill="#000000" font-family="sans-serif" font-size="14" lengthAdjust="spacing" textLength="280.0957" x="657" y="1021.8634">+ConventionName : PathConventionType</text><line style="stroke:#181818;stroke-width:0.5;" x1="652" x2="942.0957" y1="1028.8166" y2="1028.8166"/><text fill="#000000" font-family="sans-serif" font-size="14" lengthAdjust="spacing" textLength="165.5527" x="657" y="1046.3517">+ApplyPathConvention()</text></g><!--class PathConventionType--><g class="entity" data-qualified-name="PathConventionType" data-source-line="13" id="ent0003"><rect fill="#F1F1F1" height="80.9766" rx="2.5" ry="2.5" style="stroke:#181818;stroke-width:0.5;" width="171.4531" x="1847.32" y="143.4183"/><ellipse cx="1862.32" cy="159.4183" fill="#EB937F" rx="11" ry="11" style="stroke:#181818;stroke-width:1;"/><path d="M1865.9343,165.9183 L1858.2145,165.9183 L1858.2145,153.5252 L1865.9343,153.5252 L1865.9343,155.6834 L1860.6633,155.6834 L1860.6633,158.3563 L1865.4362,158.3563 L1865.4362,160.5145 L1860.6633,160.5145 L1860.6633,163.7601 L1865.9343,163.7601 Z " fill="#000000"/><text fill="#000000" font-family="sans-serif" font-size="14" lengthAdjust="spacing" textLength="139.4531" x="1876.32" y="164.7093">PathConventionType</text><line style="stroke:#181818;stroke-width:0.5;" x1="1848.32" x2="2017.7731" y1="175.4183" y2="175.4183"/><text fill="#000000" font-family="sans-serif" font-size="14" lengthAdjust="spacing" textLength="120.7021" x="1853.32" y="192.9534">CanonicalByName</text><text fill="#000000" font-family="sans-serif" font-size="14" lengthAdjust="spacing" textLength="73.165" x="1853.32" y="209.4417">ItemIdTree</text><line style="stroke:#181818;stroke-width:0.5;" x1="1848.32" x2="2017.7731" y1="216.3948" y2="216.3948"/></g><!--class RaiPath--><g class="entity" data-qualified-name="RaiPath" data-source-line="18" id="ent0004"><rect fill="#F1F1F1" height="80.9766" rx="2.5" ry="2.5" style="stroke:#181818;stroke-width:0.5;" width="359.6143" x="687.24" y="731.9083"/><ellipse cx="837.7844" cy="747.9083" fill="#ADD1B2" rx="11" ry="11" style="stroke:#181818;stroke-width:1;"/><path d="M840.2576,754.0513 Q839.6765,754.3502 839.0374,754.4996 Q838.3982,754.649 837.6926,754.649 Q835.1858,754.649 833.866,752.9971 Q832.5462,751.3453 832.5462,748.2242 Q832.5462,745.0948 833.866,743.4429 Q835.1858,741.7911 837.6926,741.7911 Q838.3982,741.7911 839.0457,741.9405 Q839.6931,742.0899 840.2576,742.3888 L840.2576,745.1114 Q839.6267,744.5304 839.0332,744.2606 Q838.4397,743.9908 837.8088,743.9908 Q836.4641,743.9908 835.7793,745.0575 Q835.0945,746.1241 835.0945,748.2242 Q835.0945,750.316 835.7793,751.3826 Q836.4641,752.4493 837.8088,752.4493 Q838.4397,752.4493 839.0332,752.1795 Q839.6267,751.9097 840.2576,751.3287 Z " fill="#000000"/><text fill="#000000" font-family="sans-serif" font-size="14" lengthAdjust="spacing" textLength="50.0254" x="858.2844" y="753.1993">RaiPath</text><line style="stroke:#181818;stroke-width:0.5;" x1="688.24" x2="1045.8543" y1="763.9083" y2="763.9083"/><text fill="#000000" font-family="sans-serif" font-size="14" lengthAdjust="spacing" textLength="93.3789" x="693.24" y="781.4434">+Path : string</text><line style="stroke:#181818;stroke-width:0.5;" x1="688.24" x2="1045.8543" y1="788.3966" y2="788.3966"/><text fill="#000000" font-family="sans-serif" font-size="14" lengthAdjust="spacing" textLength="347.6143" x="693.24" y="805.9317">+operator /(self : RaiPath, subDir : string) : RaiPath</text></g><!--class CanonicalPath--><g class="entity" data-qualified-name="CanonicalPath" data-source-line="23" id="ent0005"><rect fill="#F1F1F1" height="97.4648" rx="2.5" ry="2.5" style="stroke:#181818;stroke-width:0.5;" width="136.667" x="1006.71" y="964.0883"/><ellipse cx="1025.7068" cy="980.0883" fill="#ADD1B2" rx="11" ry="11" style="stroke:#181818;stroke-width:1;"/><path d="M1028.18,986.2313 Q1027.5989,986.5302 1026.9598,986.6796 Q1026.3206,986.829 1025.615,986.829 Q1023.1082,986.829 1021.7884,985.1771 Q1020.4685,983.5253 1020.4685,980.4042 Q1020.4685,977.2748 1021.7884,975.6229 Q1023.1082,973.9711 1025.615,973.9711 Q1026.3206,973.9711 1026.9681,974.1205 Q1027.6155,974.2699 1028.18,974.5687 L1028.18,977.2914 Q1027.5491,976.7104 1026.9556,976.4406 Q1026.3621,976.1708 1025.7312,976.1708 Q1024.3865,976.1708 1023.7017,977.2375 Q1023.0169,978.3041 1023.0169,980.4042 Q1023.0169,982.496 1023.7017,983.5626 Q1024.3865,984.6293 1025.7312,984.6293 Q1026.3621,984.6293 1026.9556,984.3595 Q1027.5491,984.0897 1028.18,983.5087 Z " fill="#000000"/><text fill="#000000" font-family="sans-serif" font-size="14" lengthAdjust="spacing" textLength="95.7852" x="1040.595" y="985.3793">CanonicalPath</text><line style="stroke:#181818;stroke-width:0.5;" x1="1007.71" x2="1142.377" y1="996.0883" y2="996.0883"/><text fill="#000000" font-family="sans-serif" font-size="14" lengthAdjust="spacing" textLength="124.667" x="1012.71" y="1013.6234">+RootPath : string</text><text fill="#000000" font-family="sans-serif" font-size="14" lengthAdjust="spacing" textLength="121.0303" x="1012.71" y="1030.1117">+FileStem : string</text><line style="stroke:#181818;stroke-width:0.5;" x1="1007.71" x2="1142.377" y1="1037.0648" y2="1037.0648"/><text fill="#000000" font-family="sans-serif" font-size="14" lengthAdjust="spacing" textLength="58.8779" x="1012.71" y="1054.6">+Apply()</text></g><!--class ItemTreePath--><g class="entity" data-qualified-name="ItemTreePath" data-source-line="29" id="ent0006"><rect fill="#F1F1F1" height="130.4414" rx="2.5" ry="2.5" style="stroke:#181818;stroke-width:0.5;" width="136.667" x="383.71" y="947.5983"/><ellipse cx="405.4385" cy="963.5983" fill="#ADD1B2" rx="11" ry="11" style="stroke:#181818;stroke-width:1;"/><path d="M407.9116,969.7413 Q407.3306,970.0402 406.6914,970.1896 Q406.0522,970.339 405.3467,970.339 Q402.8398,970.339 401.52,968.6871 Q400.2002,967.0353 400.2002,963.9142 Q400.2002,960.7848 401.52,959.1329 Q402.8398,957.4811 405.3467,957.4811 Q406.0522,957.4811 406.6997,957.6305 Q407.3472,957.7799 407.9116,958.0787 L407.9116,960.8014 Q407.2808,960.2204 406.6872,959.9506 Q406.0937,959.6808 405.4629,959.6808 Q404.1182,959.6808 403.4333,960.7475 Q402.7485,961.8141 402.7485,963.9142 Q402.7485,966.006 403.4333,967.0726 Q404.1182,968.1393 405.4629,968.1393 Q406.0937,968.1393 406.6872,967.8695 Q407.2808,967.5997 407.9116,967.0187 Z " fill="#000000"/><text fill="#000000" font-family="sans-serif" font-size="14" lengthAdjust="spacing" textLength="89.7148" x="420.9337" y="968.8893">ItemTreePath</text><line style="stroke:#181818;stroke-width:0.5;" x1="384.71" x2="519.377" y1="979.5983" y2="979.5983"/><text fill="#000000" font-family="sans-serif" font-size="14" lengthAdjust="spacing" textLength="124.667" x="389.71" y="997.1334">+RootPath : string</text><text fill="#000000" font-family="sans-serif" font-size="14" lengthAdjust="spacing" textLength="106.9688" x="389.71" y="1013.6217">+ItemId : string</text><text fill="#000000" font-family="sans-serif" font-size="14" lengthAdjust="spacing" textLength="108.835" x="389.71" y="1030.11">+Topdir : string</text><text fill="#000000" font-family="sans-serif" font-size="14" lengthAdjust="spacing" textLength="107.6113" x="389.71" y="1046.5983">+Subdir : string</text><line style="stroke:#181818;stroke-width:0.5;" x1="384.71" x2="519.377" y1="1053.5514" y2="1053.5514"/><text fill="#000000" font-family="sans-serif" font-size="14" lengthAdjust="spacing" textLength="58.8779" x="389.71" y="1071.0866">+Apply()</text></g><!--class RaiFile--><g class="entity" data-qualified-name="RaiFile" data-source-line="37" id="ent0007"><rect fill="#F1F1F1" height="278.8359" rx="2.5" ry="2.5" style="stroke:#181818;stroke-width:0.5;" width="408.4092" x="1403.84" y="44.4883"/><ellipse cx="1581.7795" cy="60.4883" fill="#ADD1B2" rx="11" ry="11" style="stroke:#181818;stroke-width:1;"/><path d="M1584.2526,66.6313 Q1583.6715,66.9302 1583.0324,67.0796 Q1582.3932,67.229 1581.6877,67.229 Q1579.1808,67.229 1577.861,65.5771 Q1576.5412,63.9253 1576.5412,60.8042 Q1576.5412,57.6748 1577.861,56.0229 Q1579.1808,54.3711 1581.6877,54.3711 Q1582.3932,54.3711 1583.0407,54.5205 Q1583.6881,54.6699 1584.2526,54.9688 L1584.2526,57.6914 Q1583.6217,57.1104 1583.0282,56.8406 Q1582.4347,56.5708 1581.8039,56.5708 Q1580.4591,56.5708 1579.7743,57.6375 Q1579.0895,58.7041 1579.0895,60.8042 Q1579.0895,62.896 1579.7743,63.9626 Q1580.4591,65.0293 1581.8039,65.0293 Q1582.4347,65.0293 1583.0282,64.7595 Q1583.6217,64.4897 1584.2526,63.9087 Z " fill="#000000"/><text fill="#000000" font-family="sans-serif" font-size="14" lengthAdjust="spacing" textLength="44.0303" x="1602.2795" y="65.7793">RaiFile</text><line style="stroke:#181818;stroke-width:0.5;" x1="1404.84" x2="1811.2492" y1="76.4883" y2="76.4883"/><text fill="#000000" font-family="sans-serif" font-size="14" lengthAdjust="spacing" textLength="94.3086" x="1409.84" y="94.0234">+Cloud : bool</text><text fill="#000000" font-family="sans-serif" font-size="14" lengthAdjust="spacing" textLength="102.9287" x="1409.84" y="110.5117">+Name : string</text><text fill="#000000" font-family="sans-serif" font-size="14" lengthAdjust="spacing" textLength="85.3945" x="1409.84" y="127">+Ext : string</text><text fill="#000000" font-family="sans-serif" font-size="14" lengthAdjust="spacing" textLength="93.3789" x="1409.84" y="143.4883">+Path : string</text><text fill="#000000" font-family="sans-serif" font-size="14" lengthAdjust="spacing" textLength="199.2471" x="1409.84" y="159.9766">+NameWithExtension : string</text><text fill="#000000" font-family="sans-serif" font-size="14" lengthAdjust="spacing" textLength="127.2168" x="1409.84" y="176.4648">+FullName : string</text><text fill="#000000" font-family="sans-serif" font-size="14" lengthAdjust="spacing" textLength="117.2363" x="1409.84" y="192.9531">+DirList : string[]</text><line style="stroke:#181818;stroke-width:0.5;" x1="1404.84" x2="1811.2492" y1="199.9063" y2="199.9063"/><text fill="#000000" font-family="sans-serif" font-size="14" lengthAdjust="spacing" textLength="103.3115" x="1409.84" y="217.4414">+Exists() : bool</text><text fill="#000000" font-family="sans-serif" font-size="14" lengthAdjust="spacing" textLength="70.2939" x="1409.84" y="233.9297">+rm() : int</text><text fill="#000000" font-family="sans-serif" font-size="14" lengthAdjust="spacing" textLength="396.4092" x="1409.84" y="250.418">+mv(from : RaiFile, replace : bool, keepBackup : bool) : int</text><text fill="#000000" font-family="sans-serif" font-size="14" lengthAdjust="spacing" textLength="157.3428" x="1409.84" y="266.9063">+cp(from : RaiFile) : int</text><text fill="#000000" font-family="sans-serif" font-size="14" lengthAdjust="spacing" textLength="60.0742" x="1409.84" y="283.3945">+mkdir()</text><text fill="#000000" font-family="sans-serif" font-size="14" lengthAdjust="spacing" textLength="252.4648" x="1409.84" y="299.8828">+rmdir(depth : int, deleteFiles : bool)</text><text fill="#000000" font-family="sans-serif" font-size="14" lengthAdjust="spacing" textLength="197.7295" x="1409.84" y="316.3711">+backup(copy : bool) : string</text></g><!--class TextFile--><g class="entity" data-qualified-name="TextFile" data-source-line="54" id="ent0008"><rect fill="#F1F1F1" height="196.3945" rx="2.5" ry="2.5" style="stroke:#181818;stroke-width:0.5;" width="260.3018" x="1850.9" y="392.5683"/><ellipse cx="1949.8639" cy="408.5683" fill="#ADD1B2" rx="11" ry="11" style="stroke:#181818;stroke-width:1;"/><path d="M1952.337,414.7113 Q1951.756,415.0102 1951.1168,415.1596 Q1950.4776,415.309 1949.7721,415.309 Q1947.2652,415.309 1945.9454,413.6571 Q1944.6256,412.0053 1944.6256,408.8842 Q1944.6256,405.7548 1945.9454,404.1029 Q1947.2652,402.4511 1949.7721,402.4511 Q1950.4776,402.4511 1951.1251,402.6005 Q1951.7726,402.7499 1952.337,403.0487 L1952.337,405.7714 Q1951.7062,405.1904 1951.1126,404.9206 Q1950.5191,404.6508 1949.8883,404.6508 Q1948.5436,404.6508 1947.8587,405.7175 Q1947.1739,406.7841 1947.1739,408.8842 Q1947.1739,410.976 1947.8587,412.0426 Q1948.5436,413.1093 1949.8883,413.1093 Q1950.5191,413.1093 1951.1126,412.8395 Q1951.7062,412.5697 1952.337,411.9887 Z " fill="#000000"/><text fill="#000000" font-family="sans-serif" font-size="14" lengthAdjust="spacing" textLength="53.874" x="1970.3639" y="413.8593">TextFile</text><line style="stroke:#181818;stroke-width:0.5;" x1="1851.9" x2="2110.2018" y1="424.5683" y2="424.5683"/><text fill="#000000" font-family="sans-serif" font-size="14" lengthAdjust="spacing" textLength="114.6113" x="1856.9" y="442.1034">+Changed : bool</text><text fill="#000000" font-family="sans-serif" font-size="14" lengthAdjust="spacing" textLength="140.7109" x="1856.9" y="458.5917">+Lines : List~string~</text><text fill="#000000" font-family="sans-serif" font-size="14" lengthAdjust="spacing" textLength="133.5059" x="1856.9" y="475.08">+this[i : int] : string</text><line style="stroke:#181818;stroke-width:0.5;" x1="1851.9" x2="2110.2018" y1="482.0331" y2="482.0331"/><text fill="#000000" font-family="sans-serif" font-size="14" lengthAdjust="spacing" textLength="147.875" x="1856.9" y="499.5683">+Read() : List~string~</text><text fill="#000000" font-family="sans-serif" font-size="14" lengthAdjust="spacing" textLength="143.2949" x="1856.9" y="516.0566">+Save(backup : bool)</text><text fill="#000000" font-family="sans-serif" font-size="14" lengthAdjust="spacing" textLength="150.2539" x="1856.9" y="532.5448">+Append(line : string)</text><text fill="#000000" font-family="sans-serif" font-size="14" lengthAdjust="spacing" textLength="248.3018" x="1856.9" y="549.0331">+Insert(beforeLine : int, line : string)</text><text fill="#000000" font-family="sans-serif" font-size="14" lengthAdjust="spacing" textLength="119.2461" x="1856.9" y="565.5214">+Delete(line : int)</text><text fill="#000000" font-family="sans-serif" font-size="14" lengthAdjust="spacing" textLength="139.9248" x="1856.9" y="582.0097">+Sort(reverse : bool)</text></g><!--class CsvFile--><g class="entity" data-qualified-name="CsvFile" data-source-line="66" id="ent0009"><rect fill="#F1F1F1" height="130.4414" rx="2.5" ry="2.5" style="stroke:#181818;stroke-width:0.5;" width="428.5889" x="1766.75" y="707.1783"/><ellipse cx="1953.0601" cy="723.1783" fill="#ADD1B2" rx="11" ry="11" style="stroke:#181818;stroke-width:1;"/><path d="M1955.5332,729.3213 Q1954.9521,729.6202 1954.313,729.7696 Q1953.6738,729.919 1952.9683,729.919 Q1950.4614,729.919 1949.1416,728.2671 Q1947.8218,726.6153 1947.8218,723.4942 Q1947.8218,720.3648 1949.1416,718.7129 Q1950.4614,717.0611 1952.9683,717.0611 Q1953.6738,717.0611 1954.3213,717.2105 Q1954.9688,717.3599 1955.5332,717.6587 L1955.5332,720.3814 Q1954.9023,719.8004 1954.3088,719.5306 Q1953.7153,719.2608 1953.0845,719.2608 Q1951.7397,719.2608 1951.0549,720.3275 Q1950.3701,721.3941 1950.3701,723.4942 Q1950.3701,725.586 1951.0549,726.6526 Q1951.7397,727.7193 1953.0845,727.7193 Q1953.7153,727.7193 1954.3088,727.4495 Q1954.9023,727.1797 1955.5332,726.5987 Z " fill="#000000"/><text fill="#000000" font-family="sans-serif" font-size="14" lengthAdjust="spacing" textLength="47.4688" x="1973.5601" y="728.4693">CsvFile</text><line style="stroke:#181818;stroke-width:0.5;" x1="1767.75" x2="2194.3389" y1="739.1783" y2="739.1783"/><line style="stroke:#181818;stroke-width:0.5;" x1="1767.75" x2="2194.3389" y1="747.1783" y2="747.1783"/><text fill="#000000" font-family="sans-serif" font-size="14" lengthAdjust="spacing" textLength="416.5889" x="1772.75" y="764.7134">+Read(externalFieldNames : string, replaceBlanks : bool) : int</text><text fill="#000000" font-family="sans-serif" font-size="14" lengthAdjust="spacing" textLength="160.4873" x="1772.75" y="781.2017">+FieldNames() : string[]</text><text fill="#000000" font-family="sans-serif" font-size="14" lengthAdjust="spacing" textLength="174.9111" x="1772.75" y="797.69">+Objects() : List~JObject~</text><text fill="#000000" font-family="sans-serif" font-size="14" lengthAdjust="spacing" textLength="178.8896" x="1772.75" y="814.1783">+Object(idx : int) : JObject</text><text fill="#000000" font-family="sans-serif" font-size="14" lengthAdjust="spacing" textLength="234.0488" x="1772.75" y="830.6666">+ToJsonFile(destFileName : string)</text></g><!--class TmpFile--><g class="entity" data-qualified-name="TmpFile" data-source-line="74" id="ent0010"><rect fill="#F1F1F1" height="64.4883" rx="2.5" ry="2.5" style="stroke:#181818;stroke-width:0.5;" width="86.1338" x="1536.98" y="740.1583"/><ellipse cx="1551.98" cy="756.1583" fill="#ADD1B2" rx="11" ry="11" style="stroke:#181818;stroke-width:1;"/><path d="M1554.4531,762.3013 Q1553.8721,762.6002 1553.2329,762.7496 Q1552.5938,762.899 1551.8882,762.899 Q1549.3814,762.899 1548.0615,761.2471 Q1546.7417,759.5953 1546.7417,756.4742 Q1546.7417,753.3448 1548.0615,751.6929 Q1549.3814,750.0411 1551.8882,750.0411 Q1552.5938,750.0411 1553.2412,750.1905 Q1553.8887,750.3399 1554.4531,750.6388 L1554.4531,753.3614 Q1553.8223,752.7804 1553.2288,752.5106 Q1552.6353,752.2408 1552.0044,752.2408 Q1550.6597,752.2408 1549.9749,753.3075 Q1549.2901,754.3741 1549.2901,756.4742 Q1549.2901,758.566 1549.9749,759.6326 Q1550.6597,760.6993 1552.0044,760.6993 Q1552.6353,760.6993 1553.2288,760.4295 Q1553.8223,760.1597 1554.4531,759.5787 Z " fill="#000000"/><text fill="#000000" font-family="sans-serif" font-size="14" lengthAdjust="spacing" textLength="54.1338" x="1565.98" y="761.4493">TmpFile</text><line style="stroke:#181818;stroke-width:0.5;" x1="1537.98" x2="1622.1138" y1="772.1583" y2="772.1583"/><line style="stroke:#181818;stroke-width:0.5;" x1="1537.98" x2="1622.1138" y1="780.1583" y2="780.1583"/><text fill="#000000" font-family="sans-serif" font-size="14" lengthAdjust="spacing" textLength="61.7012" x="1542.98" y="797.6934">+create()</text></g><!--class CanonicalFile--><g class="entity" data-qualified-name="CanonicalFile" data-source-line="78" id="ent0011"><rect fill="#F1F1F1" height="97.4648" rx="2.5" ry="2.5" style="stroke:#181818;stroke-width:0.5;" width="425.4717" x="828.31" y="442.0283"/><ellipse cx="991.9008" cy="458.0283" fill="#ADD1B2" rx="11" ry="11" style="stroke:#181818;stroke-width:1;"/><path d="M994.374,464.1713 Q993.7929,464.4702 993.1538,464.6196 Q992.5146,464.769 991.809,464.769 Q989.3022,464.769 987.9824,463.1171 Q986.6625,461.4653 986.6625,458.3442 Q986.6625,455.2148 987.9824,453.5629 Q989.3022,451.9111 991.809,451.9111 Q992.5146,451.9111 993.1621,452.0605 Q993.8095,452.2099 994.374,452.5087 L994.374,455.2314 Q993.7431,454.6504 993.1496,454.3806 Q992.5561,454.1108 991.9252,454.1108 Q990.5805,454.1108 989.8957,455.1775 Q989.2109,456.2441 989.2109,458.3442 Q989.2109,460.436 989.8957,461.5026 Q990.5805,462.5693 991.9252,462.5693 Q992.5561,462.5693 993.1496,462.2995 Q993.7431,462.0297 994.374,461.4487 Z " fill="#000000"/><text fill="#000000" font-family="sans-serif" font-size="14" lengthAdjust="spacing" textLength="89.79" x="1012.4008" y="463.3193">CanonicalFile</text><line style="stroke:#181818;stroke-width:0.5;" x1="829.31" x2="1252.7817" y1="474.0283" y2="474.0283"/><text fill="#000000" font-family="sans-serif" font-size="14" lengthAdjust="spacing" textLength="280.0957" x="834.31" y="491.5634">+ConventionName : PathConventionType</text><line style="stroke:#181818;stroke-width:0.5;" x1="829.31" x2="1252.7817" y1="498.5166" y2="498.5166"/><text fill="#000000" font-family="sans-serif" font-size="14" lengthAdjust="spacing" textLength="165.5527" x="834.31" y="516.0517">+ApplyPathConvention()</text><text fill="#000000" font-family="sans-serif" font-size="14" lengthAdjust="spacing" textLength="413.4717" x="834.31" y="532.54">+CanonicalFile(fullName : string, defaultExt : string = "json")</text></g><!--class ImageFile--><g class="entity" data-qualified-name="ImageFile" data-source-line="84" id="ent0012"><rect fill="#F1F1F1" height="212.8828" rx="2.5" ry="2.5" style="stroke:#181818;stroke-width:0.5;" width="519.3223" x="222.39" y="384.3183"/><ellipse cx="445.4193" cy="400.3183" fill="#ADD1B2" rx="11" ry="11" style="stroke:#181818;stroke-width:1;"/><path d="M447.8924,406.4613 Q447.3114,406.7602 446.6722,406.9096 Q446.0331,407.059 445.3275,407.059 Q442.8207,407.059 441.5008,405.4071 Q440.181,403.7553 440.181,400.6342 Q440.181,397.5048 441.5008,395.8529 Q442.8207,394.2011 445.3275,394.2011 Q446.0331,394.2011 446.6805,394.3505 Q447.328,394.4999 447.8924,394.7987 L447.8924,397.5214 Q447.2616,396.9404 446.6681,396.6706 Q446.0746,396.4008 445.4437,396.4008 Q444.099,396.4008 443.4142,397.4675 Q442.7294,398.5341 442.7294,400.6342 Q442.7294,402.726 443.4142,403.7926 Q444.099,404.8593 445.4437,404.8593 Q446.0746,404.8593 446.6681,404.5895 Q447.2616,404.3197 447.8924,403.7387 Z " fill="#000000"/><text fill="#000000" font-family="sans-serif" font-size="14" lengthAdjust="spacing" textLength="64.7637" x="465.9193" y="405.6093">ImageFile</text><line style="stroke:#181818;stroke-width:0.5;" x1="223.39" x2="740.7123" y1="416.3183" y2="416.3183"/><text fill="#000000" font-family="sans-serif" font-size="14" lengthAdjust="spacing" textLength="157.1377" x="228.39" y="433.8534">+NoImageNumber : int</text><text fill="#000000" font-family="sans-serif" font-size="14" lengthAdjust="spacing" textLength="106.9688" x="228.39" y="450.3417">+ItemId : string</text><text fill="#000000" font-family="sans-serif" font-size="14" lengthAdjust="spacing" textLength="124.3389" x="228.39" y="466.83">+NameExt : string</text><text fill="#000000" font-family="sans-serif" font-size="14" lengthAdjust="spacing" textLength="138.1953" x="228.39" y="483.3183">+ImageNumber : int</text><text fill="#000000" font-family="sans-serif" font-size="14" lengthAdjust="spacing" textLength="152.0791" x="228.39" y="499.8066">+TileTemplate : string</text><text fill="#000000" font-family="sans-serif" font-size="14" lengthAdjust="spacing" textLength="143.1719" x="228.39" y="516.2948">+TileNumber : string</text><text fill="#000000" font-family="sans-serif" font-size="14" lengthAdjust="spacing" textLength="124.209" x="228.39" y="532.7831">+Color : ColorInfo</text><text fill="#000000" font-family="sans-serif" font-size="14" lengthAdjust="spacing" textLength="138.7217" x="228.39" y="549.2714">+ShortName : string</text><line style="stroke:#181818;stroke-width:0.5;" x1="223.39" x2="740.7123" y1="556.2245" y2="556.2245"/><text fill="#000000" font-family="sans-serif" font-size="14" lengthAdjust="spacing" textLength="196.6084" x="228.39" y="573.7597">+SetImageNumber(s : string)</text><text fill="#000000" font-family="sans-serif" font-size="14" lengthAdjust="spacing" textLength="507.3223" x="228.39" y="590.248">+ExtendToFirstExistingFile(extensions : string, colorInfo : ColorInfo) : bool</text></g><!--class ImageTreeFile--><g class="entity" data-qualified-name="ImageTreeFile" data-source-line="97" id="ent0013"><rect fill="#F1F1F1" height="196.3945" rx="2.5" ry="2.5" style="stroke:#181818;stroke-width:0.5;" width="292.0957" x="7" y="674.1983"/><ellipse cx="101.3257" cy="690.1983" fill="#ADD1B2" rx="11" ry="11" style="stroke:#181818;stroke-width:1;"/><path d="M103.7988,696.3413 Q103.2178,696.6402 102.5786,696.7896 Q101.9395,696.939 101.2339,696.939 Q98.7271,696.939 97.4072,695.2871 Q96.0874,693.6353 96.0874,690.5142 Q96.0874,687.3848 97.4072,685.7329 Q98.7271,684.0811 101.2339,684.0811 Q101.9395,684.0811 102.5869,684.2305 Q103.2344,684.3799 103.7988,684.6788 L103.7988,687.4014 Q103.168,686.8204 102.5745,686.5506 Q101.981,686.2808 101.3501,686.2808 Q100.0054,686.2808 99.3206,687.3475 Q98.6357,688.4141 98.6357,690.5142 Q98.6357,692.606 99.3206,693.6726 Q100.0054,694.7393 101.3501,694.7393 Q101.981,694.7393 102.5745,694.4695 Q103.168,694.1997 103.7988,693.6187 Z " fill="#000000"/><text fill="#000000" font-family="sans-serif" font-size="14" lengthAdjust="spacing" textLength="94.9443" x="121.8257" y="695.4893">ImageTreeFile</text><line style="stroke:#181818;stroke-width:0.5;" x1="8" x2="298.0957" y1="706.1983" y2="706.1983"/><text fill="#000000" font-family="sans-serif" font-size="14" lengthAdjust="spacing" textLength="280.0957" x="13" y="723.7334">+ConventionName : PathConventionType</text><text fill="#000000" font-family="sans-serif" font-size="14" lengthAdjust="spacing" textLength="108.835" x="13" y="740.2217">+Topdir : string</text><text fill="#000000" font-family="sans-serif" font-size="14" lengthAdjust="spacing" textLength="107.6113" x="13" y="756.71">+Subdir : string</text><text fill="#000000" font-family="sans-serif" font-size="14" lengthAdjust="spacing" textLength="140.123" x="13" y="773.1983">+TopdirRoot : string</text><text fill="#000000" font-family="sans-serif" font-size="14" lengthAdjust="spacing" textLength="138.8994" x="13" y="789.6866">+SubdirRoot : string</text><text fill="#000000" font-family="sans-serif" font-size="14" lengthAdjust="spacing" textLength="106.9688" x="13" y="806.1748">+ItemId : string</text><text fill="#000000" font-family="sans-serif" font-size="14" lengthAdjust="spacing" textLength="93.3789" x="13" y="822.6631">+Path : string</text><line style="stroke:#181818;stroke-width:0.5;" x1="8" x2="298.0957" y1="829.6163" y2="829.6163"/><text fill="#000000" font-family="sans-serif" font-size="14" lengthAdjust="spacing" textLength="165.5527" x="13" y="847.1514">+ApplyPathConvention()</text><text fill="#000000" font-family="sans-serif" font-size="14" lengthAdjust="spacing" textLength="233.7891" x="13" y="863.6397">+CopyTo(destDirs : string[]) : bool</text></g><g class="entity" data-qualified-name="GMN14" data-source-line="110" id="ent0015"><path d="M1289.04,455.1383 L1289.04,486.7583 L1253.95,490.7583 L1289.04,494.7583 L1289.04,526.3805 A0,0 0 0 0 1289.04,526.3805 L1745.0576,526.3805 A0,0 0 0 0 1745.0576,526.3805 L1745.0576,465.1383 L1735.0576,455.1383 L1289.04,455.1383 A0,0 0 0 0 1289.04,455.1383" fill="#FEFFDD" style="stroke:#181818;stroke-width:0.5;"/><path d="M1735.0576,455.1383 L1735.0576,465.1383 L1745.0576,465.1383 L1735.0576,455.1383" fill="#FEFFDD" style="stroke:#181818;stroke-width:0.5;"/><text fill="#000000" font-family="sans-serif" font-size="13" lengthAdjust="spacing" textLength="203.9438" x="1295.04" y="472.7066">Canonical-by-name convention:</text><text fill="#000000" font-family="sans-serif" font-size="13" lengthAdjust="spacing" textLength="296.1118" x="1295.04" y="488.0172">file is stored in folder named like the file stem.</text><text fill="#000000" font-family="sans-serif" font-size="13" lengthAdjust="spacing" textLength="435.0176" x="1295.04" y="503.3277">Example: /Root/AfricaStage.pit -&gt; /Root/AfricaStage/AfricaStage.pit</text><text fill="#000000" font-family="sans-serif" font-size="13" lengthAdjust="spacing" textLength="242.4297" x="1295.04" y="518.6383">Convention is enforced in constructor.</text></g><g class="entity" data-qualified-name="GMN17" data-source-line="117" id="ent0018"><path d="M334.16,736.7783 L334.16,768.3983 L299.47,772.3983 L334.16,776.3983 L334.16,808.0205 A0,0 0 0 0 334.16,808.0205 L651.9383,808.0205 A0,0 0 0 0 651.9383,808.0205 L651.9383,746.7783 L641.9383,736.7783 L334.16,736.7783 A0,0 0 0 0 334.16,736.7783" fill="#FEFFDD" style="stroke:#181818;stroke-width:0.5;"/><path d="M641.9383,736.7783 L641.9383,746.7783 L651.9383,746.7783 L641.9383,736.7783" fill="#FEFFDD" style="stroke:#181818;stroke-width:0.5;"/><text fill="#000000" font-family="sans-serif" font-size="13" lengthAdjust="spacing" textLength="175.6079" x="340.16" y="754.3466">Tree-by-ItemId convention:</text><text fill="#000000" font-family="sans-serif" font-size="13" lengthAdjust="spacing" textLength="277.6846" x="340.16" y="769.6572">path segments derived from ItemId prefixes</text><text fill="#000000" font-family="sans-serif" font-size="13" lengthAdjust="spacing" textLength="194.7651" x="340.16" y="784.9677">(Topdir: first 3, Subdir: first 6).</text><text fill="#000000" font-family="sans-serif" font-size="13" lengthAdjust="spacing" textLength="296.7783" x="340.16" y="800.2783">Convention is enforced via ItemId/Path setters.</text></g><!--link CanonicalFile to TmpFile--><g class="link" data-entity-1="ent0011" data-entity-2="ent0010" data-link-type="dependency" data-source-line="123" id="lnk20"><path codeLine="123" d="M1134.01,539.9883 C1251.61,600.9983 1443.9642,700.7949 1531.1542,746.0349" fill="none" id="CanonicalFile-to-TmpFile" style="stroke:#181818;stroke-width:1;stroke-dasharray:7,7;"/><polygon fill="#181818" points="1536.48,748.7983,1530.3336,741.1027,1532.0419,746.4955,1526.6491,748.2037,1536.48,748.7983" style="stroke:#181818;stroke-width:1;"/><text fill="#000000" font-family="sans-serif" font-size="13" lengthAdjust="spacing" textLength="28.5645" x="1327.71" y="640.7666">uses</text></g><!--link CanonicalFile to RaiPath--><g class="link" data-entity-1="ent0011" data-entity-2="ent0004" data-link-type="dependency" data-source-line="124" id="lnk21"><path codeLine="124" d="M1011.14,539.8283 C977.42,594.0183 926.3895,676.0237 894.9595,726.5437" fill="none" id="CanonicalFile-to-RaiPath" style="stroke:#181818;stroke-width:1;stroke-dasharray:7,7;"/><polygon fill="#181818" points="891.79,731.6383,899.9406,726.1094,894.4312,727.3928,893.1478,721.8835,891.79,731.6383" style="stroke:#181818;stroke-width:1;"/><text fill="#000000" font-family="sans-serif" font-size="13" lengthAdjust="spacing" textLength="28.5645" x="955.05" y="640.7666">uses</text></g><!--link CanonicalFile to CanonicalPath--><g class="link" data-entity-1="ent0011" data-entity-2="ent0005" data-link-type="dependency" data-source-line="125" id="lnk22"><path codeLine="125" d="M1080.62,539.9583 C1098.22,564.4883 1116.99,595.7183 1126.05,627.1983 C1161.74,751.2283 1157.74,792.4883 1126.05,917.5983 C1122.03,933.4683 1117.6332,944.2964 1109.8032,958.5864" fill="none" id="CanonicalFile-to-CanonicalPath" style="stroke:#181818;stroke-width:1;stroke-dasharray:7,7;"/><polygon fill="#181818" points="1106.92,963.8483,1114.7527,957.8776,1109.3226,959.4634,1107.7368,954.0334,1106.92,963.8483" style="stroke:#181818;stroke-width:1;"/><text fill="#000000" font-family="sans-serif" font-size="13" lengthAdjust="spacing" textLength="28.5645" x="1152.34" y="777.4666">uses</text></g><!--link CanonicalFile to IPathConventionFile--><g class="link" data-entity-1="ent0011" data-entity-2="ent0002" data-link-type="extension" data-source-line="126" id="lnk23"><path codeLine="126" d="M1060.22,539.8483 C1087.25,616.0583 1126.69,766.5983 1064.05,870.5983 C1035.5,917.9883 1001.6272,943.0753 952.2772,964.6953" fill="none" id="CanonicalFile-to-IPathConventionFile" style="stroke:#181818;stroke-width:1;stroke-dasharray:7,7;"/><polygon fill="none" points="935.79,971.9183,954.6849,970.191,949.8696,959.1996,935.79,971.9183" style="stroke:#181818;stroke-width:1;"/></g><!--link ImageTreeFile to IPathConventionFile--><g class="link" data-entity-1="ent0013" data-entity-2="ent0002" data-link-type="extension" data-source-line="127" id="lnk24"><path codeLine="127" d="M299.19,862.3983 C305.16,865.2783 311.13,868.0183 317.05,870.5983 C377.03,896.7083 515.2295,936.2596 633.1395,968.2896" fill="none" id="ImageTreeFile-to-IPathConventionFile" style="stroke:#181818;stroke-width:1;stroke-dasharray:7,7;"/><polygon fill="none" points="650.51,973.0083,634.7124,962.4995,631.5666,974.0798,650.51,973.0083" style="stroke:#181818;stroke-width:1;"/></g><!--link ImageTreeFile to ItemTreePath--><g class="link" data-entity-1="ent0013" data-entity-2="ent0006" data-link-type="dependency" data-source-line="128" id="lnk25"><path codeLine="128" d="M275.53,871.0583 C312.3,900.3783 346.6288,927.7576 378.6088,953.2576" fill="none" id="ImageTreeFile-to-ItemTreePath" style="stroke:#181818;stroke-width:1;stroke-dasharray:7,7;"/><polygon fill="#181818" points="383.3,956.9983,378.7569,948.2598,379.3907,953.8811,373.7694,954.5148,383.3,956.9983" style="stroke:#181818;stroke-width:1;"/><text fill="#000000" font-family="sans-serif" font-size="13" lengthAdjust="spacing" textLength="28.5645" x="330.33" y="914.1666">uses</text></g><!--reverse link RaiPath to CanonicalPath--><g class="link" data-entity-1="ent0004" data-entity-2="ent0005" data-link-type="extension" data-source-line="130" id="lnk26"><path codeLine="130" d="M913.6939,826.8715 C949.8939,868.3615 994.72,919.7483 1033.3,963.9683" fill="none" id="RaiPath-backto-CanonicalPath" style="stroke:#181818;stroke-width:1;"/><polygon fill="none" points="901.86,813.3083,909.1728,830.8161,918.2149,822.9268,901.86,813.3083" style="stroke:#181818;stroke-width:1;"/></g><!--reverse link RaiPath to ItemTreePath--><g class="link" data-entity-1="ent0004" data-entity-2="ent0006" data-link-type="extension" data-source-line="131" id="lnk27"><path codeLine="131" d="M781.982,822.2744 C705.022,866.4844 597.32,928.3583 520.7,972.3783" fill="none" id="RaiPath-backto-ItemTreePath" style="stroke:#181818;stroke-width:1;"/><polygon fill="none" points="797.59,813.3083,778.9933,817.0717,784.9707,827.477,797.59,813.3083" style="stroke:#181818;stroke-width:1;"/></g><!--reverse link RaiFile to TextFile--><g class="link" data-entity-1="ent0007" data-entity-2="ent0008" data-link-type="extension" data-source-line="133" id="lnk28"><path codeLine="133" d="M1801.5413,334.9007 C1813.9713,344.8707 1812.21,343.5683 1824.05,353.3183 C1839.1,365.7183 1854.79,378.9483 1870.18,392.1283" fill="none" id="RaiFile-backto-TextFile" style="stroke:#181818;stroke-width:1;"/><polygon fill="none" points="1787.5,323.6383,1797.7872,339.5811,1805.2954,330.2203,1787.5,323.6383" style="stroke:#181818;stroke-width:1;"/></g><!--reverse link TextFile to CsvFile--><g class="link" data-entity-1="ent0008" data-entity-2="ent0009" data-link-type="extension" data-source-line="134" id="lnk29"><path codeLine="134" d="M1981.05,607.1683 C1981.05,646.1083 1981.05,671.8883 1981.05,706.7683" fill="none" id="TextFile-backto-CsvFile" style="stroke:#181818;stroke-width:1;"/><polygon fill="none" points="1981.05,589.1683,1975.05,607.1683,1987.05,607.1683,1981.05,589.1683" style="stroke:#181818;stroke-width:1;"/></g><!--reverse link RaiFile to TmpFile--><g class="link" data-entity-1="ent0007" data-entity-2="ent0010" data-link-type="extension" data-source-line="135" id="lnk30"><path codeLine="135" d="M1742.9644,338.8882 C1754.9944,358.2082 1755.86,363.3683 1763.05,384.3183 C1793.74,473.8183 1800.33,510.2383 1763.05,597.1983 C1734.79,663.1183 1667.98,715.8883 1623.39,745.4283" fill="none" id="RaiFile-backto-TmpFile" style="stroke:#181818;stroke-width:1;"/><polygon fill="none" points="1733.45,323.6083,1737.8711,342.0597,1748.0577,335.7168,1733.45,323.6083" style="stroke:#181818;stroke-width:1;"/></g><!--reverse link RaiFile to CanonicalFile--><g class="link" data-entity-1="ent0007" data-entity-2="ent0011" data-link-type="extension" data-source-line="136" id="lnk31"><path codeLine="136" d="M1387.4966,303.483 C1293.9166,353.803 1203.75,402.2783 1130.7,441.5583" fill="none" id="RaiFile-backto-CanonicalFile" style="stroke:#181818;stroke-width:1;"/><polygon fill="none" points="1403.35,294.9583,1384.6551,298.1985,1390.3382,308.7674,1403.35,294.9583" style="stroke:#181818;stroke-width:1;"/></g><!--reverse link RaiFile to ImageFile--><g class="link" data-entity-1="ent0007" data-entity-2="ent0012" data-link-type="extension" data-source-line="137" id="lnk32"><path codeLine="137" d="M1386.0454,236.3501 C1224.4754,274.6501 1011.15,327.2883 811.05,384.3183 C788.55,390.7283 765.27,397.6383 741.98,404.7383" fill="none" id="RaiFile-backto-ImageFile" style="stroke:#181818;stroke-width:1;"/><polygon fill="none" points="1403.56,232.1983,1384.6614,230.5119,1387.4293,242.1883,1403.56,232.1983" style="stroke:#181818;stroke-width:1;"/></g><!--reverse link ImageFile to ImageTreeFile--><g class="link" data-entity-1="ent0012" data-entity-2="ent0013" data-link-type="extension" data-source-line="138" id="lnk33"><path codeLine="138" d="M343.9556,609.1365 C314.4756,634.1965 296.88,649.1483 267.85,673.8183" fill="none" id="ImageFile-backto-ImageTreeFile" style="stroke:#181818;stroke-width:1;"/><polygon fill="none" points="357.67,597.4783,340.0695,604.565,347.8416,613.708,357.67,597.4783" style="stroke:#181818;stroke-width:1;"/></g><?plantuml-src hLPDZzis4BthLn0voUZQ6w103qQxmEucYpfOR8ArWHw272XfP36MI86aNBjDzxTtXfGbql8YEUGaQRxVc-5GPYTaopLlM5vpOswjrIBhBAno9TVY7s1l4rEflrafe2wCVs_0LWe_4Yji3UoZUHGPU-RYGU3Ndm8qrtbrJ18XBUYIvy1MdxYjxfNSWxH2IMVuRyBOBwFiYJV0bYmst1nR8BFRjgsFiIgT9Vyb2SYkkU3ZWjzpgQJ8UNrtfE0eMLbeLiL60v2l0qnraxylnxqjcK4Iv9O4gaKqLcbsdHgeIzJrzbVCTDaxeGVhsQWRWmybZ2cUbRAJD4J86ekBX0wqX-cZKVbK_7U2UPIHQAFQ8gYLHEikEnTD4fvwwbjLguwYPahLzDqtR7H_Vx3HzwGmylXBs0eDGHfiLSn1LzUJcCZmep1ZtCzVV2QKcNGMLACRzuaZHr_DFYsrQdnB2C8Lqz3MD8hUvOhj0Dexdk-wjXS5xdbxvXw6tY5jI9BBIQy5j0udwgzO0JLO81Tp2akMcKkKvgez1jbwc0FT6pZOWE-Aoos4Z3yAwS8I8o_U-ONajXBci_0bV8deUmPUE5xENTPy3saMmUyd06IHrfXe76mtKzA0jca6fTBmwDKEyDJqdQFW50EDd7Ijq5t37hI18UDuJin-1EwAHYf0Iru_qDwXiJ13bg6NTpMNEpDjt-YJpiucvsFs5V9-T1md7xpaPLIceZZqXUEZr_j3zC7utOKzDwvJqRm6U3PDE-B9DN0aP7PXBVoaHKZ-OSYqF3zBD9abxseR7bBs1tlp5I6z2NTCmxSmblMadE2fQpBG8yCNLWobEzy05tqt67m33NRGncUT58FnABvNjIA9UwvagTmuLJXFassn1XkaJ4qyc6xj51lr8BInReMWnj45fuKK3bb-oXVc7bPEJ1XjvP_Non_RrjwARe0BbXFnXOvDzlCzhgUDSiEDUzS4HoU4BHNsJOjjPPagur4EBzrvTfnBWfyFw9QeBuabOJ0oBf82PuALgYwmvMHRu3hP0RCLU3k3HI_GwVs1uxp0abqJhklRKcE6jKNY5wsmR7upLPmRKMb38LG0O3Trxal04X5fbsDD2_obA1XXF4SQDHh3qIk1x9cDORR4hO5jWoA3Pq-BFQPobqfltseenG4C6gU-bKi4ZPF9VhrYleadmM-pnUlbxmNlGrv_yaajRauJueZNpM9nC-od9UiCbZ0rEFqLlMeG_zcyOlRjvjAVNn8VcHyskub_WFgSoQdKtx_Dvt5PiIfqTbukh5ETBjvak85zC7yhdTbwwc9XV0eYrR1Gat6rZefXdlu7?></g></svg>